/* XPM */
static char *result[] = {
/* columns rows colors chars-per-pixel */
"64 64 96 2 ",
"   c #27BA00",
".  c #27BB00",
"X  c #27BC00",
"o  c #28BC00",
"O  c #28BD00",
"+  c #28BE00",
"@  c #28BF00",
"#  c #2DBB12",
"$  c #4ABE3E",
"%  c #28C000",
"&  c #29C100",
"*  c #29C200",
"=  c #29C300",
"-  c #29C400",
";  c #29C500",
":  c #2AC500",
">  c #2AC600",
",  c #2BCD00",
"<  c #2DD300",
"1  c #2ED900",
"2  c #2FDF00",
"3  c #31EA00",
"4  c #33F000",
"5  c #34F500",
"6  c #35FA00",
"7  c #36FF00",
"8  c #52FF3E",
"9  c #60C258",
"0  c #62C35B",
"q  c #65FF58",
"w  c #72C76D",
"e  c #7FCA7A",
"r  c #75FF6B",
"t  c #80CA7C",
"y  c #82CB7E",
"u  c #82FF7A",
"i  c #84FF7C",
"p  c #8DCE89",
"a  c #8ECF8A",
"s  c #98D295",
"d  c #99D296",
"f  c #A2D59F",
"g  c #8EFF87",
"h  c #99FF93",
"j  c #9AFF95",
"k  c #A3FF9E",
"l  c #A4FF9F",
"z  c #A3D6A0",
"x  c #ABD9A9",
"c  c #ACD9AA",
"v  c #ADDAAB",
"b  c #B5DDB3",
"n  c #B6DDB4",
"m  c #ACFFA8",
"M  c #AEFFAA",
"N  c #BDE0BC",
"B  c #BEE0BC",
"V  c #B7FFB3",
"C  c #BEFFBB",
"Z  c #C5E3C3",
"A  c #C6E4C4",
"S  c #CCE7CB",
"D  c #C6FFC3",
"F  c #CCFFCA",
"G  c #CDFFCB",
"H  c #CEFFCC",
"J  c #D4EAD3",
"K  c #D5EAD4",
"L  c #DBEDDA",
"P  c #DCEEDB",
"I  c #D4FFD2",
"U  c #D5FFD3",
"Y  c #DBFFD9",
"T  c #DCFFDA",
"R  c #E0E7E0",
"E  c #E1F0E1",
"W  c #E2F1E1",
"Q  c #E7F3E7",
"!  c #E7F7E7",
"~  c #E8F7E7",
"^  c #E1FFE0",
"/  c #E2FFE1",
"(  c #E7FFE6",
")  c #E8FFE7",
"_  c #E8F4E8",
"`  c #E9FFE8",
"'  c #ECFFEB",
"]  c #EFFFEE",
"[  c #F2FFF2",
"{  c #F3FFF3",
"}  c #F4FFF4",
"|  c #F6FFF6",
" . c #FAFFF9",
".. c #FEFFFE",
"X. c white",
"o. c None",
/* pixels */
"o.o.o.o.o.o.o.o.o.o.o.o.o.o.o.o.o.o.o.o.o.o.o.o.o.o.E L N b p p p p s N Z E Q o.o.o.o.o.o.o.o.o.o.o.o.o.o.o.o.o.o.o.o.o.o.o.o.o.",
"o.o.o.o.o.o.o.o.o.o.o.o.o.o.o.o.o.o.o.o.o.o.L b t                             $ s Z Q o.o.o.o.o.o.o.o.o.o.o.o.o.o.o.o.o.o.o.o.o.",
"o.o.o.o.o.o.o.o.o.o.o.o.o.o.o.o.o.o.o.o.J w     . % - : > > > > > > > > > - = +       f Q o.o.o.o.o.o.o.o.o.o.o.o.o.o.o.o.o.o.o.",
"o.o.o.o.o.o.o.o.o.o.o.o.o.o.o.o.o.o.c     . % > > > > > > > > > > > > > > > > > > = +     9 S o.o.o.o.o.o.o.o.o.o.o.o.o.o.o.o.o.",
"o.o.o.o.o.o.o.o.o.o.o.o.o.o.o.o.J 0   o : > > > > , 3 7 7 7 7 7 7 7 7 7 7 6 2 > > > > > *     f Q o.o.o.o.o.o.o.o.o.o.o.o.o.o.o.",
"o.o.o.o.o.o.o.o.o.o.o.o.o.o.J w   o > > > , 3 7 7 7 7 7 7 7 7 7 7 7 7 7 7 7 7 7 7 6 2 > > > *     f Q o.o.o.o.o.o.o.o.o.o.o.o.o.",
"o.o.o.o.o.o.o.o.o.o.o.o.o.A   . & > > , 4 7 7 7 7 i H X.X.X.X.X.X.X.X.X.X.H i 7 7 7 7 7 2 > > > +     Q o.o.o.o.o.o.o.o.o.o.o.o.",
"o.o.o.o.o.o.o.o.o.o.o.o.z   o > > , 4 7 7 7 i ` X.X.X.X.X.X.X.X.X.X.X.X.X.X.X.X.` i 7 7 7 7 2 > > *     S o.o.o.o.o.o.o.o.o.o.o.",
"o.o.o.o.o.o.o.o.o.o.o.d . & > > < 7 7 7 M X.X.X.X.X.X.X.X.X.X.X.X.X.X.X.X.X.X.X.X.X.X.M 7 7 7 5 > > > +   S o.o.o.o.o.o.o.o.o.o.",
"o.o.o.o.o.o.o.o.o.R 0 . * > , 4 7 7 M X.X.X.X.X.X.X.X.X.X.X.X.X.X.X.X.X.X.X.X.X.X.X.X.X.X.M 7 7 7 2 > > +   x o.o.o.o.o.o.o.o.o.",
"o.o.o.o.o.o.o.o.o.a . * > , 5 7 i ` X.X.X.X.X.X.X.X.X.X.X.X.X.X.X.X.X.X.X.X.X.X.X.X.X.X.X.X.` i 7 7 2 > > +   S o.o.o.o.o.o.o.o.",
"o.o.o.o.o.o.o.o.d . * > < 7 7 M X.X.X.X.X.X.X.X.X.X.X.X.X.X.X.X.X.X.X.X.X.X.X.X.X.X.X.X.X.X.X.X.M 7 7 5 > > +   S o.o.o.o.o.o.o.",
"o.o.o.o.o.o.o.B . * > < 7 7 M X.X.X.X.X.X.X.X.X.X.X.X.X.X.X.X.X.X.X.X.X.X.X.X.X.X.X.X.X.X.X.X.X.X.M 7 7 5 > > +   Q o.o.o.o.o.o.",
"o.o.o.o.o.o.A   O > , 5 7 M X.X.X.X.X.X.X.X.X.X.X.X.X.X.X.X.X.X.X.X.X.X.X.X.X.X.X.X.X.X.X.X.X.X.X.X.M 7 7 2 > >     Q o.o.o.o.o.",
"o.o.o.o.o._   o > , 5 7 M X.X.X.X.X.X.X.X.X.X.X.X.X.X.X.X.X.X.X.X.X.X.X.X.X.X.X.X.X.X.X.X.X.X.X.X.X.X.M 7 7 2 > *   e o.o.o.o.o.",
"o.o.o.o.o.n . * > 1 7 M X.X.X.X.X.X.X.X.X.X.X.X.X.X.X.X.X.X.X.X.X.X.X.X.X.X.X.X.X.X.X.X.X.X.X.X.X.X.X.X.M 7 7 > > +   Q o.o.o.o.",
"o.o.o.o._   O > < 7 i X.X.X.X.X.X.X.X.X.X.X.X.X.X.X.X.X.X.X.X.X.X.X.X.X.X.X.X.X.X.X.X.X.X.X.X.X.X.X.X.X.X.i 7 5 > >   e o.o.o.o.",
"o.o.o.o.a o > , 5 7 U X.X.X.X.X.X.X.X.X.X.X.X.X.X.X.X.X.X.X.X.X.X.X.X.X.X.X.X.X.X.X.X.X.X.X.X.X.X.X.X.X.X.U 7 7 2 > *   S o.o.o.",
"o.o.o.P   @ > 1 7 M X.X.X.X.X.X.X.X.X.X.X.X.X.X.X.X.X.X.X.X.X.X.X.X.X.X.X.X.X.X.X.X.X.X.X.X.X.X.X.X.X.X.X.X.M 7 7 > >     o.o.o.",
"o.o.o.v o > , 5 7 } X.X.X.X.X.X.X.X.X.X.X.X.X.X.X.X.X.X.X.X.X.X.X.X.X.X.X.X.X.X.X.X.X.X.X.X.X.X.X.X.X.X.X.X.} 7 7 2 > *   Q o.o.",
"o.o._   O > 1 7 M X.X.X.X.X.X.X.X.X.X.X.X.X.X.X.X.X.X.X.X.X.X.X.X.X.X.X.X.X.X.X.X.X.X.X.X.X.X.X.X.X.X.X.X.X.X.M 7 7 > >   e o.o.",
"o.o.n . * , 5 7 } X.X.X.X.X.X.X.X.X.X.X.X.X.X.X.X.X.X.X.X.X.X.X.X.X.X.X.X.X.X.X.X.X.X.X.X.X.X.X.X.X.X.X.X.X.X.} 7 7 2 > +   Q o.",
"o.R # o > < 7 i X.X.X.X.X.X.X.X.X.X.X.X.X.X.X.X.X.X.X.X.X.X.X.X.X.X.X.X.X.X.X.X.X.X.X.X.X.X.X.X.X.X.X.X.X.X.X.X.i 7 5 > =   x o.",
"o.W   @ > 1 7 U X.X.X.X.X.X.X.X.X.X.X.X.X.X.X.X.X.X.X.X.X.X.X.X.X.X.X.X.X.X.X.X.X.X.X.X.X.X.X.X.X.X.X.X.X.X.X.X.U 7 7 > >     o.",
"o.K . = > 2 7  .X.X.X.X.X.X.X.X.X.X.X.X.X.X.X.X.X.X.X.X.X.X.X.X.X.X.X.X.X.X.X.X.X.X.X.X.X.X.X.X.X.X.X.X.X.X.X.X. .7 7 > > +   o.",
"o.v o > , 5 i X.X.X.X.X.X.X.X.X.X.X.X.X.X.X.X.X.X.X.X.X.X.X.X.X.X.X.X.X.X.X.X.X.X.X.X.X.X.X.X.X.X.X.X.X.X.X.X.X.X.i 7 2 > =   [ ",
"o.y o > < 7 V X.X.X.X.X.X.X.X.X.X.X.X.X.X.X.X.X.X.X.X.X.X.X.X.X.X.X.X.X.X.X.X.X.X.X.X.X.X.X.X.X.X.X.X.X.X.X.X.X.X.V 7 5 > -   S ",
"| # O > 1 7 T X.X.X.X.X.X.X.X.X.X.X.X.X.X.X.X.X.X.X.X.X.X.X.X.X.X.X.X.X.X.X.X.X.X.X.X.X.X.X.X.X.X.X.X.X.X.X.X.X.X.T 7 7 > >   x ",
"[   + > 1 7 / X.X.X.X.X.X.X.X.X.X.X.X.X.X.X.X.X.X.X.X.X.X.X.X.X.X.X.X.X.X.X.X.X.X.X.X.X.X.X.X.X.X.X.X.X.X.X.X.X.X./ 7 7 > >   e ",
"]   @ > 2 7  .X.X.X.X.X.X.X.X.X.X.X.X.X.X.X.X.X.X.X.X.X.X.X.X.X.X.X.X.X.X.X.X.X.X.X.X.X.X.X.X.X.X.X.X.X.X.X.X.X.X. .7 7 > >     ",
"'   @ > 2 7 X.X.X.X.X.X.X.X.X.X.X.X.X.X.X.X.X.X.X.X.X.X.X.X.X.X.X.X.X.X.X.X.X.X.X.X.X.X.X.X.X.X.X.X.X.X.X.X.X.X.X.X.7 7 > >     ",
"'   @ > 2 7 X.X.X.X.X.X.X.X.X.X.X.X.X.X.X.X.X.X.X.X.X.X.X.X.X.X.X.X.X.X.X.X.X.X.X.X.X.X.X.X.X.X.X.X.X.X.X.X.X.X.X.X.7 7 > >     ",
"'   @ > 2 7 X.X.X.X.X.X.X.X.X.X.X.X.X.X.X.X.X.X.X.X.X.X.X.X.X.X.X.X.X.X.X.X.X.X.X.X.X.X.X.X.X.X.X.X.X.X.X.X.X.X.X.X.7 7 > >     ",
"'   @ > 2 7 X.X.X.X.X.X.X.X.X.X.X.X.X.X.X.X.X.X.X.X.X.X.X.X.X.X.X.X.X.X.X.X.X.X.X.X.X.X.X.X.X.X.X.X.X.X.X.X.X.X.X.X.7 7 > >     ",
"]   + > 1 7 ) X.X.X.X.X.X.X.X.X.X.X.X.X.X.X.X.X.X.X.X.X.X.X.X.X.X.X.X.X.X.X.X.X.X.X.X.X.X.X.X.X.X.X.X.X.X.X.X.X.X.) 7 7 > >     ",
"[   + > 1 7 / X.X.X.X.X.X.X.X.X.X.X.X.X.X.X.X.X.X.X.X.X.X.X.X.X.X.X.X.X.X.X.X.X.X.X.X.X.X.X.X.X.X.X.X.X.X.X.X.X.X./ 7 7 > >   e ",
"| # O > < 7 D X.X.X.X.X.X.X.X.X.X.X.X.X.X.X.X.X.X.X.X.X.X.X.X.X.X.X.X.X.X.X.X.X.X.X.X.X.X.X.X.X.X.X.X.X.X.X.X.X.X.D 7 5 > :   x ",
"o.y o > , 5 j X.X.X.X.X.X.X.X.X.X.X.X.X.X.X.X.X.X.X.X.X.X.X.X.X.X.X.X.X.X.X.X.X.X.X.X.X.X.X.X.X.X.X.X.X.X.X.X.X.X.j 7 2 > -   S ",
"o.v . ; > 2 8 X.X.X.X.X.X.X.X.X.X.X.X.X.X.X.X.X.X.X.X.X.X.X.X.X.X.X.X.X.X.X.X.X.X.X.X.X.X.X.X.X.X.X.X.X.X.X.X.X.X.8 7 > > %   Q ",
"o.K   % > 1 7 ) X.X.X.X.X.X.X.X.X.X.X.X.X.X.X.X.X.X.X.X.X.X.X.X.X.X.X.X.X.X.X.X.X.X.X.X.X.X.X.X.X.X.X.X.X.X.X.X.) 7 7 > > .   o.",
"o.~   O > < 7 l X.X.X.X.X.X.X.X.X.X.X.X.X.X.X.X.X.X.X.X.X.X.X.X.X.X.X.X.X.X.X.X.X.X.X.X.X.X.X.X.X.X.X.X.X.X.X.X.l 7 5 > >     o.",
"o.| # . ; , 5 8 X.X.X.X.X.X.X.X.X.X.X.X.X.X.X.X.X.X.X.X.X.X.X.X.X.X.X.X.X.X.X.X.X.X.X.X.X.X.X.X.X.X.X.X.X.X.X.X.8 7 2 > %   x o.",
"o.o.n   @ > 1 7 G X.X.X.X.X.X.X.X.X.X.X.X.X.X.X.X.X.X.X.X.X.X.X.X.X.X.X.X.X.X.X.X.X.X.X.X.X.X.X.X.X.X.X.X.X.X.G 7 7 > > .   Q o.",
"o.o.[   O > , 5 q X.X.X.X.X.X.X.X.X.X.X.X.X.X.X.X.X.X.X.X.X.X.X.X.X.X.X.X.X.X.X.X.X.X.X.X.X.X.X.X.X.X.X.X.X.X.q 7 2 > :   e o.o.",
"o.o.o.v   & > 1 7 G X.X.X.X.X.X.X.X.X.X.X.X.X.X.X.X.X.X.X.X.X.X.X.X.X.X.X.X.X.X.X.X.X.X.X.X.X.X.X.X.X.X.X.X.G 7 7 > > o   Q o.o.",
"o.o.o.P   O > , 5 q { X.X.X.X.X.X.X.X.X.X.X.X.X.X.X.X.X.X.X.X.X.X.X.X.X.X.X.X.X.X.X.X.X.X.X.X.X.X.X.X.X.X.{ q 7 2 > >     o.o.o.",
"o.o.o.o.a   % > < 7 l X.X.X.X.X.X.X.X.X.X.X.X.X.X.X.X.X.X.X.X.X.X.X.X.X.X.X.X.X.X.X.X.X.X.X.X.X.X.X.X.X.X.l 7 5 > > o   S o.o.o.",
"o.o.o.o.[   X > > 1 8 I X.X.X.X.X.X.X.X.X.X.X.X.X.X.X.X.X.X.X.X.X.X.X.X.X.X.X.X.X.X.X.X.X.X.X.X.X.X.X.X.I 8 7 > > &   e o.o.o.o.",
"o.o.o.o.o.n   + > , 5 q Y X.X.X.X.X.X.X.X.X.X.X.X.X.X.X.X.X.X.X.X.X.X.X.X.X.X.X.X.X.X.X.X.X.X.X.X.X.X.Y q 7 2 > > .   Q o.o.o.o.",
"o.o.o.o.o.[     % > , 5 q Y X.X.X.X.X.X.X.X.X.X.X.X.X.X.X.X.X.X.X.X.X.X.X.X.X.X.X.X.X.X.X.X.X.X.X.X.Y q 7 2 > > o   e o.o.o.o.o.",
"o.o.o.o.o.o.A   X > > < 7 q Y X.X.X.X.X.X.X.X.X.X.X.X.X.X.X.X.X.X.X.X.X.X.X.X.X.X.X.X.X.X.X.X.X.X.Y q 7 5 > > &     Q o.o.o.o.o.",
"o.o.o.o.o.o.o.B   O > > < 7 q Y X.X.X.X.X.X.X.X.X.X.X.X.X.X.X.X.X.X.X.X.X.X.X.X.X.X.X.X.X.X.X.X.Y q 7 5 > > * .   Q o.o.o.o.o.o.",
"o.o.o.o.o.o.o.o.d   O > > , 5 q C X.X.X.X.X.X.X.X.X.X.X.X.X.X.X.X.X.X.X.X.X.X.X.X.X.X.X.X.X.X.C q 7 2 > > * .   S o.o.o.o.o.o.o.",
"o.o.o.o.o.o.o.o.o.a   O > > , 4 8 u ^ X.X.X.X.X.X.X.X.X.X.X.X.X.X.X.X.X.X.X.X.X.X.X.X.X.X.^ u 8 7 2 > > * .   S o.o.o.o.o.o.o.o.",
"o.o.o.o.o.o.o.o.o.| 0   O > > > < 7 q h ( X.X.X.X.X.X.X.X.X.X.X.X.X.X.X.X.X.X.X.X.X.X.( h q 7 5 > > > * .   x o.o.o.o.o.o.o.o.o.",
"o.o.o.o.o.o.o.o.o.o.o.d   X % > > , 4 7 q h F X.X.X.X.X.X.X.X.X.X.X.X.X.X.X.X.X.X.F h q 7 7 2 > > > O .   S o.o.o.o.o.o.o.o.o.o.",
"o.o.o.o.o.o.o.o.o.o.o.o.z     + > > > , 4 7 8 u k F ..X.X.X.X.X.X.X.X.X.X...F k u 8 7 7 2 > > > * o     S o.o.o.o.o.o.o.o.o.o.o.",
"o.o.o.o.o.o.o.o.o.o.o.o.o.A     X % > > > , 3 7 7 8 r g h k m m m m k h g r 8 7 7 6 2 > > > > O .     Q o.o.o.o.o.o.o.o.o.o.o.o.",
"o.o.o.o.o.o.o.o.o.o.o.o.o.o.J w     O & > > > > > , 3 7 7 7 7 7 7 7 7 7 7 6 2 > > > > > > @ o     f Q o.o.o.o.o.o.o.o.o.o.o.o.o.",
"o.o.o.o.o.o.o.o.o.o.o.o.o.o.o.o.J 0     O @ ; > > > > > > > > > > > > > > > > > > > * O o     f Q o.o.o.o.o.o.o.o.o.o.o.o.o.o.o.",
"o.o.o.o.o.o.o.o.o.o.o.o.o.o.o.o.o.o.c       . O % ; > > > > > > > > > > > > > = @ o .     9 S o.o.o.o.o.o.o.o.o.o.o.o.o.o.o.o.o.",
"o.o.o.o.o.o.o.o.o.o.o.o.o.o.o.o.o.o.o.o.J w       . o O + + @ @ @ @ @ + O o o .       f Q o.o.o.o.o.o.o.o.o.o.o.o.o.o.o.o.o.o.o.",
"o.o.o.o.o.o.o.o.o.o.o.o.o.o.o.o.o.o.o.o.o.o.L b t                             $ s Z Q o.o.o.o.o.o.o.o.o.o.o.o.o.o.o.o.o.o.o.o.o.",
"o.o.o.o.o.o.o.o.o.o.o.o.o.o.o.o.o.o.o.o.o.o.o.o.o.o.! L N b p p p p s N Z E Q o.o.o.o.o.o.o.o.o.o.o.o.o.o.o.o.o.o.o.o.o.o.o.o.o."
};
