/* XPM */
static char *result[] = {
/* columns rows colors chars-per-pixel */
"64 64 101 2 ",
"   c #BC0000",
".  c #27BA00",
"X  c #27BB00",
"o  c #27BC00",
"O  c #28BC00",
"+  c #28BD00",
"@  c #28BE00",
"#  c #28BF00",
"$  c #2DBB12",
"%  c #4ABE3E",
"&  c #28C000",
"*  c #29C100",
"=  c #29C200",
"-  c #29C300",
";  c #29C400",
":  c #29C500",
">  c #2AC500",
",  c #2AC600",
"<  c #2BCD00",
"1  c #2DD300",
"2  c #2ED900",
"3  c #2FDF00",
"4  c #31EA00",
"5  c #33F000",
"6  c #34F500",
"7  c #35FA00",
"8  c #36FF00",
"9  c #52FF3E",
"0  c #60C258",
"q  c #62C35B",
"w  c #65FF58",
"e  c #72C76D",
"r  c #7FCA7A",
"t  c #75FF6B",
"y  c #80CA7C",
"u  c #82CB7E",
"i  c #82FF7A",
"p  c #84FF7C",
"a  c #8DCE89",
"s  c #8ECF8A",
"d  c #98D295",
"f  c #99D296",
"g  c #A2D59F",
"h  c #8EFF87",
"j  c #99FF93",
"k  c #9AFF95",
"l  c #A3FF9E",
"z  c #A4FF9F",
"x  c #A3D6A0",
"c  c #ABD9A9",
"v  c #ACD9AA",
"b  c #ADDAAB",
"n  c #B5DDB3",
"m  c #B6DDB4",
"M  c #ACFFA8",
"N  c #AEFFAA",
"B  c #BDE0BC",
"V  c #BEE0BC",
"C  c #B7FFB3",
"Z  c #BEFFBB",
"A  c #EBD4D4",
"S  c #C5E3C3",
"D  c #C6E4C4",
"F  c #CCE7CB",
"G  c #C6FFC3",
"H  c #CCFFCA",
"J  c #CDFFCB",
"K  c #CEFFCC",
"L  c #D4EAD3",
"P  c #D5EAD4",
"I  c #DBEDDA",
"U  c #DCEEDB",
"Y  c #D4FFD2",
"T  c #D5FFD3",
"R  c #DBFFD9",
"E  c #DCFFDA",
"W  c #E0E7E0",
"Q  c #F1E3E3",
"!  c #F4E8E8",
"~  c #E1F0E1",
"^  c #E2F1E1",
"/  c #E7F3E7",
"(  c #E7F7E7",
")  c #E8F7E7",
"_  c #E1FFE0",
"`  c #E2FFE1",
"'  c #E7FFE6",
"]  c #E8FFE7",
"[  c #E8F4E8",
"{  c #E9FFE8",
"}  c #ECFFEB",
"|  c #EFFFEE",
" . c #F2FFF2",
".. c #F3FFF3",
"X. c #F4FFF4",
"o. c #F6FFF6",
"O. c #FCFAFA",
"+. c #FAFFF9",
"@. c #FEFFFE",
"#. c white",
"$. c None",
/* pixels */
"$.$.$.$.$.$.$.$.$.$.$.$.$.$.$.$.$.$.$.$.$.$.$.$.$.$.~ I B n a a a a d B S ~ / $.$.$.$.$.$.$.$.$.$.$.$.$.$.$.$.$.$.$.$.$.$.$.$.$.",
"$.$.$.$.$.$.$.$.$.$.$.$.$.$.$.$.$.$.$.$.$.$.I n y . . . . . . . . . . . . . . % d S / $.$.$.$.$.$.$.$.$.$.$.$.$.$.$.$.$.$.$.$.$.",
"$.$.$.$.$.$.$.$.$.$.$.$.$.$.$.$.$.$.$.$.L e . . X & ; > , , , , , , , , , ; - @ . . . g / $.$.$.$.$.$.$.$.$.$.$.$.$.$.$.$.$.$.$.",
"$.$.$.$.$.$.$.$.$.$.$.$.$.$.$.$.$.$.v . . X & , , , , , , , , , , , , , , , , , , - @ . . 0 F $.$.$.$.$.$.$.$.$.$.$.$.$.$.$.$.$.",
"$.$.$.$.$.$.$.$.$.$.$.$.$.$.$.$.L q . O > , , , , < 4 8 8 8 8 8 8 8 8 8 8 7 3 , , , , , = . . g / $.$.$.$.$.$.$.$.$.$.$.$.$.$.$.",
"$.$.$.$.$.$.$.$.$.$.$.$.$.$.L e . O , , , < 4 8 8 8 8 8 8 8 8 8 8 8 8 8 8 8 8 8 8 7 3 , , , = . . g / $.$.$.$.$.$.$.$.$.$.$.$.$.",
"$.$.$.$.$.$.$.$.$.$.$.$.$.D . X * , , < 5 8 8 8 8 p K #.#.#.#.#.#.#.#.#.#.K p 8 8 8 8 8 3 , , , @ . . / $.$.$.$.$.$.$.$.$.$.$.$.",
"$.$.$.$.$.$.$.$.$.$.$.$.x . O , , < 5 8 8 8 p { #.#.#.#.#.#.#.#.#.#.#.#.#.#.#.#.{ p 8 8 8 8 3 , , = . . F $.$.$.$.$.$.$.$.$.$.$.",
"$.$.$.$.$.$.$.$.$.$.$.f X * , , 1 8 8 8 N #.#.#.#.#.#.#.#.#.#.#.#.#.#.#.#.#.#.#.#.#.#.N 8 8 8 6 , , , @ . F $.$.$.$.$.$.$.$.$.$.",
"$.$.$.$.$.$.$.$.$.W q X = , < 5 8 8 N #.#.#.#.#.#.#.#.#.#.#.#.#.#.#.#.#.#.#.#.#.#.#.#.#.#.N 8 8 8 3 , , @ . c $.$.$.$.$.$.$.$.$.",
"$.$.$.$.$.$.$.$.$.s X = , < 6 8 p { #.#.#.#.#.#.#.#.#.#.#.#.#.#.#.#.#.#.#.#.#.#.#.#.#.#.#.#.{ p 8 8 3 , , @ . F $.$.$.$.$.$.$.$.",
"$.$.$.$.$.$.$.$.f X = , 1 8 8 N #.#.#.#.#.#.#.#.#.#.#.#.#.#.#.#.#.#.#.#.#.#.#.#.#.#.#.#.#.#.#.#.N 8 8 6 , , @ . F $.$.$.$.$.$.$.",
"$.$.$.$.$.$.$.V X = , 1 8 8 N #.#.#.#.#.#.#.#.#.#.#.#.#.#.#.#.#.#.#.#.#.#.#.#.#.#.#.#.#.#.#.#.#.#.N 8 8 6 , , @ . / $.$.$.$.$.$.",
"$.$.$.$.$.$.D . + , < 6 8 N #.#.#.#.#.#.#.#.#.#.#.#.#.#.#.#.#.#.#.#.#.#.#.#.#.#.#.#.#.#.#.#.#.#.#.#.N 8 8 3 , , . . / $.$.$.$.$.",
"$.$.$.$.$.[ . O , < 6 8 N #.#.#.#.#.#.#.#.#.#.#.#.#.#.#.#.#.#.#.#.#.#.#.#.#.#.#.#.#.#.#.#.#.#.#.#.#.#.N 8 8 3 , = . r $.$.$.$.$.",
"$.$.$.$.$.m X = , 2 8 N #.#.#.#.#.#.#.#.#.#.#.#.#.#.#.#.#.#.#.#.#.#.#.#.#.#.#.#.#.#.#.#.#.#.#.#.#.#.#.#.N 8 8 , , @ . / $.$.$.$.",
"$.$.$.$.[ . + , 1 8 p #.#.#.#.#.#.#.#.#.#.#.#.#.#.#.#.#.#.#.#.#.#.#.#.#.#.#.#.#.#.#.#.#.#.#.#.#.#.#.#.#.#.p 8 6 , , . r $.$.$.$.",
"$.$.$.$.s O , < 6 8 T #.#.#.#.#.#.#.#.#.#.#.#.#.#.#.#.#.#.#.#.#.#.#.#.#.#.#.#.#.#.#.#.#.#.#.#.#.#.#.#.#.#.T 8 8 3 , = . F $.$.$.",
"$.$.$.U . # , 2 8 N #.#.#.#.#.#.#.#.#.#.#.#.#.#.#.#.#.#.#.#.#.#.#.#.#.#.#.#.#.#.#.#.#.#.#.#.#.#.#.#.#.#.#.#.N 8 8 , , . . $.$.$.",
"$.$.$.b O , < 6 8 X.#.#.#.#.#.#.#.#.#.#.#.#.#.#.#.#.#.#.#.#.#.#.#.#.#.#.#.#.#.#.#.#.#.#.#.#.#.#.#.#.#.#.#.#.X.8 8 3 , = . / $.$.",
"$.$.[ . + , 2 8 N #.#.#.#.#.#.#.#.#.#.#.#.#.#.#.#.#.#.#.#.#.#.#.#.#.#.#.#.#.#.#.#.#.#.#.#.#.#.#.#.#.#.#.#.#.#.N 8 8 , , . r $.$.",
"$.$.m X = < 6 8 X.#.#.#.#.#.#.#.#.#.#.#.#.#.#.#.#.#.#.#.#.#.#.#.#.#.#.#.#.#.#.#.#.#.#.#.#.#.#.#.#.#.#.#.#.#.#.X.8 8 3 , @ . / $.",
"$.W $ O , 1 8 p #.#.#.#.#.#.#.#.#.#.#.#.#.#.#.#.#.#.#.#.#.#.#.#.#.#.#.#.#.#.#.#.#.#.#.#.#.#.#.#.#.#.#.#.#.#.#.#.p 8 6 , - . c $.",
"$.^ . # , 2 8 T #.#.#.#.#.#.#.#.#.#.#.#.#.#.#.#.#.#.#.#.#.#.#.#.#.#.#.#.#.#.#.#.#.#.#.#.#.#.#.#.#.#.#.#.#.#.#.#.T 8 8 , , . . $.",
"$.P X - , 3 8 +.#.#.#.#.#.#.#.#.#.#.#.#.#.#.#.#.#.#.#.#.#.#.#.#.#.#.#.#.#.#.#.#.#.#.#.#.#.#.#.#.#.#.#.#.#.#.#.#.+.8 8 , , @ . $.",
"$.b O , < 6 p #.#.#.#.#.#.#.#.#.#.#.#.#.#.#.#.#.#.#.#.#.#.#.#.#.#.#.#.#.#.#.#.#.#.#.#.#.#.#.#.#.#.#.#.#.#.#.#.#.#.p 8 3 , - .  .",
"$.u O , 1 8 C #.#.#.#.#.#.#.#.#.#.#.#.#.#.#.#.#.#.#.#.#.#.#.#.#.#.#.#.#.#.#.#.#.#.#.#.#.#.#.#.#.#.#.#.#.#.#.#.#.#.C 8 6 , ; . F ",
"o.$ + , 2 8 E #.#.#.#.#.#.#.#.#.#.#.#.#.#.#.#.#.#.#.#.#.#.#.#.#.#.#.#.#.#.#.#.#.#.#.#.#.#.#.#.#.#.#.#.#.#.#.#.#.#.E 8 8 , , . c ",
" .. @ , 2 8 ` #.#.#.#.#.#.#.#.#.#.#.#.#.#.#.#.#.#.#.#.#.#.#.#.#.#.#.#.#.#.#.#.#.#.#.#.#.#.#.#.#.#.#.#.#.#.#.#.#.#.` 8 8 , , . r ",
"| . # , 3 8 +.#.#.#.#.#.#.#.#.#.#.#.#.#.#.#.#.#.#.#.#.#.#.O.A   ! #.#.#.#.#.#.#.#.#.#.#.#.#.#.#.#.#.#.#.#.#.#.#.#.+.8 8 , , . . ",
"} . # , 3 8 #.#.#.#.#.#.#.#.#.#.#.#.#.#.#.#.#.#.#.#.#.#.#.A       #.#.#.#.#.#.#.#.#.#.#.#.#.#.#.#.#.#.#.#.#.#.#.#.#.8 8 , , . . ",
"} . # , 3 8 #.#.#.#.#.#.#.#.#.#.#.#.#.#.#.#.#.#.#.#.#.#.#.          #.#.#.#.#.#.#.#.#.#.#.#.#.#.#.#.#.#.#.#.#.#.#.#.8 8 , , . . ",
"} . # , 3 8 #.#.#.#.#.#.#.#.#.#.#.#.#.#.#.#.#.#.#.#.#.#.#.A       Q #.#.#.#.#.#.#.#.#.#.#.#.#.#.#.#.#.#.#.#.#.#.#.#.8 8 , , . . ",
"} . # , 3 8 #.#.#.#.#.#.#.#.#.#.#.#.#.#.#.#.#.#.#.#.#.#.#.#.#.  #.#.#.#.#.#.#.#.#.#.#.#.#.#.#.#.#.#.#.#.#.#.#.#.#.#.8 8 , , . . ",
"| . @ , 2 8 ] #.#.#.#.#.#.#.#.#.#.#.#.#.#.#.#.#.#.#.#.#.#.#.#.#.#.#.#.#.#.#.#.#.#.#.#.#.#.#.#.#.#.#.#.#.#.#.#.#.#.] 8 8 , , . . ",
" .. @ , 2 8 ` #.#.#.#.#.#.#.#.#.#.#.#.#.#.#.#.#.#.#.#.#.#.#.#.#.#.#.#.#.#.#.#.#.#.#.#.#.#.#.#.#.#.#.#.#.#.#.#.#.#.` 8 8 , , . r ",
"o.$ + , 1 8 G #.#.#.#.#.#.#.#.#.#.#.#.#.#.#.#.#.#.#.#.#.#.#.#.#.#.#.#.#.#.#.#.#.#.#.#.#.#.#.#.#.#.#.#.#.#.#.#.#.#.G 8 6 , > . c ",
"$.u O , < 6 k #.#.#.#.#.#.#.#.#.#.#.#.#.#.#.#.#.#.#.#.#.#.#.#.#.#.#.#.#.#.#.#.#.#.#.#.#.#.#.#.#.#.#.#.#.#.#.#.#.#.k 8 3 , ; . F ",
"$.b X : , 3 9 #.#.#.#.#.#.#.#.#.#.#.#.#.#.#.#.#.#.#.#.#.#.#.#.#.#.#.#.#.#.#.#.#.#.#.#.#.#.#.#.#.#.#.#.#.#.#.#.#.#.9 8 , , & . / ",
"$.P . & , 2 8 ] #.#.#.#.#.#.#.#.#.#.#.#.#.#.#.#.#.#.#.#.#.#.#.#.#.#.#.#.#.#.#.#.#.#.#.#.#.#.#.#.#.#.#.#.#.#.#.#.] 8 8 , , X . $.",
"$.) . + , 1 8 z #.#.#.#.#.#.#.#.#.#.#.#.#.#.#.#.#.#.#.#.#.#.#.#.#.#.#.#.#.#.#.#.#.#.#.#.#.#.#.#.#.#.#.#.#.#.#.#.z 8 6 , , . . $.",
"$.o.$ X : < 6 9 #.#.#.#.#.#.#.#.#.#.#.#.#.#.#.#.#.#.#.#.#.#.#.#.#.#.#.#.#.#.#.#.#.#.#.#.#.#.#.#.#.#.#.#.#.#.#.#.9 8 3 , & . c $.",
"$.$.m . # , 2 8 J #.#.#.#.#.#.#.#.#.#.#.#.#.#.#.#.#.#.#.#.#.#.#.#.#.#.#.#.#.#.#.#.#.#.#.#.#.#.#.#.#.#.#.#.#.#.J 8 8 , , X . / $.",
"$.$. .. + , < 6 w #.#.#.#.#.#.#.#.#.#.#.#.#.#.#.#.#.#.#.#.#.#.#.#.#.#.#.#.#.#.#.#.#.#.#.#.#.#.#.#.#.#.#.#.#.#.w 8 3 , > . r $.$.",
"$.$.$.b . * , 2 8 J #.#.#.#.#.#.#.#.#.#.#.#.#.#.#.#.#.#.#.#.#.#.#.#.#.#.#.#.#.#.#.#.#.#.#.#.#.#.#.#.#.#.#.#.J 8 8 , , O . / $.$.",
"$.$.$.U . + , < 6 w ..#.#.#.#.#.#.#.#.#.#.#.#.#.#.#.#.#.#.#.#.#.#.#.#.#.#.#.#.#.#.#.#.#.#.#.#.#.#.#.#.#.#...w 8 3 , , . . $.$.$.",
"$.$.$.$.s . & , 1 8 z #.#.#.#.#.#.#.#.#.#.#.#.#.#.#.#.#.#.#.#.#.#.#.#.#.#.#.#.#.#.#.#.#.#.#.#.#.#.#.#.#.#.z 8 6 , , O . F $.$.$.",
"$.$.$.$. .. o , , 2 9 Y #.#.#.#.#.#.#.#.#.#.#.#.#.#.#.#.#.#.#.#.#.#.#.#.#.#.#.#.#.#.#.#.#.#.#.#.#.#.#.#.Y 9 8 , , * . r $.$.$.$.",
"$.$.$.$.$.m . @ , < 6 w R #.#.#.#.#.#.#.#.#.#.#.#.#.#.#.#.#.#.#.#.#.#.#.#.#.#.#.#.#.#.#.#.#.#.#.#.#.#.R w 8 3 , , X . / $.$.$.$.",
"$.$.$.$.$. .. . & , < 6 w R #.#.#.#.#.#.#.#.#.#.#.#.#.#.#.#.#.#.#.#.#.#.#.#.#.#.#.#.#.#.#.#.#.#.#.#.R w 8 3 , , O . r $.$.$.$.$.",
"$.$.$.$.$.$.D . o , , 1 8 w R #.#.#.#.#.#.#.#.#.#.#.#.#.#.#.#.#.#.#.#.#.#.#.#.#.#.#.#.#.#.#.#.#.#.R w 8 6 , , * . . / $.$.$.$.$.",
"$.$.$.$.$.$.$.V . + , , 1 8 w R #.#.#.#.#.#.#.#.#.#.#.#.#.#.#.#.#.#.#.#.#.#.#.#.#.#.#.#.#.#.#.#.R w 8 6 , , = X . / $.$.$.$.$.$.",
"$.$.$.$.$.$.$.$.f . + , , < 6 w Z #.#.#.#.#.#.#.#.#.#.#.#.#.#.#.#.#.#.#.#.#.#.#.#.#.#.#.#.#.#.Z w 8 3 , , = X . F $.$.$.$.$.$.$.",
"$.$.$.$.$.$.$.$.$.s . + , , < 5 9 i _ #.#.#.#.#.#.#.#.#.#.#.#.#.#.#.#.#.#.#.#.#.#.#.#.#.#._ i 9 8 3 , , = X . F $.$.$.$.$.$.$.$.",
"$.$.$.$.$.$.$.$.$.o.q . + , , , 1 8 w j ' #.#.#.#.#.#.#.#.#.#.#.#.#.#.#.#.#.#.#.#.#.#.' j w 8 6 , , , = X . c $.$.$.$.$.$.$.$.$.",
"$.$.$.$.$.$.$.$.$.$.$.f . o & , , < 5 8 w j H #.#.#.#.#.#.#.#.#.#.#.#.#.#.#.#.#.#.H j w 8 8 3 , , , + X . F $.$.$.$.$.$.$.$.$.$.",
"$.$.$.$.$.$.$.$.$.$.$.$.x . . @ , , , < 5 8 9 i l H @.#.#.#.#.#.#.#.#.#.#.@.H l i 9 8 8 3 , , , = O . . F $.$.$.$.$.$.$.$.$.$.$.",
"$.$.$.$.$.$.$.$.$.$.$.$.$.D . . o & , , , < 4 8 8 9 t h j l M M M M l j h t 9 8 8 7 3 , , , , + X . . / $.$.$.$.$.$.$.$.$.$.$.$.",
"$.$.$.$.$.$.$.$.$.$.$.$.$.$.L e . . + * , , , , , < 4 8 8 8 8 8 8 8 8 8 8 7 3 , , , , , , # O . . g / $.$.$.$.$.$.$.$.$.$.$.$.$.",
"$.$.$.$.$.$.$.$.$.$.$.$.$.$.$.$.L q . . + # : , , , , , , , , , , , , , , , , , , , = + O . . g / $.$.$.$.$.$.$.$.$.$.$.$.$.$.$.",
"$.$.$.$.$.$.$.$.$.$.$.$.$.$.$.$.$.$.v . . . X + & : , , , , , , , , , , , , , - # O X . . 0 F $.$.$.$.$.$.$.$.$.$.$.$.$.$.$.$.$.",
"$.$.$.$.$.$.$.$.$.$.$.$.$.$.$.$.$.$.$.$.L e . . . X O + @ @ # # # # # @ + O O X . . . g / $.$.$.$.$.$.$.$.$.$.$.$.$.$.$.$.$.$.$.",
"$.$.$.$.$.$.$.$.$.$.$.$.$.$.$.$.$.$.$.$.$.$.I n y . . . . . . . . . . . . . . % d S / $.$.$.$.$.$.$.$.$.$.$.$.$.$.$.$.$.$.$.$.$.",
"$.$.$.$.$.$.$.$.$.$.$.$.$.$.$.$.$.$.$.$.$.$.$.$.$.$.( I B n a a a a d B S ~ / $.$.$.$.$.$.$.$.$.$.$.$.$.$.$.$.$.$.$.$.$.$.$.$.$."
};
