/* XPM */
static char *result[] = {
/* columns rows colors chars-per-pixel */
"64 64 124 2 ",
"   c #BC0000",
".  c #BE2020",
"X  c #C03939",
"o  c #C86A6A",
"O  c #27BA00",
"+  c #27BB00",
"@  c #27BC00",
"#  c #28BC00",
"$  c #28BD00",
"%  c #28BE00",
"&  c #28BF00",
"*  c #2DBB12",
"=  c #4ABE3E",
"-  c #28C000",
";  c #29C100",
":  c #29C200",
">  c #29C300",
",  c #29C400",
"<  c #29C500",
"1  c #2AC500",
"2  c #2AC600",
"3  c #2BCD00",
"4  c #2DD300",
"5  c #2ED900",
"6  c #2FDF00",
"7  c #31EA00",
"8  c #33F000",
"9  c #34F500",
"0  c #35FA00",
"q  c #36FF00",
"w  c #52FF3E",
"e  c #60C258",
"r  c #62C35B",
"t  c #65FF58",
"y  c #72C76D",
"u  c #7FCA7A",
"i  c #75FF6B",
"p  c #80CA7C",
"a  c #82CB7E",
"s  c #82FF7A",
"d  c #84FF7C",
"f  c #CD8080",
"g  c #CE8282",
"h  c #D18D8D",
"j  c #D8A2A2",
"k  c #DBADAD",
"l  c #DCAFAF",
"z  c #8DCE89",
"x  c #8ECF8A",
"c  c #98D295",
"v  c #99D296",
"b  c #A2D59F",
"n  c #8EFF87",
"m  c #99FF93",
"M  c #9AFF95",
"N  c #A3FF9E",
"B  c #A4FF9F",
"V  c #A3D6A0",
"C  c #ABD9A9",
"Z  c #ACD9AA",
"A  c #ADDAAB",
"S  c #B5DDB3",
"D  c #B6DDB4",
"F  c #ACFFA8",
"G  c #AEFFAA",
"H  c #BDE0BC",
"J  c #BEE0BC",
"K  c #B7FFB3",
"L  c #BEFFBB",
"P  c #E4C4C4",
"I  c #E7C9C9",
"U  c #EBD3D3",
"Y  c #EDD8D8",
"T  c #EFDDDD",
"R  c #C5E3C3",
"E  c #C6E4C4",
"W  c #CCE7CB",
"Q  c #C6FFC3",
"!  c #CCFFCA",
"~  c #CDFFCB",
"^  c #CEFFCC",
"/  c #D4EAD3",
"(  c #D5EAD4",
")  c #DBEDDA",
"_  c #DCEEDB",
"`  c #D4FFD2",
"'  c #D5FFD3",
"]  c #DBFFD9",
"[  c #DCFFDA",
"{  c #E0E7E0",
"}  c #F2E4E4",
"|  c #F4E8E8",
" . c #F4E9E9",
".. c #F5E9E9",
"X. c #F7EEEE",
"o. c #E1F0E1",
"O. c #E2F1E1",
"+. c #E7F3E7",
"@. c #E7F7E7",
"#. c #E8F7E7",
"$. c #E1FFE0",
"%. c #E2FFE1",
"&. c #E7FFE6",
"*. c #E8FFE7",
"=. c #E8F4E8",
"-. c #E9FFE8",
";. c #ECFFEB",
":. c #EFFFEE",
">. c #FAF4F4",
",. c #F2FFF2",
"<. c #F3FFF3",
"1. c #F4FFF4",
"2. c #F6FFF6",
"3. c #FBF8F8",
"4. c #FCF9F9",
"5. c #FCFAFA",
"6. c #FAFFF9",
"7. c #FDFCFC",
"8. c #FEFDFD",
"9. c #FEFEFE",
"0. c #FFFEFE",
"q. c #FEFFFE",
"w. c white",
"e. c None",
/* pixels */
"e.e.e.e.e.e.e.e.e.e.e.e.e.e.e.e.e.e.e.e.e.e.e.e.e.e.o.) H S z z z z c H R o.+.e.e.e.e.e.e.e.e.e.e.e.e.e.e.e.e.e.e.e.e.e.e.e.e.e.",
"e.e.e.e.e.e.e.e.e.e.e.e.e.e.e.e.e.e.e.e.e.e.) S p O O O O O O O O O O O O O O = c R +.e.e.e.e.e.e.e.e.e.e.e.e.e.e.e.e.e.e.e.e.e.",
"e.e.e.e.e.e.e.e.e.e.e.e.e.e.e.e.e.e.e.e./ y O O + - , 1 2 2 2 2 2 2 2 2 2 , > % O O O b +.e.e.e.e.e.e.e.e.e.e.e.e.e.e.e.e.e.e.e.",
"e.e.e.e.e.e.e.e.e.e.e.e.e.e.e.e.e.e.Z O O + - 2 2 2 2 2 2 2 2 2 2 2 2 2 2 2 2 2 2 > % O O e W e.e.e.e.e.e.e.e.e.e.e.e.e.e.e.e.e.",
"e.e.e.e.e.e.e.e.e.e.e.e.e.e.e.e./ r O # 1 2 2 2 2 3 7 q q q q q q q q q q 0 6 2 2 2 2 2 : O O b +.e.e.e.e.e.e.e.e.e.e.e.e.e.e.e.",
"e.e.e.e.e.e.e.e.e.e.e.e.e.e./ y O # 2 2 2 3 7 q q q q q q q q q q q q q q q q q q 0 6 2 2 2 : O O b +.e.e.e.e.e.e.e.e.e.e.e.e.e.",
"e.e.e.e.e.e.e.e.e.e.e.e.e.E O + ; 2 2 3 8 q q q q d ^ w.w.w.w.w.w.w.w.w.w.^ d q q q q q 6 2 2 2 % O O +.e.e.e.e.e.e.e.e.e.e.e.e.",
"e.e.e.e.e.e.e.e.e.e.e.e.V O # 2 2 3 8 q q q d -.w.w.w.w.w.w.w.w.w.w.w.w.w.w.w.w.-.d q q q q 6 2 2 : O O W e.e.e.e.e.e.e.e.e.e.e.",
"e.e.e.e.e.e.e.e.e.e.e.v + ; 2 2 4 q q q G w.w.w.w.w.w.w.w.w.w.w.w.w.w.w.w.w.w.w.w.w.w.G q q q 9 2 2 2 % O W e.e.e.e.e.e.e.e.e.e.",
"e.e.e.e.e.e.e.e.e.{ r + : 2 3 8 q q G w.w.w.w.w.w.w.w.w.w.w.w.w.w.w.w.w.w.w.w.w.w.w.w.w.w.G q q q 6 2 2 % O C e.e.e.e.e.e.e.e.e.",
"e.e.e.e.e.e.e.e.e.x + : 2 3 9 q d -.w.w.w.w.w.w.w.w.w.w.w.w.w.w.w.w.w.w.w.w.w.w.w.w.w.w.w.w.-.d q q 6 2 2 % O W e.e.e.e.e.e.e.e.",
"e.e.e.e.e.e.e.e.v + : 2 4 q q G w.w.w.w.w.w.w.w.w.w.w.w.w.w.w.w.w.w.w.w.w.w.w.w.w.w.w.w.w.w.w.w.G q q 9 2 2 % O W e.e.e.e.e.e.e.",
"e.e.e.e.e.e.e.J + : 2 4 q q G w.w.w.w.w.w.w.w.w.w.w.w.w.w.w.w.w.w.w.w.w.w.w.w.w.w.w.w.w.w.w.w.w.w.G q q 9 2 2 % O +.e.e.e.e.e.e.",
"e.e.e.e.e.e.E O $ 2 3 9 q G w.w.w.w.w.w.w.w.w.w.w.w.w.w.w.w.w.w.w.w.w.w.w.w.w.w.w.w.w.w.w.w.w.w.w.w.G q q 6 2 2 O O +.e.e.e.e.e.",
"e.e.e.e.e.=.O # 2 3 9 q G w.w.w.w.w.w.w.w.w.w.w.w.w.w.w.w.w.w.w.w.w.w.w.w.w.w.w.w.w.w.w.w.w.w.w.w.w.w.G q q 6 2 : O u e.e.e.e.e.",
"e.e.e.e.e.D + : 2 5 q G w.w.w.w.w.w.w.w.w.w.w.w.w.w.w.w.w.w.w.w.w.w.w.w.w.w.w.w.w.w.w.w.w.w.w.w.w.w.w.w.G q q 2 2 % O +.e.e.e.e.",
"e.e.e.e.=.O $ 2 4 q d w.w.w.w.w.w.w.w.w.w.w.w.w.w.w.w.w.w.w.w.w.w.w.w.w.w.w.w.w.w.w.w.w.w.w.w.w.w.w.w.w.w.d q 9 2 2 O u e.e.e.e.",
"e.e.e.e.x # 2 3 9 q ' w.w.w.w.w.w.w.w.w.w.w.w.w.w.w.w.w.w.w.w.w.w.w.w.w.w.w.w.w.w.w.w.w.w.w.w.w.w.w.w.w.w.' q q 6 2 : O W e.e.e.",
"e.e.e._ O & 2 5 q G w.w.w.w.w.w.w.w.w.w.w.w.w.w.w.w.w.w.w.w.w.w.w.w.w.w.w.w.w.w.w.w.w.w.w.w.w.w.w.w.w.w.w.w.G q q 2 2 O O e.e.e.",
"e.e.e.A # 2 3 9 q 1.w.w.w.w.w.w.w.w.w.w.w.w.w.w.w.w.w.w.w.w.w.w.w.w.w.w.w.w.w.w.w.w.w.w.w.w.w.w.w.w.w.w.w.w.1.q q 6 2 : O +.e.e.",
"e.e.=.O $ 2 5 q G w.w.w.w.w.w.w.w.w.w.w.w.w.w.w.w.w.w.w.w.w.w.w.w.w.w.w.w.w.w.w.w.w.w.w.w.w.w.w.w.w.w.w.w.w.w.G q q 2 2 O u e.e.",
"e.e.D + : 3 9 q 1.w.w.w.w.w.w.w.w.w.w.w.w.w.w.w.w.w.w.w.w.w.w.w.w.w.w.w.w.w.w.w.w.w.w.w.w.w.w.w.w.w.w.w.w.w.w.1.q q 6 2 % O +.e.",
"e.{ * # 2 4 q d w.w.w.w.w.w.w.w.w.w.w.w.w.w.w.w.w.w.w.w.w.w.w.w.w.w.w.w.w.w.w.w.w.w.w.w.w.w.w.w.w.w.w.w.w.w.w.w.d q 9 2 > O C e.",
"e.O.O & 2 5 q ' w.w.w.w.w.w.w.w.w.w.w.w.w.w.w.w.w.w.w.w.w.w.w.w.w.w.w.w.w.w.w.w.w.w.w.w.w.w.w.w.w.w.w.w.w.w.w.w.' q q 2 2 O O e.",
"e.( + > 2 6 q 6.w.w.w.w.w.w.w.w.w.w.w.w.w.w.w.w.w.w.w.w.w.w.w.w.w.w.w.w.w.w.w.w.w.w.w.w.w.w.w.w.w.w.w.w.w.w.w.w.6.q q 2 2 % O e.",
"e.A # 2 3 9 d w.w.w.w.w.w.w.w.w.w.w.w.w.w.w.w.w.w.w.w.w.0.9.5.5.5.9.0.w.w.w.w.w.w.w.w.w.w.w.w.w.w.w.w.w.w.w.w.w.w.d q 6 2 > O ,.",
"e.a # 2 4 q K w.w.w.w.w.w.w.w.w.w.w.w.w.w.w.w.w.w.w.w.0.3.X.U U U X.3.0.w.w.w.w.w.w.w.w.w.w.w.w.w.w.w.w.w.w.w.w.w.K q 9 2 , O W ",
"2.* $ 2 5 q [ w.w.w.w.w.w.w.w.w.w.w.w.w.w.w.w.w.w.w.0.3.Y j X . X j Y 3.0.w.w.w.w.w.w.w.w.w.w.w.w.w.w.w.w.w.w.w.w.[ q q 2 2 O C ",
",.O % 2 5 q %.w.w.w.w.w.w.w.w.w.w.w.w.w.w.w.w.w.w.w.7.T g           g T 7.w.w.w.w.w.w.w.w.w.w.w.w.w.w.w.w.w.w.w.w.%.q q 2 2 O u ",
":.O & 2 6 q 6.w.w.w.w.w.w.w.w.w.w.w.w.w.w.w.w.w.w.w.>.l               l >.w.w.w.w.w.w.w.w.w.w.w.w.w.w.w.w.w.w.w.w.6.q q 2 2 O O ",
";.O & 2 6 q w.w.w.w.w.w.w.w.w.w.w.w.w.w.w.w.w.w.w.0.} o               o } 0.w.w.w.w.w.w.w.w.w.w.w.w.w.w.w.w.w.w.w.w.q q 2 2 O O ",
";.O & 2 6 q w.w.w.w.w.w.w.w.w.w.w.w.w.w.w.w.w.w.w.0.} o               o } 0.w.w.w.w.w.w.w.w.w.w.w.w.w.w.w.w.w.w.w.w.q q 2 2 O O ",
";.O & 2 6 q w.w.w.w.w.w.w.w.w.w.w.w.w.w.w.w.w.w.w.w.| f               f | w.w.w.w.w.w.w.w.w.w.w.w.w.w.w.w.w.w.w.w.w.q q 2 2 O O ",
";.O & 2 6 q w.w.w.w.w.w.w.w.w.w.w.w.w.w.w.w.w.w.w.w.4.P               P 4.w.w.w.w.w.w.w.w.w.w.w.w.w.w.w.w.w.w.w.w.w.q q 2 2 O O ",
":.O % 2 5 q *.w.w.w.w.w.w.w.w.w.w.w.w.w.w.w.w.w.w.w.8. .k           k  .8.w.w.w.w.w.w.w.w.w.w.w.w.w.w.w.w.w.w.w.w.*.q q 2 2 O O ",
",.O % 2 5 q %.w.w.w.w.w.w.w.w.w.w.w.w.w.w.w.w.w.w.w.w.8. .I h h h I  .8.w.w.w.w.w.w.w.w.w.w.w.w.w.w.w.w.w.w.w.w.w.%.q q 2 2 O u ",
"2.* $ 2 4 q Q w.w.w.w.w.w.w.w.w.w.w.w.w.w.w.w.w.w.w.w.w.8.4.......4.8.w.w.w.w.w.w.w.w.w.w.w.w.w.w.w.w.w.w.w.w.w.w.Q q 9 2 1 O C ",
"e.a # 2 3 9 M w.w.w.w.w.w.w.w.w.w.w.w.w.w.w.w.w.w.w.w.w.w.w.w.w.w.w.w.w.w.w.w.w.w.w.w.w.w.w.w.w.w.w.w.w.w.w.w.w.w.M q 6 2 , O W ",
"e.A + < 2 6 w w.w.w.w.w.w.w.w.w.w.w.w.w.w.w.w.w.w.w.w.w.w.w.w.w.w.w.w.w.w.w.w.w.w.w.w.w.w.w.w.w.w.w.w.w.w.w.w.w.w.w q 2 2 - O +.",
"e.( O - 2 5 q *.w.w.w.w.w.w.w.w.w.w.w.w.w.w.w.w.w.w.w.w.w.w.w.w.w.w.w.w.w.w.w.w.w.w.w.w.w.w.w.w.w.w.w.w.w.w.w.w.*.q q 2 2 + O e.",
"e.#.O $ 2 4 q B w.w.w.w.w.w.w.w.w.w.w.w.w.w.w.w.w.w.w.w.w.w.w.w.w.w.w.w.w.w.w.w.w.w.w.w.w.w.w.w.w.w.w.w.w.w.w.w.B q 9 2 2 O O e.",
"e.2.* + < 3 9 w w.w.w.w.w.w.w.w.w.w.w.w.w.w.w.w.w.w.w.w.w.w.w.w.w.w.w.w.w.w.w.w.w.w.w.w.w.w.w.w.w.w.w.w.w.w.w.w.w q 6 2 - O C e.",
"e.e.D O & 2 5 q ~ w.w.w.w.w.w.w.w.w.w.w.w.w.w.w.w.w.w.w.w.w.w.w.w.w.w.w.w.w.w.w.w.w.w.w.w.w.w.w.w.w.w.w.w.w.w.~ q q 2 2 + O +.e.",
"e.e.,.O $ 2 3 9 t w.w.w.w.w.w.w.w.w.w.w.w.w.w.w.w.w.w.w.w.w.w.w.w.w.w.w.w.w.w.w.w.w.w.w.w.w.w.w.w.w.w.w.w.w.w.t q 6 2 1 O u e.e.",
"e.e.e.A O ; 2 5 q ~ w.w.w.w.w.w.w.w.w.w.w.w.w.w.w.w.w.w.w.w.w.w.w.w.w.w.w.w.w.w.w.w.w.w.w.w.w.w.w.w.w.w.w.w.~ q q 2 2 # O +.e.e.",
"e.e.e._ O $ 2 3 9 t <.w.w.w.w.w.w.w.w.w.w.w.w.w.w.w.w.w.w.w.w.w.w.w.w.w.w.w.w.w.w.w.w.w.w.w.w.w.w.w.w.w.w.<.t q 6 2 2 O O e.e.e.",
"e.e.e.e.x O - 2 4 q B w.w.w.w.w.w.w.w.w.w.w.w.w.w.w.w.w.w.w.w.w.w.w.w.w.w.w.w.w.w.w.w.w.w.w.w.w.w.w.w.w.w.B q 9 2 2 # O W e.e.e.",
"e.e.e.e.,.O @ 2 2 5 w ` w.w.w.w.w.w.w.w.w.w.w.w.w.w.w.w.w.w.w.w.w.w.w.w.w.w.w.w.w.w.w.w.w.w.w.w.w.w.w.w.` w q 2 2 ; O u e.e.e.e.",
"e.e.e.e.e.D O % 2 3 9 t ] w.w.w.w.w.w.w.w.w.w.w.w.w.w.w.w.w.w.w.w.w.w.w.w.w.w.w.w.w.w.w.w.w.w.w.w.w.w.] t q 6 2 2 + O +.e.e.e.e.",
"e.e.e.e.e.,.O O - 2 3 9 t ] w.w.w.w.w.w.w.w.w.w.w.w.w.w.w.w.w.w.w.w.w.w.w.w.w.w.w.w.w.w.w.w.w.w.w.w.] t q 6 2 2 # O u e.e.e.e.e.",
"e.e.e.e.e.e.E O @ 2 2 4 q t ] w.w.w.w.w.w.w.w.w.w.w.w.w.w.w.w.w.w.w.w.w.w.w.w.w.w.w.w.w.w.w.w.w.w.] t q 9 2 2 ; O O +.e.e.e.e.e.",
"e.e.e.e.e.e.e.J O $ 2 2 4 q t ] w.w.w.w.w.w.w.w.w.w.w.w.w.w.w.w.w.w.w.w.w.w.w.w.w.w.w.w.w.w.w.w.] t q 9 2 2 : + O +.e.e.e.e.e.e.",
"e.e.e.e.e.e.e.e.v O $ 2 2 3 9 t L w.w.w.w.w.w.w.w.w.w.w.w.w.w.w.w.w.w.w.w.w.w.w.w.w.w.w.w.w.w.L t q 6 2 2 : + O W e.e.e.e.e.e.e.",
"e.e.e.e.e.e.e.e.e.x O $ 2 2 3 8 w s $.w.w.w.w.w.w.w.w.w.w.w.w.w.w.w.w.w.w.w.w.w.w.w.w.w.w.$.s w q 6 2 2 : + O W e.e.e.e.e.e.e.e.",
"e.e.e.e.e.e.e.e.e.2.r O $ 2 2 2 4 q t m &.w.w.w.w.w.w.w.w.w.w.w.w.w.w.w.w.w.w.w.w.w.w.&.m t q 9 2 2 2 : + O C e.e.e.e.e.e.e.e.e.",
"e.e.e.e.e.e.e.e.e.e.e.v O @ - 2 2 3 8 q t m ! w.w.w.w.w.w.w.w.w.w.w.w.w.w.w.w.w.w.! m t q q 6 2 2 2 $ + O W e.e.e.e.e.e.e.e.e.e.",
"e.e.e.e.e.e.e.e.e.e.e.e.V O O % 2 2 2 3 8 q w s N ! q.w.w.w.w.w.w.w.w.w.w.q.! N s w q q 6 2 2 2 : # O O W e.e.e.e.e.e.e.e.e.e.e.",
"e.e.e.e.e.e.e.e.e.e.e.e.e.E O O @ - 2 2 2 3 7 q q w i n m N F F F F N m n i w q q 0 6 2 2 2 2 $ + O O +.e.e.e.e.e.e.e.e.e.e.e.e.",
"e.e.e.e.e.e.e.e.e.e.e.e.e.e./ y O O $ ; 2 2 2 2 2 3 7 q q q q q q q q q q 0 6 2 2 2 2 2 2 & # O O b +.e.e.e.e.e.e.e.e.e.e.e.e.e.",
"e.e.e.e.e.e.e.e.e.e.e.e.e.e.e.e./ r O O $ & < 2 2 2 2 2 2 2 2 2 2 2 2 2 2 2 2 2 2 2 : $ # O O b +.e.e.e.e.e.e.e.e.e.e.e.e.e.e.e.",
"e.e.e.e.e.e.e.e.e.e.e.e.e.e.e.e.e.e.Z O O O + $ - < 2 2 2 2 2 2 2 2 2 2 2 2 2 > & # + O O e W e.e.e.e.e.e.e.e.e.e.e.e.e.e.e.e.e.",
"e.e.e.e.e.e.e.e.e.e.e.e.e.e.e.e.e.e.e.e./ y O O O + # $ % % & & & & & % $ # # + O O O b +.e.e.e.e.e.e.e.e.e.e.e.e.e.e.e.e.e.e.e.",
"e.e.e.e.e.e.e.e.e.e.e.e.e.e.e.e.e.e.e.e.e.e.) S p O O O O O O O O O O O O O O = c R +.e.e.e.e.e.e.e.e.e.e.e.e.e.e.e.e.e.e.e.e.e.",
"e.e.e.e.e.e.e.e.e.e.e.e.e.e.e.e.e.e.e.e.e.e.e.e.e.e.@.) H S z z z z c H R o.+.e.e.e.e.e.e.e.e.e.e.e.e.e.e.e.e.e.e.e.e.e.e.e.e.e."
};
