/* XPM */
static char *result[] = {
/* columns rows colors chars-per-pixel */
"64 64 157 2 ",
"   c #BC0000",
".  c #BE2626",
"X  c #BE2727",
"o  c #C03F3F",
"O  c #C14040",
"+  c #C34E4E",
"@  c #C35050",
"#  c #C35151",
"$  c #C35252",
"%  c #C96F6F",
"&  c #CA7373",
"*  c #CB7575",
"=  c #27BA00",
"-  c #27BB00",
";  c #27BC00",
":  c #28BC00",
">  c #28BD00",
",  c #28BE00",
"<  c #28BF00",
"1  c #2DBB12",
"2  c #4ABE3E",
"3  c #28C000",
"4  c #29C100",
"5  c #29C200",
"6  c #29C300",
"7  c #29C400",
"8  c #29C500",
"9  c #2AC500",
"0  c #2AC600",
"q  c #2BCD00",
"w  c #2DD300",
"e  c #2ED900",
"r  c #2FDF00",
"t  c #31EA00",
"y  c #33F000",
"u  c #34F500",
"i  c #35FA00",
"p  c #36FF00",
"a  c #52FF3E",
"s  c #60C258",
"d  c #62C35B",
"f  c #65FF58",
"g  c #72C76D",
"h  c #7FCA7A",
"j  c #75FF6B",
"k  c #80CA7C",
"l  c #82CB7E",
"z  c #82FF7A",
"x  c #84FF7C",
"c  c #CF8585",
"v  c #CF8686",
"b  c #CF8787",
"n  c #D08888",
"m  c #D18C8C",
"M  c #D69D9D",
"N  c #D8A3A3",
"B  c #D8A4A4",
"V  c #D9A6A6",
"C  c #D9A7A7",
"Z  c #DAAAAA",
"A  c #DEB3B3",
"S  c #DEB4B4",
"D  c #E1BBBB",
"F  c #E2BFBF",
"G  c #8DCE89",
"H  c #8ECF8A",
"J  c #98D295",
"K  c #99D296",
"L  c #A2D59F",
"P  c #8EFF87",
"I  c #99FF93",
"U  c #9AFF95",
"Y  c #A3FF9E",
"T  c #A4FF9F",
"R  c #A3D6A0",
"E  c #ABD9A9",
"W  c #ACD9AA",
"Q  c #ADDAAB",
"!  c #B5DDB3",
"~  c #B6DDB4",
"^  c #ACFFA8",
"/  c #AEFFAA",
"(  c #BDE0BC",
")  c #BEE0BC",
"_  c #B7FFB3",
"`  c #BEFFBB",
"'  c #E4C2C2",
"]  c #E7CBCB",
"[  c #E8CECE",
"{  c #EAD1D1",
"}  c #ECD5D5",
"|  c #ECD6D6",
" . c #EDD8D8",
".. c #EEDADA",
"X. c #EEDBDB",
"o. c #F0DEDE",
"O. c #C5E3C3",
"+. c #C6E4C4",
"@. c #CCE7CB",
"#. c #C6FFC3",
"$. c #CCFFCA",
"%. c #CDFFCB",
"&. c #CEFFCC",
"*. c #D4EAD3",
"=. c #D5EAD4",
"-. c #DBEDDA",
";. c #DCEEDB",
":. c #D4FFD2",
">. c #D5FFD3",
",. c #DBFFD9",
"<. c #DCFFDA",
"1. c #E0E7E0",
"2. c #F1E1E1",
"3. c #F2E3E3",
"4. c #F2E4E4",
"5. c #F4E8E8",
"6. c #F5EBEB",
"7. c #F6ECEC",
"8. c #F6EDED",
"9. c #F7EEEE",
"0. c #E1F0E1",
"q. c #E2F1E1",
"w. c #E7F3E7",
"e. c #E7F7E7",
"r. c #E8F7E7",
"t. c #E1FFE0",
"y. c #E2FFE1",
"u. c #E7FFE6",
"i. c #E8FFE7",
"p. c #E8F4E8",
"a. c #E9FFE8",
"s. c #ECFFEB",
"d. c #EFFFEE",
"f. c #F8F1F1",
"g. c #F9F2F2",
"h. c #F9F3F3",
"j. c #FAF4F4",
"k. c #FBF6F6",
"l. c #FBF7F7",
"z. c #F2FFF2",
"x. c #F3FFF3",
"c. c #F4FFF4",
"v. c #F6FFF6",
"b. c #FBF8F8",
"n. c #FCF9F9",
"m. c #FCFAFA",
"M. c #FDFAFA",
"N. c #FDFBFB",
"B. c #FAFFF9",
"V. c #FDFCFC",
"C. c #FEFCFC",
"Z. c #FEFDFD",
"A. c #FEFEFE",
"S. c #FFFEFE",
"D. c #FEFFFE",
"F. c white",
"G. c None",
/* pixels */
"G.G.G.G.G.G.G.G.G.G.G.G.G.G.G.G.G.G.G.G.G.G.G.G.G.G.0.-.( ! G G G G J ( O.0.w.G.G.G.G.G.G.G.G.G.G.G.G.G.G.G.G.G.G.G.G.G.G.G.G.G.",
"G.G.G.G.G.G.G.G.G.G.G.G.G.G.G.G.G.G.G.G.G.G.-.! k = = = = = = = = = = = = = = 2 J O.w.G.G.G.G.G.G.G.G.G.G.G.G.G.G.G.G.G.G.G.G.G.",
"G.G.G.G.G.G.G.G.G.G.G.G.G.G.G.G.G.G.G.G.*.g = = - 3 7 9 0 0 0 0 0 0 0 0 0 7 6 , = = = L w.G.G.G.G.G.G.G.G.G.G.G.G.G.G.G.G.G.G.G.",
"G.G.G.G.G.G.G.G.G.G.G.G.G.G.G.G.G.G.W = = - 3 0 0 0 0 0 0 0 0 0 0 0 0 0 0 0 0 0 0 6 , = = s @.G.G.G.G.G.G.G.G.G.G.G.G.G.G.G.G.G.",
"G.G.G.G.G.G.G.G.G.G.G.G.G.G.G.G.*.d = : 9 0 0 0 0 q t p p p p p p p p p p i r 0 0 0 0 0 5 = = L w.G.G.G.G.G.G.G.G.G.G.G.G.G.G.G.",
"G.G.G.G.G.G.G.G.G.G.G.G.G.G.*.g = : 0 0 0 q t p p p p p p p p p p p p p p p p p p i r 0 0 0 5 = = L w.G.G.G.G.G.G.G.G.G.G.G.G.G.",
"G.G.G.G.G.G.G.G.G.G.G.G.G.+.= - 4 0 0 q y p p p p x &.F.F.F.F.F.F.F.F.F.F.&.x p p p p p r 0 0 0 , = = w.G.G.G.G.G.G.G.G.G.G.G.G.",
"G.G.G.G.G.G.G.G.G.G.G.G.R = : 0 0 q y p p p x a.F.F.F.F.F.F.F.F.F.F.F.F.F.F.F.F.a.x p p p p r 0 0 5 = = @.G.G.G.G.G.G.G.G.G.G.G.",
"G.G.G.G.G.G.G.G.G.G.G.K - 4 0 0 w p p p / F.F.F.F.F.F.F.F.F.F.F.F.F.F.F.F.F.F.F.F.F.F./ p p p u 0 0 0 , = @.G.G.G.G.G.G.G.G.G.G.",
"G.G.G.G.G.G.G.G.G.1.d - 5 0 q y p p / F.F.F.F.F.F.F.F.F.F.F.F.F.F.F.F.F.F.F.F.F.F.F.F.F.F./ p p p r 0 0 , = E G.G.G.G.G.G.G.G.G.",
"G.G.G.G.G.G.G.G.G.H - 5 0 q u p x a.F.F.F.F.F.F.F.F.F.F.F.F.F.F.F.F.F.F.F.F.F.F.F.F.F.F.F.F.a.x p p r 0 0 , = @.G.G.G.G.G.G.G.G.",
"G.G.G.G.G.G.G.G.K - 5 0 w p p / F.F.F.F.F.F.F.F.F.F.F.F.F.F.F.F.F.F.F.F.F.F.F.F.F.F.F.F.F.F.F.F./ p p u 0 0 , = @.G.G.G.G.G.G.G.",
"G.G.G.G.G.G.G.) - 5 0 w p p / F.F.F.F.F.F.F.F.F.F.F.F.F.F.F.F.F.F.F.F.F.F.F.F.F.F.F.F.F.F.F.F.F.F./ p p u 0 0 , = w.G.G.G.G.G.G.",
"G.G.G.G.G.G.+.= > 0 q u p / F.F.F.F.F.F.F.F.F.F.F.F.F.F.F.F.F.F.F.F.F.F.F.F.F.F.F.F.F.F.F.F.F.F.F.F./ p p r 0 0 = = w.G.G.G.G.G.",
"G.G.G.G.G.p.= : 0 q u p / F.F.F.F.F.F.F.F.F.F.F.F.F.F.F.F.F.F.F.F.F.F.F.F.F.F.F.F.F.F.F.F.F.F.F.F.F.F./ p p r 0 5 = h G.G.G.G.G.",
"G.G.G.G.G.~ - 5 0 e p / F.F.F.F.F.F.F.F.F.F.F.F.F.F.F.F.F.F.F.F.F.F.F.F.F.F.F.F.F.F.F.F.F.F.F.F.F.F.F.F./ p p 0 0 , = w.G.G.G.G.",
"G.G.G.G.p.= > 0 w p x F.F.F.F.F.F.F.F.F.F.F.F.F.F.F.F.F.F.F.F.F.F.F.F.F.F.F.F.F.F.F.F.F.F.F.F.F.F.F.F.F.F.x p u 0 0 = h G.G.G.G.",
"G.G.G.G.H : 0 q u p >.F.F.F.F.F.F.F.F.F.F.F.F.F.F.F.F.F.F.F.F.F.F.F.F.F.F.F.F.F.F.F.F.F.F.F.F.F.F.F.F.F.F.>.p p r 0 5 = @.G.G.G.",
"G.G.G.;.= < 0 e p / F.F.F.F.F.F.F.F.F.F.F.F.F.F.F.F.F.F.F.F.F.F.F.F.F.F.F.F.F.F.F.F.F.F.F.F.F.F.F.F.F.F.F.F./ p p 0 0 = = G.G.G.",
"G.G.G.Q : 0 q u p c.F.F.F.F.F.F.F.F.F.F.F.F.F.F.F.F.F.F.F.F.F.F.F.F.F.F.F.F.F.F.F.F.F.F.F.F.F.F.F.F.F.F.F.F.c.p p r 0 5 = w.G.G.",
"G.G.p.= > 0 e p / F.F.F.F.F.F.F.F.F.F.F.F.F.F.F.F.F.F.F.F.F.F.F.F.F.F.F.F.F.F.F.F.F.F.F.F.F.F.F.F.F.F.F.F.F.F./ p p 0 0 = h G.G.",
"G.G.~ - 5 q u p c.F.F.F.F.F.F.F.F.F.F.F.F.F.F.F.F.F.F.F.F.F.F.F.F.F.F.F.F.F.F.F.F.F.F.F.F.F.F.F.F.F.F.F.F.F.F.c.p p r 0 , = w.G.",
"G.1.1 : 0 w p x F.F.F.F.F.F.F.F.F.F.F.F.F.F.F.F.F.F.F.F.F.A.Z.Z.Z.A.S.F.F.F.F.F.F.F.F.F.F.F.F.F.F.F.F.F.F.F.F.F.x p u 0 6 = E G.",
"G.q.= < 0 e p >.F.F.F.F.F.F.F.F.F.F.F.F.F.F.F.F.F.F.F.Z.n.j.9.8.8.g.l.C.S.F.F.F.F.F.F.F.F.F.F.F.F.F.F.F.F.F.F.F.>.p p 0 0 = = G.",
"G.=.- 6 0 r p B.F.F.F.F.F.F.F.F.F.F.F.F.F.F.F.F.F.F.M.f.2.{ ' F F ] X.7.b.A.F.F.F.F.F.F.F.F.F.F.F.F.F.F.F.F.F.F.B.p p 0 0 , = G.",
"G.Q : 0 q u x F.F.F.F.F.F.F.F.F.F.F.F.F.F.F.F.F.F.M.6.| A b + o o & N ] 4.k.A.F.F.F.F.F.F.F.F.F.F.F.F.F.F.F.F.F.F.x p r 0 6 = z.",
"G.l : 0 w p _ F.F.F.F.F.F.F.F.F.F.F.F.F.F.F.F.F.V.8.[ N .             n F 4.b.S.F.F.F.F.F.F.F.F.F.F.F.F.F.F.F.F.F._ p u 0 7 = @.",
"v.1 > 0 e p <.F.F.F.F.F.F.F.F.F.F.F.F.F.F.F.F.S.j.X.V .                 n ] 7.C.F.F.F.F.F.F.F.F.F.F.F.F.F.F.F.F.F.<.p p 0 0 = E ",
"z.= , 0 e p y.F.F.F.F.F.F.F.F.F.F.F.F.F.F.F.F.C.5.F #                     B X.l.S.F.F.F.F.F.F.F.F.F.F.F.F.F.F.F.F.y.p p 0 0 = h ",
"d.= < 0 r p B.F.F.F.F.F.F.F.F.F.F.F.F.F.F.F.F.m.o.M                       & ] g.A.F.F.F.F.F.F.F.F.F.F.F.F.F.F.F.F.B.p p 0 0 = = ",
"s.= < 0 r p F.F.F.F.F.F.F.F.F.F.F.F.F.F.F.F.F.k.} c                       O F 8.Z.F.F.F.F.F.F.F.F.F.F.F.F.F.F.F.F.F.p p 0 0 = = ",
"s.= < 0 r p F.F.F.F.F.F.F.F.F.F.F.F.F.F.F.F.F.k.} c                       O F 8.Z.F.F.F.F.F.F.F.F.F.F.F.F.F.F.F.F.F.p p 0 0 = = ",
"s.= < 0 r p F.F.F.F.F.F.F.F.F.F.F.F.F.F.F.F.F.l. .m                       @ ' 9.Z.F.F.F.F.F.F.F.F.F.F.F.F.F.F.F.F.F.p p 0 0 = = ",
"s.= < 0 r p F.F.F.F.F.F.F.F.F.F.F.F.F.F.F.F.F.N.3.Z                       b { j.A.F.F.F.F.F.F.F.F.F.F.F.F.F.F.F.F.F.p p 0 0 = = ",
"d.= , 0 e p i.F.F.F.F.F.F.F.F.F.F.F.F.F.F.F.F.Z.7.] *                   X S 2.n.F.F.F.F.F.F.F.F.F.F.F.F.F.F.F.F.F.i.p p 0 0 = = ",
"z.= , 0 e p y.F.F.F.F.F.F.F.F.F.F.F.F.F.F.F.F.F.b.3.D %               X N | f.Z.F.F.F.F.F.F.F.F.F.F.F.F.F.F.F.F.F.y.p p 0 0 = h ",
"v.1 > 0 w p #.F.F.F.F.F.F.F.F.F.F.F.F.F.F.F.F.F.Z.h...D *           $ C [ 6.M.F.F.F.F.F.F.F.F.F.F.F.F.F.F.F.F.F.F.#.p u 0 9 = E ",
"G.l : 0 q u U F.F.F.F.F.F.F.F.F.F.F.F.F.F.F.F.F.F.Z.h.3.] Z m v v M F X.8.M.F.F.F.F.F.F.F.F.F.F.F.F.F.F.F.F.F.F.F.U p r 0 7 = @.",
"G.Q - 8 0 r a F.F.F.F.F.F.F.F.F.F.F.F.F.F.F.F.F.F.F.Z.b.7.3. .} } o.5.j.V.F.F.F.F.F.F.F.F.F.F.F.F.F.F.F.F.F.F.F.F.a p 0 0 3 = w.",
"G.=.= 3 0 e p i.F.F.F.F.F.F.F.F.F.F.F.F.F.F.F.F.F.F.F.F.Z.N.l.k.k.m.C.S.F.F.F.F.F.F.F.F.F.F.F.F.F.F.F.F.F.F.F.F.i.p p 0 0 - = G.",
"G.r.= > 0 w p T F.F.F.F.F.F.F.F.F.F.F.F.F.F.F.F.F.F.F.F.F.F.F.F.F.F.F.F.F.F.F.F.F.F.F.F.F.F.F.F.F.F.F.F.F.F.F.F.T p u 0 0 = = G.",
"G.v.1 - 8 q u a F.F.F.F.F.F.F.F.F.F.F.F.F.F.F.F.F.F.F.F.F.F.F.F.F.F.F.F.F.F.F.F.F.F.F.F.F.F.F.F.F.F.F.F.F.F.F.F.a p r 0 3 = E G.",
"G.G.~ = < 0 e p %.F.F.F.F.F.F.F.F.F.F.F.F.F.F.F.F.F.F.F.F.F.F.F.F.F.F.F.F.F.F.F.F.F.F.F.F.F.F.F.F.F.F.F.F.F.F.%.p p 0 0 - = w.G.",
"G.G.z.= > 0 q u f F.F.F.F.F.F.F.F.F.F.F.F.F.F.F.F.F.F.F.F.F.F.F.F.F.F.F.F.F.F.F.F.F.F.F.F.F.F.F.F.F.F.F.F.F.F.f p r 0 9 = h G.G.",
"G.G.G.Q = 4 0 e p %.F.F.F.F.F.F.F.F.F.F.F.F.F.F.F.F.F.F.F.F.F.F.F.F.F.F.F.F.F.F.F.F.F.F.F.F.F.F.F.F.F.F.F.F.%.p p 0 0 : = w.G.G.",
"G.G.G.;.= > 0 q u f x.F.F.F.F.F.F.F.F.F.F.F.F.F.F.F.F.F.F.F.F.F.F.F.F.F.F.F.F.F.F.F.F.F.F.F.F.F.F.F.F.F.F.x.f p r 0 0 = = G.G.G.",
"G.G.G.G.H = 3 0 w p T F.F.F.F.F.F.F.F.F.F.F.F.F.F.F.F.F.F.F.F.F.F.F.F.F.F.F.F.F.F.F.F.F.F.F.F.F.F.F.F.F.F.T p u 0 0 : = @.G.G.G.",
"G.G.G.G.z.= ; 0 0 e a :.F.F.F.F.F.F.F.F.F.F.F.F.F.F.F.F.F.F.F.F.F.F.F.F.F.F.F.F.F.F.F.F.F.F.F.F.F.F.F.F.:.a p 0 0 4 = h G.G.G.G.",
"G.G.G.G.G.~ = , 0 q u f ,.F.F.F.F.F.F.F.F.F.F.F.F.F.F.F.F.F.F.F.F.F.F.F.F.F.F.F.F.F.F.F.F.F.F.F.F.F.F.,.f p r 0 0 - = w.G.G.G.G.",
"G.G.G.G.G.z.= = 3 0 q u f ,.F.F.F.F.F.F.F.F.F.F.F.F.F.F.F.F.F.F.F.F.F.F.F.F.F.F.F.F.F.F.F.F.F.F.F.F.,.f p r 0 0 : = h G.G.G.G.G.",
"G.G.G.G.G.G.+.= ; 0 0 w p f ,.F.F.F.F.F.F.F.F.F.F.F.F.F.F.F.F.F.F.F.F.F.F.F.F.F.F.F.F.F.F.F.F.F.F.,.f p u 0 0 4 = = w.G.G.G.G.G.",
"G.G.G.G.G.G.G.) = > 0 0 w p f ,.F.F.F.F.F.F.F.F.F.F.F.F.F.F.F.F.F.F.F.F.F.F.F.F.F.F.F.F.F.F.F.F.,.f p u 0 0 5 - = w.G.G.G.G.G.G.",
"G.G.G.G.G.G.G.G.K = > 0 0 q u f ` F.F.F.F.F.F.F.F.F.F.F.F.F.F.F.F.F.F.F.F.F.F.F.F.F.F.F.F.F.F.` f p r 0 0 5 - = @.G.G.G.G.G.G.G.",
"G.G.G.G.G.G.G.G.G.H = > 0 0 q y a z t.F.F.F.F.F.F.F.F.F.F.F.F.F.F.F.F.F.F.F.F.F.F.F.F.F.F.t.z a p r 0 0 5 - = @.G.G.G.G.G.G.G.G.",
"G.G.G.G.G.G.G.G.G.v.d = > 0 0 0 w p f I u.F.F.F.F.F.F.F.F.F.F.F.F.F.F.F.F.F.F.F.F.F.F.u.I f p u 0 0 0 5 - = E G.G.G.G.G.G.G.G.G.",
"G.G.G.G.G.G.G.G.G.G.G.K = ; 3 0 0 q y p f I $.F.F.F.F.F.F.F.F.F.F.F.F.F.F.F.F.F.F.$.I f p p r 0 0 0 > - = @.G.G.G.G.G.G.G.G.G.G.",
"G.G.G.G.G.G.G.G.G.G.G.G.R = = , 0 0 0 q y p a z Y $.D.F.F.F.F.F.F.F.F.F.F.D.$.Y z a p p r 0 0 0 5 : = = @.G.G.G.G.G.G.G.G.G.G.G.",
"G.G.G.G.G.G.G.G.G.G.G.G.G.+.= = ; 3 0 0 0 q t p p a j P I Y ^ ^ ^ ^ Y I P j a p p i r 0 0 0 0 > - = = w.G.G.G.G.G.G.G.G.G.G.G.G.",
"G.G.G.G.G.G.G.G.G.G.G.G.G.G.*.g = = > 4 0 0 0 0 0 q t p p p p p p p p p p i r 0 0 0 0 0 0 < : = = L w.G.G.G.G.G.G.G.G.G.G.G.G.G.",
"G.G.G.G.G.G.G.G.G.G.G.G.G.G.G.G.*.d = = > < 8 0 0 0 0 0 0 0 0 0 0 0 0 0 0 0 0 0 0 0 5 > : = = L w.G.G.G.G.G.G.G.G.G.G.G.G.G.G.G.",
"G.G.G.G.G.G.G.G.G.G.G.G.G.G.G.G.G.G.W = = = - > 3 8 0 0 0 0 0 0 0 0 0 0 0 0 0 6 < : - = = s @.G.G.G.G.G.G.G.G.G.G.G.G.G.G.G.G.G.",
"G.G.G.G.G.G.G.G.G.G.G.G.G.G.G.G.G.G.G.G.*.g = = = - : > , , < < < < < , > : : - = = = L w.G.G.G.G.G.G.G.G.G.G.G.G.G.G.G.G.G.G.G.",
"G.G.G.G.G.G.G.G.G.G.G.G.G.G.G.G.G.G.G.G.G.G.-.! k = = = = = = = = = = = = = = 2 J O.w.G.G.G.G.G.G.G.G.G.G.G.G.G.G.G.G.G.G.G.G.G.",
"G.G.G.G.G.G.G.G.G.G.G.G.G.G.G.G.G.G.G.G.G.G.G.G.G.G.e.-.( ! G G G G J ( O.0.w.G.G.G.G.G.G.G.G.G.G.G.G.G.G.G.G.G.G.G.G.G.G.G.G.G."
};
