/* XPM */
static char *result[] = {
/* columns rows colors chars-per-pixel */
"64 64 205 2 ",
"   c #BC0000",
".  c #BD1414",
"X  c #BD1515",
"o  c #BE2A2A",
"O  c #BF2F2F",
"+  c #BF3131",
"@  c #BF3434",
"#  c #C14141",
"$  c #C24747",
"%  c #C55A5A",
"&  c #C55B5B",
"*  c #C55D5D",
"=  c #C55E5E",
"-  c #C65F5F",
";  c #C66060",
":  c #C76464",
">  c #C76666",
",  c #C86B6B",
"<  c #C96D6D",
"1  c #C97171",
"2  c #CA7373",
"3  c #CA7474",
"4  c #CC7A7A",
"5  c #CC7C7C",
"6  c #27BA00",
"7  c #27BB00",
"8  c #27BC00",
"9  c #28BC00",
"0  c #28BD00",
"q  c #28BE00",
"w  c #28BF00",
"e  c #2DBB12",
"r  c #4ABE3E",
"t  c #28C000",
"y  c #29C100",
"u  c #29C200",
"i  c #29C300",
"p  c #29C400",
"a  c #29C500",
"s  c #2AC500",
"d  c #2AC600",
"f  c #2BCD00",
"g  c #2DD300",
"h  c #2ED900",
"j  c #2FDF00",
"k  c #31EA00",
"l  c #33F000",
"z  c #34F500",
"x  c #35FA00",
"c  c #36FF00",
"v  c #52FF3E",
"b  c #60C258",
"n  c #62C35B",
"m  c #65FF58",
"M  c #72C76D",
"N  c #7FCA7A",
"B  c #75FF6B",
"V  c #80CA7C",
"C  c #82CB7E",
"Z  c #82FF7A",
"A  c #84FF7C",
"S  c #CE8282",
"D  c #CF8585",
"F  c #D08888",
"G  c #D08A8A",
"H  c #D18D8D",
"J  c #D39292",
"K  c #D39393",
"L  c #D39595",
"P  c #D49696",
"I  c #D59A9A",
"U  c #D69C9C",
"Y  c #D69E9E",
"T  c #D79E9E",
"R  c #D79F9F",
"E  c #D7A1A1",
"W  c #D9A6A6",
"Q  c #DAA8A8",
"!  c #DAA9A9",
"~  c #DBABAB",
"^  c #DCADAD",
"/  c #DCAFAF",
"(  c #DCB0B0",
")  c #DEB4B4",
"_  c #DFB5B5",
"`  c #DFB6B6",
"'  c #DFB7B7",
"]  c #DFB8B8",
"[  c #E0B7B7",
"{  c #E0B8B8",
"}  c #E1BBBB",
"|  c #E1BCBC",
" . c #E1BDBD",
".. c #E2BDBD",
"X. c #E2BEBE",
"o. c #E2BFBF",
"O. c #8DCE89",
"+. c #8ECF8A",
"@. c #98D295",
"#. c #99D296",
"$. c #A2D59F",
"%. c #8EFF87",
"&. c #99FF93",
"*. c #9AFF95",
"=. c #A3FF9E",
"-. c #A4FF9F",
";. c #A3D6A0",
":. c #ABD9A9",
">. c #ACD9AA",
",. c #ADDAAB",
"<. c #B5DDB3",
"1. c #B6DDB4",
"2. c #ACFFA8",
"3. c #AEFFAA",
"4. c #BDE0BC",
"5. c #BEE0BC",
"6. c #B7FFB3",
"7. c #BEFFBB",
"8. c #E3C0C0",
"9. c #E3C2C2",
"0. c #E4C4C4",
"q. c #E5C4C4",
"w. c #E5C6C6",
"e. c #E7CACA",
"r. c #E7CBCB",
"t. c #E7CCCC",
"y. c #E9CFCF",
"u. c #EAD1D1",
"i. c #EAD2D2",
"p. c #EAD3D3",
"a. c #EBD3D3",
"s. c #EBD4D4",
"d. c #ECD6D6",
"f. c #EEDADA",
"g. c #EFDDDD",
"h. c #F0DEDE",
"j. c #F0DFDF",
"k. c #C5E3C3",
"l. c #C6E4C4",
"z. c #CCE7CB",
"x. c #C6FFC3",
"c. c #CCFFCA",
"v. c #CDFFCB",
"b. c #CEFFCC",
"n. c #D4EAD3",
"m. c #D5EAD4",
"M. c #DBEDDA",
"N. c #DCEEDB",
"B. c #D4FFD2",
"V. c #D5FFD3",
"C. c #DBFFD9",
"Z. c #DCFFDA",
"A. c #E0E7E0",
"S. c #F0E0E0",
"D. c #F1E1E1",
"F. c #F1E2E2",
"G. c #F2E3E3",
"H. c #F3E5E5",
"J. c #F4E9E9",
"K. c #F5E9E9",
"L. c #F5EAEA",
"P. c #F6EBEB",
"I. c #F6ECEC",
"U. c #F7EDED",
"Y. c #F7EFEF",
"T. c #E1F0E1",
"R. c #E2F1E1",
"E. c #E7F3E7",
"W. c #E7F7E7",
"Q. c #E8F7E7",
"!. c #E1FFE0",
"~. c #E2FFE1",
"^. c #E7FFE6",
"/. c #E8FFE7",
"(. c #E8F4E8",
"). c #E9FFE8",
"_. c #ECFFEB",
"`. c #EFFFEE",
"'. c #F8F0F0",
"]. c #F8F1F1",
"[. c #F9F2F2",
"{. c #F9F3F3",
"}. c #F9F4F4",
"|. c #FAF5F5",
" X c #FAF6F6",
".X c #FBF6F6",
"XX c #FBF7F7",
"oX c #F2FFF2",
"OX c #F3FFF3",
"+X c #F4FFF4",
"@X c #F6FFF6",
"#X c #FBF8F8",
"$X c #FCF8F8",
"%X c #FCF9F9",
"&X c #FDFAFA",
"*X c #FDFBFB",
"=X c #FAFFF9",
"-X c #FDFCFC",
";X c #FEFCFC",
":X c #FEFDFD",
">X c #FEFEFE",
",X c #FFFEFE",
"<X c #FEFFFE",
"1X c white",
"2X c None",
/* pixels */
"2X2X2X2X2X2X2X2X2X2X2X2X2X2X2X2X2X2X2X2X2X2X2X2X2X2XT.M.4.<.O.O.O.O.@.4.k.T.E.2X2X2X2X2X2X2X2X2X2X2X2X2X2X2X2X2X2X2X2X2X2X2X2X2X",
"2X2X2X2X2X2X2X2X2X2X2X2X2X2X2X2X2X2X2X2X2X2XM.<.V 6 6 6 6 6 6 6 6 6 6 6 6 6 6 r @.k.E.2X2X2X2X2X2X2X2X2X2X2X2X2X2X2X2X2X2X2X2X2X",
"2X2X2X2X2X2X2X2X2X2X2X2X2X2X2X2X2X2X2X2Xn.M 6 6 7 t p s d d d d d d d d d p i q 6 6 6 $.E.2X2X2X2X2X2X2X2X2X2X2X2X2X2X2X2X2X2X2X",
"2X2X2X2X2X2X2X2X2X2X2X2X2X2X2X2X2X2X>.6 6 7 t d d d d d d d d d d d d d d d d d d i q 6 6 b z.2X2X2X2X2X2X2X2X2X2X2X2X2X2X2X2X2X",
"2X2X2X2X2X2X2X2X2X2X2X2X2X2X2X2Xn.n 6 9 s d d d d f k c c c c c c c c c c x j d d d d d u 6 6 $.E.2X2X2X2X2X2X2X2X2X2X2X2X2X2X2X",
"2X2X2X2X2X2X2X2X2X2X2X2X2X2Xn.M 6 9 d d d f k c c c c c c c c c c c c c c c c c c x j d d d u 6 6 $.E.2X2X2X2X2X2X2X2X2X2X2X2X2X",
"2X2X2X2X2X2X2X2X2X2X2X2X2Xl.6 7 y d d f l c c c c A b.1X1X1X1X1X1X1X1X1X1Xb.A c c c c c j d d d q 6 6 E.2X2X2X2X2X2X2X2X2X2X2X2X",
"2X2X2X2X2X2X2X2X2X2X2X2X;.6 9 d d f l c c c A ).1X1X1X1X1X1X1X1X1X1X1X1X1X1X1X1X).A c c c c j d d u 6 6 z.2X2X2X2X2X2X2X2X2X2X2X",
"2X2X2X2X2X2X2X2X2X2X2X#.7 y d d g c c c 3.1X1X1X1X1X1X1X1X1X1X1X1X1X1X1X1X1X1X1X1X1X1X3.c c c z d d d q 6 z.2X2X2X2X2X2X2X2X2X2X",
"2X2X2X2X2X2X2X2X2XA.n 7 u d f l c c 3.1X1X1X1X1X1X1X1X1X1X1X1X1X1X1X1X1X1X1X1X1X1X1X1X1X1X3.c c c j d d q 6 :.2X2X2X2X2X2X2X2X2X",
"2X2X2X2X2X2X2X2X2X+.7 u d f z c A ).1X1X1X1X1X1X1X1X1X1X1X1X1X1X1X1X1X1X1X1X1X1X1X1X1X1X1X1X).A c c j d d q 6 z.2X2X2X2X2X2X2X2X",
"2X2X2X2X2X2X2X2X#.7 u d g c c 3.1X1X1X1X1X1X1X1X1X1X1X1X1X1X1X1X1X1X1X1X1X1X1X1X1X1X1X1X1X1X1X1X3.c c z d d q 6 z.2X2X2X2X2X2X2X",
"2X2X2X2X2X2X2X5.7 u d g c c 3.1X1X1X1X1X1X1X1X1X1X1X1X1X1X1X1X1X1X1X1X1X1X1X1X1X1X1X1X1X1X1X1X1X1X3.c c z d d q 6 E.2X2X2X2X2X2X",
"2X2X2X2X2X2Xl.6 0 d f z c 3.1X1X1X1X1X1X1X1X1X1X1X1X1X1X1X1X1X1X1X1X1X1X1X1X1X1X1X1X1X1X1X1X1X1X1X1X3.c c j d d 6 6 E.2X2X2X2X2X",
"2X2X2X2X2X(.6 9 d f z c 3.1X1X1X1X1X1X1X1X1X1X1X1X1X1X1X1X1X1X1X1X1X1X1X1X1X1X1X1X1X1X1X1X1X1X1X1X1X1X3.c c j d u 6 N 2X2X2X2X2X",
"2X2X2X2X2X1.7 u d h c 3.1X1X1X1X1X1X1X1X1X1X1X1X1X1X1X1X1X1X1X1X1X1X1X1X1X1X1X1X1X1X1X1X1X1X1X1X1X1X1X1X3.c c d d q 6 E.2X2X2X2X",
"2X2X2X2X(.6 0 d g c A 1X1X1X1X1X1X1X1X1X1X1X1X1X1X1X1X1X1X1X1X1X1X1X1X1X1X1X1X1X1X1X1X1X1X1X1X1X1X1X1X1X1XA c z d d 6 N 2X2X2X2X",
"2X2X2X2X+.9 d f z c V.1X1X1X1X1X1X1X1X1X1X1X1X1X1X1X1X1X1X1X1X1X1X1X1X1X1X1X1X1X1X1X1X1X1X1X1X1X1X1X1X1X1XV.c c j d u 6 z.2X2X2X",
"2X2X2XN.6 w d h c 3.1X1X1X1X1X1X1X1X1X1X1X1X1X1X1X1X1X1X1X1X1X1X1X1X1X1X1X1X1X1X1X1X1X1X1X1X1X1X1X1X1X1X1X1X3.c c d d 6 6 2X2X2X",
"2X2X2X,.9 d f z c +X1X1X1X1X1X1X1X1X1X1X1X1X1X1X1X1X1X1X,X>X:X;X;X:X,X1X1X1X1X1X1X1X1X1X1X1X1X1X1X1X1X1X1X1X+Xc c j d u 6 E.2X2X",
"2X2X(.6 0 d h c 3.1X1X1X1X1X1X1X1X1X1X1X1X1X1X1X1X1X>X*X$X|.].'.'.{.XX&X:X1X1X1X1X1X1X1X1X1X1X1X1X1X1X1X1X1X1X3.c c d d 6 N 2X2X",
"2X2X1.7 u f z c +X1X1X1X1X1X1X1X1X1X1X1X1X1X1X1X1X*X XI.H.g.s.p.p.f.F.J.[.%X>X1X1X1X1X1X1X1X1X1X1X1X1X1X1X1X1X+Xc c j d q 6 E.2X",
"2XA.e 9 d g c A 1X1X1X1X1X1X1X1X1X1X1X1X1X1X1X>X*X'.G.i.o./ Y I I ! { r.g.P.#X:X1X1X1X1X1X1X1X1X1X1X1X1X1X1X1X1XA c z d i 6 :.2X",
"2XR.6 w d h c V.1X1X1X1X1X1X1X1X1X1X1X1X1X1X1X&X'.g.9.E 2 $       O ; J _ a.L.XX:X1X1X1X1X1X1X1X1X1X1X1X1X1X1X1XV.c c d d 6 6 2X",
"2Xm.7 i d j c =X1X1X1X1X1X1X1X1X1X1X1X1X1X1X*X'.g. .D @                 , ~ i.L.#X>X1X1X1X1X1X1X1X1X1X1X1X1X1X1X=Xc c d d q 6 2X",
"2X,.9 d f z A 1X1X1X1X1X1X1X1X1X1X1X1X1X1X>X}.D.X.D                       : ~ d.U.*X1X1X1X1X1X1X1X1X1X1X1X1X1X1X1XA c j d i 6 oX",
"2XC 9 d g c 6.1X1X1X1X1X1X1X1X1X1X1X1X1X1X&XJ.y.L X                         3 X.S.|.>X1X1X1X1X1X1X1X1X1X1X1X1X1X1X6.c z d p 6 z.",
"@Xe 0 d h c Z.1X1X1X1X1X1X1X1X1X1X1X1X1X,X.Xj.[ =                             T u.Y.;X1X1X1X1X1X1X1X1X1X1X1X1X1X1XZ.c c d d 6 :.",
"oX6 q d h c ~.1X1X1X1X1X1X1X1X1X1X1X1X1X:X[.d.R                               5 q.J.&X1X1X1X1X1X1X1X1X1X1X1X1X1X1X~.c c d d 6 N ",
"`.6 w d j c =X1X1X1X1X1X1X1X1X1X1X1X1X1X-XI.t.G                               * ] F.#X,X1X1X1X1X1X1X1X1X1X1X1X1X1X=Xc c d d 6 6 ",
"_.6 w d j c 1X1X1X1X1X1X1X1X1X1X1X1X1X1X*XK.w.5                               $ ( h..X>X1X1X1X1X1X1X1X1X1X1X1X1X1X1Xc c d d 6 6 ",
"_.6 w d j c 1X1X1X1X1X1X1X1X1X1X1X1X1X1X*XK.w.5                               $ ( h..X>X1X1X1X1X1X1X1X1X1X1X1X1X1X1Xc c d d 6 6 ",
"_.6 w d j c 1X1X1X1X1X1X1X1X1X1X1X1X1X1X-XI.t.F                               & ' F.#X,X1X1X1X1X1X1X1X1X1X1X1X1X1X1Xc c d d 6 6 ",
"_.6 w d j c 1X1X1X1X1X1X1X1X1X1X1X1X1X1X:X[.d.R                               4 0.J.&X1X1X1X1X1X1X1X1X1X1X1X1X1X1X1Xc c d d 6 6 ",
"`.6 q d h c /.1X1X1X1X1X1X1X1X1X1X1X1X1X,X.Xj.` %                             U u.Y.;X1X1X1X1X1X1X1X1X1X1X1X1X1X1X/.c c d d 6 6 ",
"oX6 q d h c ~.1X1X1X1X1X1X1X1X1X1X1X1X1X1X&XJ.y.K .                         1 ..S.|.>X1X1X1X1X1X1X1X1X1X1X1X1X1X1X~.c c d d 6 N ",
"@Xe 0 d g c x.1X1X1X1X1X1X1X1X1X1X1X1X1X1X>X}.D.| S                       - Q d.U.*X1X1X1X1X1X1X1X1X1X1X1X1X1X1X1Xx.c z d s 6 :.",
"2XC 9 d f z *.1X1X1X1X1X1X1X1X1X1X1X1X1X1X1X*X'.g.} S +                 > Q i.L.#X>X1X1X1X1X1X1X1X1X1X1X1X1X1X1X1X*.c j d p 6 z.",
"2X,.7 a d j v 1X1X1X1X1X1X1X1X1X1X1X1X1X1X1X1X&X'.g.8.Y < #       o % H ) a.L.XX:X1X1X1X1X1X1X1X1X1X1X1X1X1X1X1X1Xv c d d t 6 E.",
"2Xm.6 t d h c /.1X1X1X1X1X1X1X1X1X1X1X1X1X1X1X>X*X'.G.i.X.^ I P P W ' e.g.P.#X:X1X1X1X1X1X1X1X1X1X1X1X1X1X1X1X1X/.c c d d 7 6 2X",
"2XQ.6 0 d g c -.1X1X1X1X1X1X1X1X1X1X1X1X1X1X1X1X1X*X XI.H.g.s.p.p.f.F.J.[.%X>X1X1X1X1X1X1X1X1X1X1X1X1X1X1X1X1X1X-.c z d d 6 6 2X",
"2X@Xe 7 a f z v 1X1X1X1X1X1X1X1X1X1X1X1X1X1X1X1X1X1X>X*X$X|.].'.'.{.XX&X:X1X1X1X1X1X1X1X1X1X1X1X1X1X1X1X1X1X1X1Xv c j d t 6 :.2X",
"2X2X1.6 w d h c v.1X1X1X1X1X1X1X1X1X1X1X1X1X1X1X1X1X1X1X,X>X:X;X;X:X,X1X1X1X1X1X1X1X1X1X1X1X1X1X1X1X1X1X1X1X1Xv.c c d d 7 6 E.2X",
"2X2XoX6 0 d f z m 1X1X1X1X1X1X1X1X1X1X1X1X1X1X1X1X1X1X1X1X1X1X1X1X1X1X1X1X1X1X1X1X1X1X1X1X1X1X1X1X1X1X1X1X1X1Xm c j d s 6 N 2X2X",
"2X2X2X,.6 y d h c v.1X1X1X1X1X1X1X1X1X1X1X1X1X1X1X1X1X1X1X1X1X1X1X1X1X1X1X1X1X1X1X1X1X1X1X1X1X1X1X1X1X1X1X1Xv.c c d d 9 6 E.2X2X",
"2X2X2XN.6 0 d f z m OX1X1X1X1X1X1X1X1X1X1X1X1X1X1X1X1X1X1X1X1X1X1X1X1X1X1X1X1X1X1X1X1X1X1X1X1X1X1X1X1X1X1XOXm c j d d 6 6 2X2X2X",
"2X2X2X2X+.6 t d g c -.1X1X1X1X1X1X1X1X1X1X1X1X1X1X1X1X1X1X1X1X1X1X1X1X1X1X1X1X1X1X1X1X1X1X1X1X1X1X1X1X1X1X-.c z d d 9 6 z.2X2X2X",
"2X2X2X2XoX6 8 d d h v B.1X1X1X1X1X1X1X1X1X1X1X1X1X1X1X1X1X1X1X1X1X1X1X1X1X1X1X1X1X1X1X1X1X1X1X1X1X1X1X1XB.v c d d y 6 N 2X2X2X2X",
"2X2X2X2X2X1.6 q d f z m C.1X1X1X1X1X1X1X1X1X1X1X1X1X1X1X1X1X1X1X1X1X1X1X1X1X1X1X1X1X1X1X1X1X1X1X1X1X1XC.m c j d d 7 6 E.2X2X2X2X",
"2X2X2X2X2XoX6 6 t d f z m C.1X1X1X1X1X1X1X1X1X1X1X1X1X1X1X1X1X1X1X1X1X1X1X1X1X1X1X1X1X1X1X1X1X1X1X1XC.m c j d d 9 6 N 2X2X2X2X2X",
"2X2X2X2X2X2Xl.6 8 d d g c m C.1X1X1X1X1X1X1X1X1X1X1X1X1X1X1X1X1X1X1X1X1X1X1X1X1X1X1X1X1X1X1X1X1X1XC.m c z d d y 6 6 E.2X2X2X2X2X",
"2X2X2X2X2X2X2X5.6 0 d d g c m C.1X1X1X1X1X1X1X1X1X1X1X1X1X1X1X1X1X1X1X1X1X1X1X1X1X1X1X1X1X1X1X1XC.m c z d d u 7 6 E.2X2X2X2X2X2X",
"2X2X2X2X2X2X2X2X#.6 0 d d f z m 7.1X1X1X1X1X1X1X1X1X1X1X1X1X1X1X1X1X1X1X1X1X1X1X1X1X1X1X1X1X1X7.m c j d d u 7 6 z.2X2X2X2X2X2X2X",
"2X2X2X2X2X2X2X2X2X+.6 0 d d f l v Z !.1X1X1X1X1X1X1X1X1X1X1X1X1X1X1X1X1X1X1X1X1X1X1X1X1X1X!.Z v c j d d u 7 6 z.2X2X2X2X2X2X2X2X",
"2X2X2X2X2X2X2X2X2X@Xn 6 0 d d d g c m &.^.1X1X1X1X1X1X1X1X1X1X1X1X1X1X1X1X1X1X1X1X1X1X^.&.m c z d d d u 7 6 :.2X2X2X2X2X2X2X2X2X",
"2X2X2X2X2X2X2X2X2X2X2X#.6 8 t d d f l c m &.c.1X1X1X1X1X1X1X1X1X1X1X1X1X1X1X1X1X1Xc.&.m c c j d d d 0 7 6 z.2X2X2X2X2X2X2X2X2X2X",
"2X2X2X2X2X2X2X2X2X2X2X2X;.6 6 q d d d f l c v Z =.c.<X1X1X1X1X1X1X1X1X1X1X<Xc.=.Z v c c j d d d u 9 6 6 z.2X2X2X2X2X2X2X2X2X2X2X",
"2X2X2X2X2X2X2X2X2X2X2X2X2Xl.6 6 8 t d d d f k c c v B %.&.=.2.2.2.2.=.&.%.B v c c x j d d d d 0 7 6 6 E.2X2X2X2X2X2X2X2X2X2X2X2X",
"2X2X2X2X2X2X2X2X2X2X2X2X2X2Xn.M 6 6 0 y d d d d d f k c c c c c c c c c c x j d d d d d d w 9 6 6 $.E.2X2X2X2X2X2X2X2X2X2X2X2X2X",
"2X2X2X2X2X2X2X2X2X2X2X2X2X2X2X2Xn.n 6 6 0 w a d d d d d d d d d d d d d d d d d d d u 0 9 6 6 $.E.2X2X2X2X2X2X2X2X2X2X2X2X2X2X2X",
"2X2X2X2X2X2X2X2X2X2X2X2X2X2X2X2X2X2X>.6 6 6 7 0 t a d d d d d d d d d d d d d i w 9 7 6 6 b z.2X2X2X2X2X2X2X2X2X2X2X2X2X2X2X2X2X",
"2X2X2X2X2X2X2X2X2X2X2X2X2X2X2X2X2X2X2X2Xn.M 6 6 6 7 9 0 q q w w w w w q 0 9 9 7 6 6 6 $.E.2X2X2X2X2X2X2X2X2X2X2X2X2X2X2X2X2X2X2X",
"2X2X2X2X2X2X2X2X2X2X2X2X2X2X2X2X2X2X2X2X2X2XM.<.V 6 6 6 6 6 6 6 6 6 6 6 6 6 6 r @.k.E.2X2X2X2X2X2X2X2X2X2X2X2X2X2X2X2X2X2X2X2X2X",
"2X2X2X2X2X2X2X2X2X2X2X2X2X2X2X2X2X2X2X2X2X2X2X2X2X2XW.M.4.<.O.O.O.O.@.4.k.T.E.2X2X2X2X2X2X2X2X2X2X2X2X2X2X2X2X2X2X2X2X2X2X2X2X2X"
};
