/* XPM */
static char *result[] = {
/* columns rows colors chars-per-pixel */
"64 64 247 2 ",
"   c #BC0000",
".  c #BD0909",
"X  c #BD0D0D",
"o  c #BD1B1B",
"O  c #BE2121",
"+  c #BE2222",
"@  c #BE2424",
"#  c #BE2929",
"$  c #BF2E2E",
"%  c #BF3232",
"&  c #BF3434",
"*  c #C03636",
"=  c #C03B3B",
"-  c #C24848",
";  c #C24949",
":  c #C24B4B",
">  c #C34F4F",
",  c #C35252",
"<  c #C45757",
"1  c #C45858",
"2  c #C45959",
"3  c #C55B5B",
"4  c #C55D5D",
"5  c #C66464",
"6  c #C76565",
"7  c #C76767",
"8  c #C86969",
"9  c #C86A6A",
"0  c #C86B6B",
"q  c #C86C6C",
"w  c #C96D6D",
"e  c #CA7272",
"r  c #CA7474",
"t  c #CB7979",
"y  c #CC7B7B",
"u  c #CD7E7E",
"i  c #27BA00",
"p  c #27BB00",
"a  c #27BC00",
"s  c #28BC00",
"d  c #28BD00",
"f  c #28BE00",
"g  c #28BF00",
"h  c #2DBB12",
"j  c #4ABE3E",
"k  c #28C000",
"l  c #29C100",
"z  c #29C200",
"x  c #29C300",
"c  c #29C400",
"v  c #29C500",
"b  c #2AC500",
"n  c #2AC600",
"m  c #2BCD00",
"M  c #2DD300",
"N  c #2ED900",
"B  c #2FDF00",
"V  c #31EA00",
"C  c #33F000",
"Z  c #34F500",
"A  c #35FA00",
"S  c #36FF00",
"D  c #52FF3E",
"F  c #60C258",
"G  c #62C35B",
"H  c #65FF58",
"J  c #72C76D",
"K  c #7FCA7A",
"L  c #75FF6B",
"P  c #80CA7C",
"I  c #82CB7E",
"U  c #82FF7A",
"Y  c #84FF7C",
"T  c #CD8181",
"R  c #CE8282",
"E  c #CE8484",
"W  c #CF8686",
"Q  c #D08989",
"!  c #D08B8B",
"~  c #D18E8E",
"^  c #D18F8F",
"/  c #D29191",
"(  c #D39292",
")  c #D39494",
"_  c #D39595",
"`  c #D49797",
"'  c #D49898",
"]  c #D59999",
"[  c #D59B9B",
"{  c #D69B9B",
"}  c #D69D9D",
"|  c #D79F9F",
" . c #D7A0A0",
".. c #D8A1A1",
"X. c #D8A2A2",
"o. c #D8A3A3",
"O. c #D9A7A7",
"+. c #DAA7A7",
"@. c #DAA8A8",
"#. c #DAA9A9",
"$. c #DAAAAA",
"%. c #DBABAB",
"&. c #DBACAC",
"*. c #DBADAD",
"=. c #DCAFAF",
"-. c #DDAFAF",
";. c #DDB0B0",
":. c #DDB1B1",
">. c #DDB2B2",
",. c #DEB3B3",
"<. c #DFB7B7",
"1. c #DFB8B8",
"2. c #E0B8B8",
"3. c #E0BABA",
"4. c #E1BBBB",
"5. c #E1BCBC",
"6. c #E2BDBD",
"7. c #E2BFBF",
"8. c #E3BFBF",
"9. c #8DCE89",
"0. c #8ECF8A",
"q. c #98D295",
"w. c #99D296",
"e. c #A2D59F",
"r. c #8EFF87",
"t. c #99FF93",
"y. c #9AFF95",
"u. c #A3FF9E",
"i. c #A4FF9F",
"p. c #A3D6A0",
"a. c #ABD9A9",
"s. c #ACD9AA",
"d. c #ADDAAB",
"f. c #B5DDB3",
"g. c #B6DDB4",
"h. c #ACFFA8",
"j. c #AEFFAA",
"k. c #BDE0BC",
"l. c #BEE0BC",
"z. c #B7FFB3",
"x. c #BEFFBB",
"c. c #E3C0C0",
"v. c #E3C1C1",
"b. c #E3C2C2",
"n. c #E4C3C3",
"m. c #E5C4C4",
"M. c #E5C5C5",
"N. c #E5C6C6",
"B. c #E6C6C6",
"V. c #E6C8C8",
"C. c #E6C9C9",
"Z. c #E7C9C9",
"A. c #E7CBCB",
"S. c #E8CCCC",
"D. c #E8CDCD",
"F. c #E9CFCF",
"G. c #E9D0D0",
"H. c #E9D1D1",
"J. c #EAD1D1",
"K. c #EAD2D2",
"L. c #EAD3D3",
"P. c #EBD3D3",
"I. c #EBD4D4",
"U. c #EBD5D5",
"Y. c #ECD5D5",
"T. c #ECD6D6",
"R. c #ECD7D7",
"E. c #EDD8D8",
"W. c #EDD9D9",
"Q. c #EDDADA",
"!. c #EEDADA",
"~. c #EEDBDB",
"^. c #EEDCDC",
"/. c #EFDCDC",
"(. c #EFDDDD",
"). c #EFDEDE",
"_. c #F0DEDE",
"`. c #F0DFDF",
"'. c #C5E3C3",
"]. c #C6E4C4",
"[. c #CCE7CB",
"{. c #C6FFC3",
"}. c #CCFFCA",
"|. c #CDFFCB",
" X c #CEFFCC",
".X c #D4EAD3",
"XX c #D5EAD4",
"oX c #DBEDDA",
"OX c #DCEEDB",
"+X c #D4FFD2",
"@X c #D5FFD3",
"#X c #DBFFD9",
"$X c #DCFFDA",
"%X c #E0E7E0",
"&X c #F1E1E1",
"*X c #F1E2E2",
"=X c #F2E3E3",
"-X c #F2E4E4",
";X c #F3E6E6",
":X c #F4E7E7",
">X c #F4E8E8",
",X c #F4E9E9",
"<X c #F5E9E9",
"1X c #F6EBEB",
"2X c #F6ECEC",
"3X c #F6EDED",
"4X c #F7EDED",
"5X c #F7EEEE",
"6X c #F7EFEF",
"7X c #E1F0E1",
"8X c #E2F1E1",
"9X c #E7F3E7",
"0X c #E7F7E7",
"qX c #E8F7E7",
"wX c #E1FFE0",
"eX c #E2FFE1",
"rX c #E7FFE6",
"tX c #E8FFE7",
"yX c #E8F4E8",
"uX c #E9FFE8",
"iX c #ECFFEB",
"pX c #EFFFEE",
"aX c #F8F0F0",
"sX c #F8F1F1",
"dX c #F9F2F2",
"fX c #F9F3F3",
"gX c #FAF4F4",
"hX c #FAF5F5",
"jX c #FAF6F6",
"kX c #FBF6F6",
"lX c #F2FFF2",
"zX c #F3FFF3",
"xX c #F4FFF4",
"cX c #F6FFF6",
"vX c #FCF8F8",
"bX c #FCF9F9",
"nX c #FCFAFA",
"mX c #FDFBFB",
"MX c #FAFFF9",
"NX c #FDFCFC",
"BX c #FEFCFC",
"VX c #FEFDFD",
"CX c #FEFEFE",
"ZX c #FFFEFE",
"AX c #FEFFFE",
"SX c white",
"DX c None",
/* pixels */
"DXDXDXDXDXDXDXDXDXDXDXDXDXDXDXDXDXDXDXDXDXDXDXDXDXDX7XoXk.f.9.9.9.9.q.k.'.7X9XDXDXDXDXDXDXDXDXDXDXDXDXDXDXDXDXDXDXDXDXDXDXDXDXDX",
"DXDXDXDXDXDXDXDXDXDXDXDXDXDXDXDXDXDXDXDXDXDXoXf.P i i i i i i i i i i i i i i j q.'.9XDXDXDXDXDXDXDXDXDXDXDXDXDXDXDXDXDXDXDXDXDX",
"DXDXDXDXDXDXDXDXDXDXDXDXDXDXDXDXDXDXDXDX.XJ i i p k c b n n n n n n n n n c x f i i i e.9XDXDXDXDXDXDXDXDXDXDXDXDXDXDXDXDXDXDXDX",
"DXDXDXDXDXDXDXDXDXDXDXDXDXDXDXDXDXDXs.i i p k n n n n n n n n n n n n n n n n n n x f i i F [.DXDXDXDXDXDXDXDXDXDXDXDXDXDXDXDXDX",
"DXDXDXDXDXDXDXDXDXDXDXDXDXDXDXDX.XG i s b n n n n m V S S S S S S S S S S A B n n n n n z i i e.9XDXDXDXDXDXDXDXDXDXDXDXDXDXDXDX",
"DXDXDXDXDXDXDXDXDXDXDXDXDXDX.XJ i s n n n m V S S S S S S S S S S S S S S S S S S A B n n n z i i e.9XDXDXDXDXDXDXDXDXDXDXDXDXDX",
"DXDXDXDXDXDXDXDXDXDXDXDXDX].i p l n n m C S S S S Y  XSXSXSXSXSXSXSXSXSXSX XY S S S S S B n n n f i i 9XDXDXDXDXDXDXDXDXDXDXDXDX",
"DXDXDXDXDXDXDXDXDXDXDXDXp.i s n n m C S S S Y uXSXSXSXSXSXSXSXSXSXSXSXSXSXSXSXSXuXY S S S S B n n z i i [.DXDXDXDXDXDXDXDXDXDXDX",
"DXDXDXDXDXDXDXDXDXDXDXw.p l n n M S S S j.SXSXSXSXSXSXSXSXSXSXSXSXSXSXSXSXSXSXSXSXSXSXj.S S S Z n n n f i [.DXDXDXDXDXDXDXDXDXDX",
"DXDXDXDXDXDXDXDXDX%XG p z n m C S S j.SXSXSXSXSXSXSXSXSXSXSXSXSXSXSXSXSXSXSXSXSXSXSXSXSXSXj.S S S B n n f i a.DXDXDXDXDXDXDXDXDX",
"DXDXDXDXDXDXDXDXDX0.p z n m Z S Y uXSXSXSXSXSXSXSXSXSXSXSXSXSXSXSXSXSXSXSXSXSXSXSXSXSXSXSXSXuXY S S B n n f i [.DXDXDXDXDXDXDXDX",
"DXDXDXDXDXDXDXDXw.p z n M S S j.SXSXSXSXSXSXSXSXSXSXSXSXSXSXSXSXSXSXSXSXSXSXSXSXSXSXSXSXSXSXSXSXj.S S Z n n f i [.DXDXDXDXDXDXDX",
"DXDXDXDXDXDXDXl.p z n M S S j.SXSXSXSXSXSXSXSXSXSXSXSXSXSXSXSXSXSXSXSXSXSXSXSXSXSXSXSXSXSXSXSXSXSXj.S S Z n n f i 9XDXDXDXDXDXDX",
"DXDXDXDXDXDX].i d n m Z S j.SXSXSXSXSXSXSXSXSXSXSXSXSXSXSXSXSXSXSXSXSXSXSXSXSXSXSXSXSXSXSXSXSXSXSXSXj.S S B n n i i 9XDXDXDXDXDX",
"DXDXDXDXDXyXi s n m Z S j.SXSXSXSXSXSXSXSXSXSXSXSXSXSXSXSXSXSXSXSXSXSXSXSXSXSXSXSXSXSXSXSXSXSXSXSXSXSXj.S S B n z i K DXDXDXDXDX",
"DXDXDXDXDXg.p z n N S j.SXSXSXSXSXSXSXSXSXSXSXSXSXSXSXSXSXSXSXSXSXSXSXSXSXSXSXSXSXSXSXSXSXSXSXSXSXSXSXSXj.S S n n f i 9XDXDXDXDX",
"DXDXDXDXyXi d n M S Y SXSXSXSXSXSXSXSXSXSXSXSXSXSXSXSXZXCXCXBXBXBXVXCXZXSXSXSXSXSXSXSXSXSXSXSXSXSXSXSXSXSXY S Z n n i K DXDXDXDX",
"DXDXDXDX0.s n m Z S @XSXSXSXSXSXSXSXSXSXSXSXSXSXSXCXBXvXgXgXaXaXaXfXgXkXmXVXSXSXSXSXSXSXSXSXSXSXSXSXSXSXSX@XS S B n z i [.DXDXDX",
"DXDXDXOXi g n N S j.SXSXSXSXSXSXSXSXSXSXSXSXSXSXBXvXsX2X*X`.!.E.E.).`.,X6XjXmXCXSXSXSXSXSXSXSXSXSXSXSXSXSXSXj.S S n n i i DXDXDX",
"DXDXDXd.s n m Z S xXSXSXSXSXSXSXSXSXSXSXSXSXCXvXsX>X~.K.Z.7.,.;.;.3.M.F.R.=X5XjXBXSXSXSXSXSXSXSXSXSXSXSXSXSXxXS S B n z i 9XDXDX",
"DXDXyXi d n N S j.SXSXSXSXSXSXSXSXSXSXSXSXCXvX4X*XP.v.+._ R 0 6 6 t ~ | 1.D.(.,XhXBXSXSXSXSXSXSXSXSXSXSXSXSXSXj.S S n n i K DXDX",
"DXDXg.p z m Z S xXSXSXSXSXSXSXSXSXSXSXSXCXvX4X/.A.$.W , X             = r [ v.Y.:XhXBXSXSXSXSXSXSXSXSXSXSXSXSXxXS S B n f i 9XDX",
"DX%Xh s n M S Y SXSXSXSXSXSXSXSXSXSXSXSXbX4X/.b.+.e +                     2 ' 1.P.:XhXVXSXSXSXSXSXSXSXSXSXSXSXSXY S Z n x i a.DX",
"DX8Xi g n N S @XSXSXSXSXSXSXSXSXSXSXSXVXdX=XS.#.e                           , ` c.~.3XnXZXSXSXSXSXSXSXSXSXSXSXSX@XS S n n i i DX",
"DXXXp x n B S MXSXSXSXSXSXSXSXSXSXSXCXvX<XU.&.e                               , ' V.*XgXBXSXSXSXSXSXSXSXSXSXSXSXMXS S n n f i DX",
"DXd.s n m Z Y SXSXSXSXSXSXSXSXSXSXSXVXdX(.b.! $                                 w :.P.1XnXZXSXSXSXSXSXSXSXSXSXSXSXY S B n x i lX",
"DXI s n M S z.SXSXSXSXSXSXSXSXSXSXSXbX4XT.%.3                                   @ ( V.;XhXVXSXSXSXSXSXSXSXSXSXSXSXz.S Z n c i [.",
"cXh d n N S $XSXSXSXSXSXSXSXSXSXSXCXjX-XS.{ *                                     u 6.~.aXNXSXSXSXSXSXSXSXSXSXSXSX$XS S n n i a.",
"lXi f n N S eXSXSXSXSXSXSXSXSXSXSXCXjX-Xn.Q                                       7 ;.W.aXNXSXSXSXSXSXSXSXSXSXSXSXeXS S n n i K ",
"pXi g n B S MXSXSXSXSXSXSXSXSXSXSXVXdX(.1.r                                       ; o.J.1XnXZXSXSXSXSXSXSXSXSXSXSXMXS S n n i i ",
"iXi g n B S SXSXSXSXSXSXSXSXSXSXSXVXdX(.<.e                                       - ..H.1XnXZXSXSXSXSXSXSXSXSXSXSXSXS S n n i i ",
"iXi g n B S SXSXSXSXSXSXSXSXSXSXSXVXdX(.<.e                                       - ..H.1XnXZXSXSXSXSXSXSXSXSXSXSXSXS S n n i i ",
"iXi g n B S SXSXSXSXSXSXSXSXSXSXSXCXjX-Xb.W                                       5 =.E.aXNXSXSXSXSXSXSXSXSXSXSXSXSXS S n n i i ",
"iXi g n B S SXSXSXSXSXSXSXSXSXSXSXCXjX-XA.] &                                     y 4.~.aXNXSXSXSXSXSXSXSXSXSXSXSXSXS S n n i i ",
"pXi f n N S tXSXSXSXSXSXSXSXSXSXSXSXbX4XY.@.<                                   O ^ B.;XhXVXSXSXSXSXSXSXSXSXSXSXSXtXS S n n i i ",
"lXi f n N S eXSXSXSXSXSXSXSXSXSXSXSXVXdX(.8.E #                                 7 *.L.1XnXZXSXSXSXSXSXSXSXSXSXSXSXeXS S n n i K ",
"cXh d n M S {.SXSXSXSXSXSXSXSXSXSXSXCXvX<XI.O.0                               : / N.*XgXBXSXSXSXSXSXSXSXSXSXSXSXSX{.S Z n b i a.",
"DXI s n m Z y.SXSXSXSXSXSXSXSXSXSXSXSXVXdX=XC.X.8                           ; ^ 5.Q.3XnXZXSXSXSXSXSXSXSXSXSXSXSXSXy.S B n c i [.",
"DXd.p v n B D SXSXSXSXSXSXSXSXSXSXSXSXSXbX4X/.8. .8 o                     > ^ ,.K.:XhXVXSXSXSXSXSXSXSXSXSXSXSXSXSXD S n n k i 9X",
"DXXXi k n N S tXSXSXSXSXSXSXSXSXSXSXSXSXCXvX4X~.V.X.y - .             % 9 ( 5.P.:XhXBXSXSXSXSXSXSXSXSXSXSXSXSXSXtXS S n n p i DX",
"DXqXi d n M S i.SXSXSXSXSXSXSXSXSXSXSXSXSXCXvX4X*XG.3.} Q r 4 1 1 q T ) -.V.^.,XhXBXSXSXSXSXSXSXSXSXSXSXSXSXSXSXi.S Z n n i i DX",
"DXcXh p v m Z D SXSXSXSXSXSXSXSXSXSXSXSXSXSXCXvXsX>XQ.F.m.2.$.+.+.>.7.A.Y.=X5XjXBXSXSXSXSXSXSXSXSXSXSXSXSXSXSXSXD S B n k i a.DX",
"DXDXg.i g n N S |.SXSXSXSXSXSXSXSXSXSXSXSXSXSXSXBXvXsX2X&X).E.T.T./._.,X6XjXmXCXSXSXSXSXSXSXSXSXSXSXSXSXSXSXSX|.S S n n p i 9XDX",
"DXDXlXi d n m Z H SXSXSXSXSXSXSXSXSXSXSXSXSXSXSXSXCXBXvXgXgXaXaXaXfXgXkXmXVXSXSXSXSXSXSXSXSXSXSXSXSXSXSXSXSXSXH S B n b i K DXDX",
"DXDXDXd.i l n N S |.SXSXSXSXSXSXSXSXSXSXSXSXSXSXSXSXSXZXCXCXBXBXBXVXCXZXSXSXSXSXSXSXSXSXSXSXSXSXSXSXSXSXSXSX|.S S n n s i 9XDXDX",
"DXDXDXOXi d n m Z H zXSXSXSXSXSXSXSXSXSXSXSXSXSXSXSXSXSXSXSXSXSXSXSXSXSXSXSXSXSXSXSXSXSXSXSXSXSXSXSXSXSXSXzXH S B n n i i DXDXDX",
"DXDXDXDX0.i k n M S i.SXSXSXSXSXSXSXSXSXSXSXSXSXSXSXSXSXSXSXSXSXSXSXSXSXSXSXSXSXSXSXSXSXSXSXSXSXSXSXSXSXSXi.S Z n n s i [.DXDXDX",
"DXDXDXDXlXi a n n N D +XSXSXSXSXSXSXSXSXSXSXSXSXSXSXSXSXSXSXSXSXSXSXSXSXSXSXSXSXSXSXSXSXSXSXSXSXSXSXSXSX+XD S n n l i K DXDXDXDX",
"DXDXDXDXDXg.i f n m Z H #XSXSXSXSXSXSXSXSXSXSXSXSXSXSXSXSXSXSXSXSXSXSXSXSXSXSXSXSXSXSXSXSXSXSXSXSXSXSX#XH S B n n p i 9XDXDXDXDX",
"DXDXDXDXDXlXi i k n m Z H #XSXSXSXSXSXSXSXSXSXSXSXSXSXSXSXSXSXSXSXSXSXSXSXSXSXSXSXSXSXSXSXSXSXSXSXSX#XH S B n n s i K DXDXDXDXDX",
"DXDXDXDXDXDX].i a n n M S H #XSXSXSXSXSXSXSXSXSXSXSXSXSXSXSXSXSXSXSXSXSXSXSXSXSXSXSXSXSXSXSXSXSXSX#XH S Z n n l i i 9XDXDXDXDXDX",
"DXDXDXDXDXDXDXl.i d n n M S H #XSXSXSXSXSXSXSXSXSXSXSXSXSXSXSXSXSXSXSXSXSXSXSXSXSXSXSXSXSXSXSXSX#XH S Z n n z p i 9XDXDXDXDXDXDX",
"DXDXDXDXDXDXDXDXw.i d n n m Z H x.SXSXSXSXSXSXSXSXSXSXSXSXSXSXSXSXSXSXSXSXSXSXSXSXSXSXSXSXSXSXx.H S B n n z p i [.DXDXDXDXDXDXDX",
"DXDXDXDXDXDXDXDXDX0.i d n n m C D U wXSXSXSXSXSXSXSXSXSXSXSXSXSXSXSXSXSXSXSXSXSXSXSXSXSXSXwXU D S B n n z p i [.DXDXDXDXDXDXDXDX",
"DXDXDXDXDXDXDXDXDXcXG i d n n n M S H t.rXSXSXSXSXSXSXSXSXSXSXSXSXSXSXSXSXSXSXSXSXSXSXrXt.H S Z n n n z p i a.DXDXDXDXDXDXDXDXDX",
"DXDXDXDXDXDXDXDXDXDXDXw.i a k n n m C S H t.}.SXSXSXSXSXSXSXSXSXSXSXSXSXSXSXSXSXSX}.t.H S S B n n n d p i [.DXDXDXDXDXDXDXDXDXDX",
"DXDXDXDXDXDXDXDXDXDXDXDXp.i i f n n n m C S D U u.}.AXSXSXSXSXSXSXSXSXSXSXAX}.u.U D S S B n n n z s i i [.DXDXDXDXDXDXDXDXDXDXDX",
"DXDXDXDXDXDXDXDXDXDXDXDXDX].i i a k n n n m V S S D L r.t.u.h.h.h.h.u.t.r.L D S S A B n n n n d p i i 9XDXDXDXDXDXDXDXDXDXDXDXDX",
"DXDXDXDXDXDXDXDXDXDXDXDXDXDX.XJ i i d l n n n n n m V S S S S S S S S S S A B n n n n n n g s i i e.9XDXDXDXDXDXDXDXDXDXDXDXDXDX",
"DXDXDXDXDXDXDXDXDXDXDXDXDXDXDXDX.XG i i d g v n n n n n n n n n n n n n n n n n n n z d s i i e.9XDXDXDXDXDXDXDXDXDXDXDXDXDXDXDX",
"DXDXDXDXDXDXDXDXDXDXDXDXDXDXDXDXDXDXs.i i i p d k v n n n n n n n n n n n n n x g s p i i F [.DXDXDXDXDXDXDXDXDXDXDXDXDXDXDXDXDX",
"DXDXDXDXDXDXDXDXDXDXDXDXDXDXDXDXDXDXDXDX.XJ i i i p s d f f g g g g g f d s s p i i i e.9XDXDXDXDXDXDXDXDXDXDXDXDXDXDXDXDXDXDXDX",
"DXDXDXDXDXDXDXDXDXDXDXDXDXDXDXDXDXDXDXDXDXDXoXf.P i i i i i i i i i i i i i i j q.'.9XDXDXDXDXDXDXDXDXDXDXDXDXDXDXDXDXDXDXDXDXDX",
"DXDXDXDXDXDXDXDXDXDXDXDXDXDXDXDXDXDXDXDXDXDXDXDXDXDX0XoXk.f.9.9.9.9.q.k.'.7X9XDXDXDXDXDXDXDXDXDXDXDXDXDXDXDXDXDXDXDXDXDXDXDXDXDX"
};
