/* XPM */
static char *_6e479b4a0d34107b862d9d7f9bcfba3qJcSwJssmFpTYTIe[] = {
/* columns rows colors chars-per-pixel */
"64 64 118 2 ",
"   c None",
".  c #BC0000",
"X  c #BD1616",
"o  c #BD1C1C",
"O  c #BE2323",
"+  c #BF2D2D",
"@  c #BF3333",
"#  c #C03D3D",
"$  c #C14444",
"%  c #C24B4B",
"&  c #C45454",
"*  c #C55C5C",
"=  c #C76464",
"-  c #C76868",
";  c #C96D6D",
":  c #CA7474",
">  c #CC7B7B",
",  c #27BA00",
"<  c #28BD00",
"1  c #2DBB12",
"2  c #4ABE3E",
"3  c #2AC500",
"4  c #2BCD00",
"5  c #2DD300",
"6  c #2FDD00",
"7  c #31EA00",
"8  c #34F400",
"9  c #36FF00",
"0  c #52FF3E",
"q  c #61C35A",
"w  c #65FF58",
"e  c #72C76D",
"r  c #7FCA7A",
"t  c #75FF6B",
"y  c #81CB7D",
"u  c #84FF7C",
"i  c #CE8484",
"p  c #CF8888",
"a  c #D18B8B",
"s  c #D39494",
"d  c #D69D9D",
"f  c #D7A1A1",
"g  c #D9A5A5",
"h  c #DBACAC",
"j  c #DEB3B3",
"k  c #E0B7B7",
"l  c #E1BCBC",
"z  c #8DCE89",
"x  c #99D296",
"c  c #A2D59F",
"v  c #8EFF87",
"b  c #99FF94",
"n  c #A4FF9F",
"m  c #A3D6A0",
"M  c #ACD9AA",
"N  c #B6DDB4",
"B  c #AEFFAA",
"V  c #BDE0BC",
"C  c #B7FFB3",
"Z  c #BEFFBB",
"A  c #E5C4C4",
"S  c #E7CACA",
"D  c #E8CDCD",
"F  c #EBD4D4",
"G  c #EEDBDB",
"H  c #F0DFDF",
"J  c #C6E4C4",
"K  c #CCE7CB",
"L  c #C6FFC3",
"P  c #CDFFCB",
"I  c #D4EAD3",
"U  c #DBEDDA",
"Y  c #D5FFD3",
"T  c #DBFFD9",
"R  c #E0E7E0",
"E  c #F2E3E3",
"W  c #F7EEEE",
"Q  c #F5EAEA",
"!  c #E1F0E1",
"~  c #E2F1E1",
"^  c #E7F3E7",
"/  c #E7F3E7",
"(  c #E8F7E7",
")  c #E2FFE1",
"_  c #E4FFE3",
"`  c #E8FFE7",
"'  c #E8F4E8",
"]  c #E9FFE8",
"[  c #ECFFEB",
"{  c #EFFFEE",
"}  c #F8F0F0",
"|  c #F8F1F1",
" . c #F9F2F2",
".. c #F9F3F3",
"X. c #F9F4F4",
"o. c #FAF5F5",
"O. c #FAF6F6",
"+. c #FBF6F6",
"@. c #FBF7F7",
"#. c #FAF4F4",
"$. c #F2FFF2",
"%. c #F4FFF4",
"&. c #F6FFF6",
"*. c #F3FFF3",
"=. c #FBF8F8",
"-. c #FCF8F8",
";. c #FCF9F9",
":. c #FCFAFA",
">. c #FDFAFA",
",. c #FDFBFB",
"<. c #FAFFF9",
"1. c #FDFCFC",
"2. c #FEFCFC",
"3. c #FEFDFD",
"4. c #FEFEFE",
"5. c #FFFEFE",
"6. c white",
"7. c #FFFFFF",
/* pixels */
"                                                    ! U V N z z z z x V J ! ^                                                   ",
"                                            U N y , , , , , , , , , , , , , , 2 x J ^                                           ",
"                                        I e , , , 3 3 3 3 3 3 3 3 3 3 3 3 3 3 < , , , c ^                                       ",
"                                    M , , , 3 3 3 3 3 3 3 3 3 3 3 3 3 3 3 3 3 3 3 3 < , , q K                                   ",
"                                I q , < 3 3 3 3 3 4 7 9 9 9 9 9 9 9 9 9 9 9 6 3 3 3 3 3 3 , , c ^                               ",
"                            I e , < 3 3 3 4 7 9 9 9 9 9 9 9 9 9 9 9 9 9 9 9 9 9 9 9 6 3 3 3 3 , , c ^                           ",
"                          J , , 3 3 3 4 8 9 9 9 9 u P 6.6.6.6.6.6.6.6.6.6.P u 9 9 9 9 9 6 3 3 3 < , , ^                         ",
"                        m , < 3 3 4 8 9 9 9 u ] 6.6.6.6.6.6.6.6.6.6.6.6.6.6.6.6.] u 9 9 9 9 6 3 3 3 , , K                       ",
"                      x , 3 3 3 5 9 9 9 B 6.6.6.6.6.6.6.6.6.6.6.6.6.6.6.6.6.6.6.6.6.6.B 9 9 9 8 3 3 3 < , K                     ",
"                  R q , 3 3 4 8 9 9 B 6.6.6.6.6.6.6.6.6.6.6.6.6.6.6.6.6.6.6.6.6.6.6.6.6.6.B 9 9 9 6 3 3 < , M                   ",
"                  z , 3 3 4 8 9 u ] 6.6.6.6.6.6.6.6.6.6.6.6.6.6.6.6.6.6.6.6.6.6.6.6.6.6.6.6.] u 9 9 6 3 3 < , K                 ",
"                x , 3 3 5 9 9 B 6.6.6.6.6.6.6.6.6.6.6.6.6.6.6.6.6.6.6.6.6.6.6.6.6.6.6.6.6.6.6.6.B 9 9 8 3 3 < , K               ",
"              V , 3 3 5 9 9 B 6.6.6.6.6.6.6.6.6.6.6.6.6.6.6.6.6.6.6.6.6.6.6.6.6.6.6.6.6.6.6.6.6.6.B 9 9 8 3 3 < , ^             ",
"            J , < 3 4 8 9 B 6.6.6.6.6.6.6.6.6.6.6.6.6.6.6.6.6.6.6.6.6.6.6.6.6.6.6.6.6.6.6.6.6.6.6.6.B 9 9 6 3 3 , , ^           ",
"          ' , < 3 4 8 9 B 6.6.6.6.6.6.6.6.6.6.6.6.6.6.6.-.-.@.@.@.@.-.-.6.6.6.6.6.6.6.6.6.6.6.6.6.6.6.B 9 9 6 3 3 , r           ",
"          N , 3 3 6 9 B 6.6.6.6.6.6.6.6.6.6.6.6.6.-.@. .W W Q Q Q Q W W  .@.-.6.6.6.6.6.6.6.6.6.6.6.6.6.B 9 9 3 3 < , ^         ",
"        ' , < 3 5 9 u 6.6.6.6.6.6.6.6.6.6.6.6.-.@. .Q E G G F F F F G G E Q  .@.-.6.6.6.6.6.6.6.6.6.6.6.6.u 9 8 3 3 , r         ",
"        z < 3 4 8 9 Y 6.6.6.6.6.6.6.6.6.6.6.@. .Q G F A k j h g g h j l S F H Q  .@.6.6.6.6.6.6.6.6.6.6.6.Y 9 9 6 3 3 , K       ",
"      U , < 3 6 9 B 6.6.6.6.6.6.6.6.6.6.-.@.W E F A j d p > : - - : > a f j A F E W @.-.6.6.6.6.6.6.6.6.6.6.B 9 9 3 3 , ,       ",
"      M < 3 4 8 9 %.6.6.6.6.6.6.6.6.6.-.@.Q G S j s : * $ O . . . . O $ * > d j D G Q @.-.6.6.6.6.6.6.6.6.6.%.9 9 6 3 3 , ^     ",
"    ' , < 3 6 9 B 6.6.6.6.6.6.6.6.6.6.@.Q G A g p = @ . . . . . . . . . . @ - a h S G Q @.6.6.6.6.6.6.6.6.6.6.B 9 9 3 3 , r     ",
"    N , 3 4 8 9 %.6.6.6.6.6.6.6.6.6.-.W G A g > % . . . . . . . . . . . . . . & i h S H W -.6.6.6.6.6.6.6.6.6.%.9 9 6 3 < , ^   ",
"  R 1 < 3 5 9 u 6.6.6.6.6.6.6.6.6.-. .E S g > # . . . . . . . . . . . . . . . . $ i h D E  .-.6.6.6.6.6.6.6.6.6.u 9 8 3 3 , M   ",
"  ! , < 3 6 9 Y 6.6.6.6.6.6.6.6.6.@.Q G j a & . . . . . . . . . . . . . . . . . . * s l G Q @.6.6.6.6.6.6.6.6.6.Y 9 9 3 3 , ,   ",
"  I , 3 3 6 9 <.6.6.6.6.6.6.6.6.-. .E A d - . . . . . . . . . . . . . . . . . . . . ; g S E  .-.6.6.6.6.6.6.6.6.<.9 9 3 3 < ,   ",
"  M < 3 4 8 u 6.6.6.6.6.6.6.6.6.=.Q F j i # . . . . . . . . . . . . . . . . . . . . # a l G Q @.6.6.6.6.6.6.6.6.6.u 9 6 3 3 , $.",
"  y < 3 5 9 C 6.6.6.6.6.6.6.6.6.@.E S g ; . . . . . . . . . . . . . . . . . . . . . . : h D E @.6.6.6.6.6.6.6.6.6.C 9 8 3 3 , K ",
"%.1 < 3 6 9 T 6.6.6.6.6.6.6.6.-. .E A a & . . . . . . . . . . . . . . . . . . . . . . & s A E  .-.6.6.6.6.6.6.6.6.T 9 9 3 3 , M ",
"$., < 3 6 9 ) 6.6.6.6.6.6.6.6.-. .G l a # . . . . . . . . . . . . . . . . . . . . . . $ s A E  .-.6.6.6.6.6.6.6.6.) 9 9 3 3 , r ",
"{ , < 3 6 9 <.6.6.6.6.6.6.6.6.-.W G j > O . . . . . . . . . . . . . . . . . . . . . . O p l G W -.6.6.6.6.6.6.6.6.<.9 9 3 3 , , ",
"[ , < 3 6 9 6.6.6.6.6.6.6.6.6.-.W G j > X . . . . . . . . . . . . . . . . . . . . . . o p l G W -.6.6.6.6.6.6.6.6.6.9 9 3 3 , , ",
"[ , < 3 6 9 6.6.6.6.6.6.6.6.6.-.W G j > X . . . . . . . . . . . . . . . . . . . . . . o p l G W -.6.6.6.6.6.6.6.6.6.9 9 3 3 , , ",
"[ , < 3 6 9 6.6.6.6.6.6.6.6.6.-.W G l a @ . . . . . . . . . . . . . . . . . . . . . . # s A H W -.6.6.6.6.6.6.6.6.6.9 9 3 3 , , ",
"[ , < 3 6 9 6.6.6.6.6.6.6.6.6.-. .G l a % . . . . . . . . . . . . . . . . . . . . . . % s A E  .-.6.6.6.6.6.6.6.6.6.9 9 3 3 , , ",
"{ , < 3 6 9 ` 6.6.6.6.6.6.6.6.6.@.E A d - . . . . . . . . . . . . . . . . . . . . . . ; g S E @.6.6.6.6.6.6.6.6.6.` 9 9 3 3 , , ",
"$., < 3 6 9 ) 6.6.6.6.6.6.6.6.6.@.Q F j > O . . . . . . . . . . . . . . . . . . . . O i j F Q @.6.6.6.6.6.6.6.6.6.) 9 9 3 3 , r ",
"%.1 < 3 5 9 L 6.6.6.6.6.6.6.6.6.-. .G A s * . . . . . . . . . . . . . . . . . . . . = d A H  .-.6.6.6.6.6.6.6.6.6.L 9 8 3 3 , M ",
"  y < 3 4 8 b 6.6.6.6.6.6.6.6.6.6.@.Q F j i # . . . . . . . . . . . . . . . . . . $ p j F Q @.6.6.6.6.6.6.6.6.6.6.b 9 6 3 3 , K ",
"  M , 3 3 6 0 6.6.6.6.6.6.6.6.6.6.-.W E A d ; o . . . . . . . . . . . . . . . . O : f S E W -.6.6.6.6.6.6.6.6.6.6.0 9 3 3 3 , ^ ",
"  I , 3 3 6 9 ` 6.6.6.6.6.6.6.6.6.6.@.Q G l d ; + . . . . . . . . . . . . . . @ : f A G Q @.6.6.6.6.6.6.6.6.6.6.` 9 9 3 3 , ,   ",
"  ( , < 3 5 9 n 6.6.6.6.6.6.6.6.6.6.-. .E F l d : % . . . . . . . . . . . . % > f A F E  .-.6.6.6.6.6.6.6.6.6.6.n 9 8 3 3 , ,   ",
"  %.1 , 3 4 8 0 6.6.6.6.6.6.6.6.6.6.6.-. .E F l g p = # . . . . . . . . # - a g A F E  .-.6.6.6.6.6.6.6.6.6.6.6.0 9 6 3 3 , M   ",
"    N , < 3 6 9 P 6.6.6.6.6.6.6.6.6.6.6.-. .Q G D l f a : = & % % & = > s g l D G Q  .-.6.6.6.6.6.6.6.6.6.6.6.P 9 9 3 3 , , ^   ",
"    $., < 3 4 8 w 6.6.6.6.6.6.6.6.6.6.6.6.-.@.Q E F S l h g d s s d g h l S F E Q @.-.6.6.6.6.6.6.6.6.6.6.6.6.w 9 6 3 3 , r     ",
"      M , 3 3 6 9 P 6.6.6.6.6.6.6.6.6.6.6.6.6.@. .Q E G F D S A A S D F G E Q  .@.6.6.6.6.6.6.6.6.6.6.6.6.6.P 9 9 3 3 < , ^     ",
"      U , < 3 4 8 w $.6.6.6.6.6.6.6.6.6.6.6.6.6.-.@. .W Q E E E E E E Q W  .@.-.6.6.6.6.6.6.6.6.6.6.6.6.6.$.w 9 6 3 3 , ,       ",
"        z , 3 3 5 9 n 6.6.6.6.6.6.6.6.6.6.6.6.6.6.6.-.-.@.@. . . . .@.@.-.-.6.6.6.6.6.6.6.6.6.6.6.6.6.6.6.n 9 8 3 3 < , K       ",
"        $., < 3 3 6 0 Y 6.6.6.6.6.6.6.6.6.6.6.6.6.6.6.6.6.6.6.6.6.6.6.6.6.6.6.6.6.6.6.6.6.6.6.6.6.6.6.6.Y 0 9 3 3 3 , r         ",
"          N , < 3 4 8 w T 6.6.6.6.6.6.6.6.6.6.6.6.6.6.6.6.6.6.6.6.6.6.6.6.6.6.6.6.6.6.6.6.6.6.6.6.6.6.T w 9 6 3 3 , , ^         ",
"          $., , 3 3 4 8 w T 6.6.6.6.6.6.6.6.6.6.6.6.6.6.6.6.6.6.6.6.6.6.6.6.6.6.6.6.6.6.6.6.6.6.6.6.T w 9 6 3 3 < , r           ",
"            J , < 3 3 5 9 w T 6.6.6.6.6.6.6.6.6.6.6.6.6.6.6.6.6.6.6.6.6.6.6.6.6.6.6.6.6.6.6.6.6.6.T w 9 8 3 3 3 , , ^           ",
"              V , < 3 3 5 9 w T 6.6.6.6.6.6.6.6.6.6.6.6.6.6.6.6.6.6.6.6.6.6.6.6.6.6.6.6.6.6.6.6.T w 9 8 3 3 3 , , ^             ",
"                x , < 3 3 4 8 w Z 6.6.6.6.6.6.6.6.6.6.6.6.6.6.6.6.6.6.6.6.6.6.6.6.6.6.6.6.6.6.Z w 9 6 3 3 3 , , K               ",
"                  z , < 3 3 4 8 0 u ) 6.6.6.6.6.6.6.6.6.6.6.6.6.6.6.6.6.6.6.6.6.6.6.6.6.6.) u 0 9 6 3 3 3 , , K                 ",
"                  %.q , < 3 3 3 5 9 w b ` 6.6.6.6.6.6.6.6.6.6.6.6.6.6.6.6.6.6.6.6.6.6.` b w 9 8 3 3 3 3 , , M                   ",
"                      x , < 3 3 3 4 8 9 w b P 6.6.6.6.6.6.6.6.6.6.6.6.6.6.6.6.6.6.P b w 9 9 6 3 3 3 < , , K                     ",
"                        m , , < 3 3 3 4 8 9 0 u n P 6.6.6.6.6.6.6.6.6.6.6.6.P n u 0 9 9 6 3 3 3 3 < , , K                       ",
"                          J , , < 3 3 3 3 4 7 9 9 0 t v b n B B B B n b v t 0 9 9 9 6 3 3 3 3 < , , , ^                         ",
"                            I e , , < 3 3 3 3 3 3 4 7 9 9 9 9 9 9 9 9 9 9 9 6 3 3 3 3 3 3 < < , , c ^                           ",
"                                I q , , < < 3 3 3 3 3 3 3 3 3 3 3 3 3 3 3 3 3 3 3 3 3 < < , , c ^                               ",
"                                    M , , , , < 3 3 3 3 3 3 3 3 3 3 3 3 3 3 3 3 < < , , , q K                                   ",
"                                        I e , , , , < < < < < < < < < < < < < , , , , c ^                                       ",
"                                            U N y , , , , , , , , , , , , , , 2 x J ^                                           ",
"                                                    ( U V N z z z z x V J ! ^                                                   "
};
