/* XPM */
static char *_df44d9b984641a4e437e11207d58634Qw4VhX3dWB9u3LKe[] = {
/* columns rows colors chars-per-pixel */
"64 64 247 2 ",
"   c None",
".  c #BC0000",
"X  c #BD0909",
"o  c #BD0D0D",
"O  c #BD1B1B",
"+  c #BE2121",
"@  c #BE2222",
"#  c #BE2424",
"$  c #BE2929",
"%  c #BF2E2E",
"&  c #BF3232",
"*  c #BF3434",
"=  c #C03636",
"-  c #C03B3B",
";  c #C24848",
":  c #C24949",
">  c #C24B4B",
",  c #C34F4F",
"<  c #C35252",
"1  c #C45757",
"2  c #C45858",
"3  c #C45959",
"4  c #C55B5B",
"5  c #C55D5D",
"6  c #C66464",
"7  c #C76565",
"8  c #C76767",
"9  c #C86969",
"0  c #C86A6A",
"q  c #C86B6B",
"w  c #C86C6C",
"e  c #C96D6D",
"r  c #CA7272",
"t  c #CA7474",
"y  c #CB7979",
"u  c #CC7B7B",
"i  c #CD7E7E",
"p  c #27BA00",
"a  c #27BB00",
"s  c #27BC00",
"d  c #28BC00",
"f  c #28BD00",
"g  c #28BE00",
"h  c #28BF00",
"j  c #2DBB12",
"k  c #4ABE3E",
"l  c #28C000",
"z  c #29C100",
"x  c #29C200",
"c  c #29C300",
"v  c #29C400",
"b  c #29C500",
"n  c #2AC500",
"m  c #2AC600",
"M  c #2BCD00",
"N  c #2DD300",
"B  c #2ED900",
"V  c #2FDF00",
"C  c #31EA00",
"Z  c #33F000",
"A  c #34F500",
"S  c #35FA00",
"D  c #36FF00",
"F  c #52FF3E",
"G  c #60C258",
"H  c #62C35B",
"J  c #65FF58",
"K  c #72C76D",
"L  c #7FCA7A",
"P  c #75FF6B",
"I  c #80CA7C",
"U  c #82CB7E",
"Y  c #82FF7A",
"T  c #84FF7C",
"R  c #CD8181",
"E  c #CE8282",
"W  c #CE8484",
"Q  c #CF8686",
"!  c #D08989",
"~  c #D08B8B",
"^  c #D18E8E",
"/  c #D18F8F",
"(  c #D29191",
")  c #D39292",
"_  c #D39494",
"`  c #D39595",
"'  c #D49797",
"]  c #D49898",
"[  c #D59999",
"{  c #D59B9B",
"}  c #D69B9B",
"|  c #D69D9D",
" . c #D79F9F",
".. c #D7A0A0",
"X. c #D8A1A1",
"o. c #D8A2A2",
"O. c #D8A3A3",
"+. c #D9A7A7",
"@. c #DAA7A7",
"#. c #DAA8A8",
"$. c #DAA9A9",
"%. c #DAAAAA",
"&. c #DBABAB",
"*. c #DBACAC",
"=. c #DBADAD",
"-. c #DCAFAF",
";. c #DDAFAF",
":. c #DDB0B0",
">. c #DDB1B1",
",. c #DDB2B2",
"<. c #DEB3B3",
"1. c #DFB7B7",
"2. c #DFB8B8",
"3. c #E0B8B8",
"4. c #E0BABA",
"5. c #E1BBBB",
"6. c #E1BCBC",
"7. c #E2BDBD",
"8. c #E2BFBF",
"9. c #E3BFBF",
"0. c #8DCE89",
"q. c #8ECF8A",
"w. c #98D295",
"e. c #99D296",
"r. c #A2D59F",
"t. c #8EFF87",
"y. c #99FF93",
"u. c #9AFF95",
"i. c #A3FF9E",
"p. c #A4FF9F",
"a. c #A3D6A0",
"s. c #ABD9A9",
"d. c #ACD9AA",
"f. c #ADDAAB",
"g. c #B5DDB3",
"h. c #B6DDB4",
"j. c #ACFFA8",
"k. c #AEFFAA",
"l. c #BDE0BC",
"z. c #BEE0BC",
"x. c #B7FFB3",
"c. c #BEFFBB",
"v. c #E3C0C0",
"b. c #E3C1C1",
"n. c #E3C2C2",
"m. c #E4C3C3",
"M. c #E5C4C4",
"N. c #E5C5C5",
"B. c #E5C6C6",
"V. c #E6C6C6",
"C. c #E6C8C8",
"Z. c #E6C9C9",
"A. c #E7C9C9",
"S. c #E7CBCB",
"D. c #E8CCCC",
"F. c #E8CDCD",
"G. c #E9CFCF",
"H. c #E9D0D0",
"J. c #E9D1D1",
"K. c #EAD1D1",
"L. c #EAD2D2",
"P. c #EAD3D3",
"I. c #EBD3D3",
"U. c #EBD4D4",
"Y. c #EBD5D5",
"T. c #ECD5D5",
"R. c #ECD6D6",
"E. c #ECD7D7",
"W. c #EDD8D8",
"Q. c #EDD9D9",
"!. c #EDDADA",
"~. c #EEDADA",
"^. c #EEDBDB",
"/. c #EEDCDC",
"(. c #EFDCDC",
"). c #EFDDDD",
"_. c #EFDEDE",
"`. c #F0DEDE",
"'. c #F0DFDF",
"]. c #C5E3C3",
"[. c #C6E4C4",
"{. c #CCE7CB",
"}. c #C6FFC3",
"|. c #CCFFCA",
" X c #CDFFCB",
".X c #CEFFCC",
"XX c #D4EAD3",
"oX c #D5EAD4",
"OX c #DBEDDA",
"+X c #DCEEDB",
"@X c #D4FFD2",
"#X c #D5FFD3",
"$X c #DBFFD9",
"%X c #DCFFDA",
"&X c #E0E7E0",
"*X c #F1E1E1",
"=X c #F1E2E2",
"-X c #F2E3E3",
";X c #F2E4E4",
":X c #F3E6E6",
">X c #F4E7E7",
",X c #F4E8E8",
"<X c #F4E9E9",
"1X c #F5E9E9",
"2X c #F6EBEB",
"3X c #F6ECEC",
"4X c #F6EDED",
"5X c #F7EDED",
"6X c #F7EEEE",
"7X c #F7EFEF",
"8X c #E1F0E1",
"9X c #E2F1E1",
"0X c #E7F3E7",
"qX c #E7F7E7",
"wX c #E8F7E7",
"eX c #E1FFE0",
"rX c #E2FFE1",
"tX c #E7FFE6",
"yX c #E8FFE7",
"uX c #E8F4E8",
"iX c #E9FFE8",
"pX c #ECFFEB",
"aX c #EFFFEE",
"sX c #F8F0F0",
"dX c #F8F1F1",
"fX c #F9F2F2",
"gX c #F9F3F3",
"hX c #FAF4F4",
"jX c #FAF5F5",
"kX c #FAF6F6",
"lX c #FBF6F6",
"zX c #F2FFF2",
"xX c #F3FFF3",
"cX c #F4FFF4",
"vX c #F6FFF6",
"bX c #FCF8F8",
"nX c #FCF9F9",
"mX c #FCFAFA",
"MX c #FDFBFB",
"NX c #FAFFF9",
"BX c #FDFCFC",
"VX c #FEFCFC",
"CX c #FEFDFD",
"ZX c #FEFEFE",
"AX c #FFFEFE",
"SX c #FEFFFE",
"DX c white",
/* pixels */
"                                                    8XOXz.g.q.q.q.q.e.z.].8X0X                                                  ",
"                                            OXg.I p p p p p p p p p p p p p p k e.].0X                                          ",
"                                        XXK p p p x m m m m m m m m m m m m x d p p p r.0X                                      ",
"                                    d.p p p x m m m m m m m m m m m m m m m m m m x d p p H {.                                  ",
"                                XXH p d m m m m m M C D D D D D D D D D D S V m m m m m x p p r.0X                              ",
"                            XXK p d m m m M C D D D D D D D D D D D D D D D D D D S V m m m x p p r.0X                          ",
"                          [.p p x m m M Z D D D D T .XDXDXDXDXDXDXDXDXDXDX.XT D D D D D V m m m d p p 0X                        ",
"                        a.p d m m M Z D D D T iXDXDXDXDXDXDXDXDXDXDXDXDXDXDXDXDXiXT D D D D V m m x p p {.                      ",
"                      e.p x m m N D D D k.DXDXDXDXDXDXDXDXDXDXDXDXDXDXDXDXDXDXDXDXDXDXk.D D D A m m m d p {.                    ",
"                  &XH p x m M Z D D k.DXDXDXDXDXDXDXDXDXDXDXDXDXDXDXDXDXDXDXDXDXDXDXDXDXDXk.D D D V m m d p s.                  ",
"                  q.p x m M A D T iXDXDXDXDXDXDXDXDXDXDXDXDXDXDXDXDXDXDXDXDXDXDXDXDXDXDXDXDXiXT D D V m m d p {.                ",
"                e.p x m N D D k.DXDXDXDXDXDXDXDXDXDXDXDXDXDXDXDXDXDXDXDXDXDXDXDXDXDXDXDXDXDXDXDXk.D D A m m d p {.              ",
"              z.p x m N D D k.DXDXDXDXDXDXDXDXDXDXDXDXDXDXDXDXDXDXDXDXDXDXDXDXDXDXDXDXDXDXDXDXDXDXk.D D A m m d p 0X            ",
"            [.p d m M A D k.DXDXDXDXDXDXDXDXDXDXDXDXDXDXDXDXDXDXDXDXDXDXDXDXDXDXDXDXDXDXDXDXDXDXDXDXk.D D V m m p p 0X          ",
"          uXp d m M A D k.DXDXDXDXDXDXDXDXDXDXDXDXDXDXDXDXDXDXDXDXDXDXDXDXDXDXDXDXDXDXDXDXDXDXDXDXDXDXk.D D V m x p L           ",
"          h.p x m B D k.DXDXDXDXDXDXDXDXDXDXDXDXDXDXDXDXDXDXDXDXDXDXDXDXDXDXDXDXDXDXDXDXDXDXDXDXDXDXDXDXk.D D m m d p 0X        ",
"        uXp d m N D T DXDXDXDXDXDXDXDXDXDXDXDXDXDXDXDXDXDXDXDXDXDXDXDXDXDXDXDXDXDXDXDXDXDXDXDXDXDXDXDXDXDXT D A m m p L         ",
"        q.d m M A D #XDXDXDXDXDXDXDXDXDXDXDXDXDXDXDXDXbXhXhXfXfXfXfXhXhXbXDXDXDXDXDXDXDXDXDXDXDXDXDXDXDXDX#XD D V m x p {.      ",
"      +Xp d m B D k.DXDXDXDXDXDXDXDXDXDXDXDXDXDXDXbXfX5X-X`.^.^.^.(.`.,X5XhXbXDXDXDXDXDXDXDXDXDXDXDXDXDXDXDXk.D D m m p p       ",
"      d.d m M A D cXDXDXDXDXDXDXDXDXDXDXDXDXDXbXfX,X^.L.A.8.:.:.:.3.M.D.R.-X5XhXDXDXDXDXDXDXDXDXDXDXDXDXDXDXcXD D V m x p 0X    ",
"    uXp d m B D k.DXDXDXDXDXDXDXDXDXDXDXDXDXbX5X-XL.n.@.` R 0 7 7 y / | 2.D.(.,XhXDXDXDXDXDXDXDXDXDXDXDXDXDXDXk.D D m m p L     ",
"    h.p x M A D cXDXDXDXDXDXDXDXDXDXDXDXDXbX5X(.A.$.Q < o . . . . . . - t } n.R.>XhXDXDXDXDXDXDXDXDXDXDXDXDXDXcXD D V m d p 0X  ",
"  &Xj d m N D T DXDXDXDXDXDXDXDXDXDXDXDXbX5X(.n.@.r @ . . . . . . . . . . 4 } 2.L.>XhXDXDXDXDXDXDXDXDXDXDXDXDXDXT D A m x p s.  ",
"  8Xp d m B D #XDXDXDXDXDXDXDXDXDXDXDXDXfX-XD.$.r . . . . . . . . . . . . . < ' n.^.5XbXDXDXDXDXDXDXDXDXDXDXDXDX#XD D m m p p   ",
"  oXp x m V D NXDXDXDXDXDXDXDXDXDXDXDXbX,XY.*.r . . . . . . . . . . . . . . . < } A.-XhXDXDXDXDXDXDXDXDXDXDXDXDXNXD D m m d p   ",
"  d.d m M A T DXDXDXDXDXDXDXDXDXDXDXDXfX(.n.! % . . . . . . . . . . . . . . . . w :.L.,XbXDXDXDXDXDXDXDXDXDXDXDXDXT D V m x p zX",
"  I d m N D x.DXDXDXDXDXDXDXDXDXDXDXbX5XR.$.4 . . . . . . . . . . . . . . . . . # ) A.;XhXDXDXDXDXDXDXDXDXDXDXDXDXx.D A m m p {.",
"cXj d m B D %XDXDXDXDXDXDXDXDXDXDXDXhX;XD.} = . . . . . . . . . . . . . . . . . . i 8.^.fXDXDXDXDXDXDXDXDXDXDXDXDX%XD D m m p s.",
"zXp d m B D rXDXDXDXDXDXDXDXDXDXDXDXhX;Xm.! . . . . . . . . . . . . . . . . . . . 7 :.^.fXDXDXDXDXDXDXDXDXDXDXDXDXrXD D m m p L ",
"aXp d m V D NXDXDXDXDXDXDXDXDXDXDXDXfX(.2.t . . . . . . . . . . . . . . . . . . . ; o.L.,XbXDXDXDXDXDXDXDXDXDXDXDXNXD D m m p p ",
"pXp d m V D DXDXDXDXDXDXDXDXDXDXDXDXfX(.1.r . . . . . . . . . . . . . . . . . . . ; o.L.,XbXDXDXDXDXDXDXDXDXDXDXDXDXD D m m p p ",
"pXp d m V D DXDXDXDXDXDXDXDXDXDXDXDXfX(.1.r . . . . . . . . . . . . . . . . . . . ; o.L.,XbXDXDXDXDXDXDXDXDXDXDXDXDXD D m m p p ",
"pXp d m V D DXDXDXDXDXDXDXDXDXDXDXDXhX;Xn.Q . . . . . . . . . . . . . . . . . . . 7 -.^.fXDXDXDXDXDXDXDXDXDXDXDXDXDXD D m m p p ",
"pXp d m V D DXDXDXDXDXDXDXDXDXDXDXDXhX;XA.} * . . . . . . . . . . . . . . . . . . u 3.^.fXDXDXDXDXDXDXDXDXDXDXDXDXDXD D m m p p ",
"aXp d m B D yXDXDXDXDXDXDXDXDXDXDXDXbX5XR.$.1 . . . . . . . . . . . . . . . . . @ / M.;XhXDXDXDXDXDXDXDXDXDXDXDXDXyXD D m m p p ",
"zXp d m B D rXDXDXDXDXDXDXDXDXDXDXDXDXfX(.8.Q $ . . . . . . . . . . . . . . . . 7 *.L.,XbXDXDXDXDXDXDXDXDXDXDXDXDXrXD D m m p L ",
"cXj d m N D }.DXDXDXDXDXDXDXDXDXDXDXDXbX,XY.@.0 . . . . . . . . . . . . . . . ; ) M.-XhXDXDXDXDXDXDXDXDXDXDXDXDXDX}.D A m m p s.",
"  I d m M A u.DXDXDXDXDXDXDXDXDXDXDXDXDXfX-XA.o.0 . . . . . . . . . . . . . ; / 8.^.5XbXDXDXDXDXDXDXDXDXDXDXDXDXDXu.D V m m p {.",
"  d.p m m V F DXDXDXDXDXDXDXDXDXDXDXDXDXbX5X(.8...0 O . . . . . . . . . . , / :.L.>XhXDXDXDXDXDXDXDXDXDXDXDXDXDXDXF D m m x p 0X",
"  oXp x m B D yXDXDXDXDXDXDXDXDXDXDXDXDXDXbX5X^.A.o.u ; X . . . . . . & 0 ) 8.L.>XhXDXDXDXDXDXDXDXDXDXDXDXDXDXDXyXD D m m p p   ",
"  wXp d m N D p.DXDXDXDXDXDXDXDXDXDXDXDXDXDXbX5X-XL.3.| ! t 5 4 4 w R ` -.A.(.,XhXDXDXDXDXDXDXDXDXDXDXDXDXDXDXDXp.D A m m p p   ",
"  cXj p m M A F DXDXDXDXDXDXDXDXDXDXDXDXDXDXDXbXfX,X^.D.M.3.$.@.@.:.8.A.R.-X5XhXDXDXDXDXDXDXDXDXDXDXDXDXDXDXDXDXF D V m x p s.  ",
"    h.p d m B D  XDXDXDXDXDXDXDXDXDXDXDXDXDXDXDXDXbXfX5X-X(.^.R.R.(.`.,X5XhXbXDXDXDXDXDXDXDXDXDXDXDXDXDXDXDXDX XD D m m p p 0X  ",
"    zXp d m M A J DXDXDXDXDXDXDXDXDXDXDXDXDXDXDXDXDXDXbXfXhXfXfXfXfXhXhXbXDXDXDXDXDXDXDXDXDXDXDXDXDXDXDXDXDXDXJ D V m m p L     ",
"      d.p x m B D  XDXDXDXDXDXDXDXDXDXDXDXDXDXDXDXDXDXDXDXDXDXDXDXDXDXDXDXDXDXDXDXDXDXDXDXDXDXDXDXDXDXDXDXDX XD D m m d p 0X    ",
"      +Xp d m M A J zXDXDXDXDXDXDXDXDXDXDXDXDXDXDXDXDXDXDXDXDXDXDXDXDXDXDXDXDXDXDXDXDXDXDXDXDXDXDXDXDXDXDXzXJ D V m m p p       ",
"        q.p x m N D p.DXDXDXDXDXDXDXDXDXDXDXDXDXDXDXDXDXDXDXDXDXDXDXDXDXDXDXDXDXDXDXDXDXDXDXDXDXDXDXDXDXDXp.D A m m d p {.      ",
"        zXp s m m B F #XDXDXDXDXDXDXDXDXDXDXDXDXDXDXDXDXDXDXDXDXDXDXDXDXDXDXDXDXDXDXDXDXDXDXDXDXDXDXDXDX#XF D m m x p L         ",
"          h.p d m M A J $XDXDXDXDXDXDXDXDXDXDXDXDXDXDXDXDXDXDXDXDXDXDXDXDXDXDXDXDXDXDXDXDXDXDXDXDXDXDX$XJ D V m m p p 0X        ",
"          zXp p x m M A J $XDXDXDXDXDXDXDXDXDXDXDXDXDXDXDXDXDXDXDXDXDXDXDXDXDXDXDXDXDXDXDXDXDXDXDXDX$XJ D V m m d p L           ",
"            [.p s m m N D J $XDXDXDXDXDXDXDXDXDXDXDXDXDXDXDXDXDXDXDXDXDXDXDXDXDXDXDXDXDXDXDXDXDXDX$XJ D A m m x p p 0X          ",
"              z.p d m m N D J $XDXDXDXDXDXDXDXDXDXDXDXDXDXDXDXDXDXDXDXDXDXDXDXDXDXDXDXDXDXDXDXDX$XJ D A m m x p p 0X            ",
"                e.p d m m M A J c.DXDXDXDXDXDXDXDXDXDXDXDXDXDXDXDXDXDXDXDXDXDXDXDXDXDXDXDXDXDXc.J D V m m x p p {.              ",
"                  q.p d m m M Z F Y rXDXDXDXDXDXDXDXDXDXDXDXDXDXDXDXDXDXDXDXDXDXDXDXDXDXDXrXY F D V m m x p p {.                ",
"                  cXH p d m m m N D J y.tXDXDXDXDXDXDXDXDXDXDXDXDXDXDXDXDXDXDXDXDXDXDXtXy.J D A m m m x p p s.                  ",
"                      e.p s x m m M Z D J y. XDXDXDXDXDXDXDXDXDXDXDXDXDXDXDXDXDXDX Xy.J D D V m m m d p p {.                    ",
"                        a.p p d m m m M Z D F Y i. XDXDXDXDXDXDXDXDXDXDXDXDX Xi.Y F D D V m m m x d p p {.                      ",
"                          [.p p s x m m m M C D D F P t.y.i.k.k.k.k.i.y.t.P F D D S V m m m m d p p p 0X                        ",
"                            XXK p p d x m m m m m M C D D D D D D D D D D S V m m m m m m d d p p r.0X                          ",
"                                XXH p p d d m m m m m m m m m m m m m m m m m m m m x d d p p r.0X                              ",
"                                    d.p p p p d x m m m m m m m m m m m m m m x d d p p p H {.                                  ",
"                                        XXK p p p p d d d d d d d d d d d d d p p p p r.0X                                      ",
"                                            OXg.I p p p p p p p p p p p p p p k e.].0X                                          ",
"                                                    qXOXz.g.q.q.q.q.e.z.].8X0X                                                  "
};
