/* XPM */
static char *_ae6c19ffaf3429eec097f1eb50841bf1qO8bjKz9xw1FpVb[] = {
/* columns rows colors chars-per-pixel */
"64 64 205 2 ",
"   c None",
".  c #BC0000",
"X  c #BD1414",
"o  c #BD1515",
"O  c #BE2A2A",
"+  c #BF2F2F",
"@  c #BF3131",
"#  c #BF3434",
"$  c #C14141",
"%  c #C24747",
"&  c #C55A5A",
"*  c #C55B5B",
"=  c #C55D5D",
"-  c #C55E5E",
";  c #C65F5F",
":  c #C66060",
">  c #C76464",
",  c #C76666",
"<  c #C86B6B",
"1  c #C96D6D",
"2  c #C97171",
"3  c #CA7373",
"4  c #CA7474",
"5  c #CC7A7A",
"6  c #CC7C7C",
"7  c #27BA00",
"8  c #27BB00",
"9  c #27BC00",
"0  c #28BC00",
"q  c #28BD00",
"w  c #28BE00",
"e  c #28BF00",
"r  c #2DBB12",
"t  c #4ABE3E",
"y  c #28C000",
"u  c #29C100",
"i  c #29C200",
"p  c #29C300",
"a  c #29C400",
"s  c #29C500",
"d  c #2AC500",
"f  c #2AC600",
"g  c #2BCD00",
"h  c #2DD300",
"j  c #2ED900",
"k  c #2FDF00",
"l  c #31EA00",
"z  c #33F000",
"x  c #34F500",
"c  c #35FA00",
"v  c #36FF00",
"b  c #52FF3E",
"n  c #60C258",
"m  c #62C35B",
"M  c #65FF58",
"N  c #72C76D",
"B  c #7FCA7A",
"V  c #75FF6B",
"C  c #80CA7C",
"Z  c #82CB7E",
"A  c #82FF7A",
"S  c #84FF7C",
"D  c #CE8282",
"F  c #CF8585",
"G  c #D08888",
"H  c #D08A8A",
"J  c #D18D8D",
"K  c #D39292",
"L  c #D39393",
"P  c #D39595",
"I  c #D49696",
"U  c #D59A9A",
"Y  c #D69C9C",
"T  c #D69E9E",
"R  c #D79E9E",
"E  c #D79F9F",
"W  c #D7A1A1",
"Q  c #D9A6A6",
"!  c #DAA8A8",
"~  c #DAA9A9",
"^  c #DBABAB",
"/  c #DCADAD",
"(  c #DCAFAF",
")  c #DCB0B0",
"_  c #DEB4B4",
"`  c #DFB5B5",
"'  c #DFB6B6",
"]  c #DFB7B7",
"[  c #DFB8B8",
"{  c #E0B7B7",
"}  c #E0B8B8",
"|  c #E1BBBB",
" . c #E1BCBC",
".. c #E1BDBD",
"X. c #E2BDBD",
"o. c #E2BEBE",
"O. c #E2BFBF",
"+. c #8DCE89",
"@. c #8ECF8A",
"#. c #98D295",
"$. c #99D296",
"%. c #A2D59F",
"&. c #8EFF87",
"*. c #99FF93",
"=. c #9AFF95",
"-. c #A3FF9E",
";. c #A4FF9F",
":. c #A3D6A0",
">. c #ABD9A9",
",. c #ACD9AA",
"<. c #ADDAAB",
"1. c #B5DDB3",
"2. c #B6DDB4",
"3. c #ACFFA8",
"4. c #AEFFAA",
"5. c #BDE0BC",
"6. c #BEE0BC",
"7. c #B7FFB3",
"8. c #BEFFBB",
"9. c #E3C0C0",
"0. c #E3C2C2",
"q. c #E4C4C4",
"w. c #E5C4C4",
"e. c #E5C6C6",
"r. c #E7CACA",
"t. c #E7CBCB",
"y. c #E7CCCC",
"u. c #E9CFCF",
"i. c #EAD1D1",
"p. c #EAD2D2",
"a. c #EAD3D3",
"s. c #EBD3D3",
"d. c #EBD4D4",
"f. c #ECD6D6",
"g. c #EEDADA",
"h. c #EFDDDD",
"j. c #F0DEDE",
"k. c #F0DFDF",
"l. c #C5E3C3",
"z. c #C6E4C4",
"x. c #CCE7CB",
"c. c #C6FFC3",
"v. c #CCFFCA",
"b. c #CDFFCB",
"n. c #CEFFCC",
"m. c #D4EAD3",
"M. c #D5EAD4",
"N. c #DBEDDA",
"B. c #DCEEDB",
"V. c #D4FFD2",
"C. c #D5FFD3",
"Z. c #DBFFD9",
"A. c #DCFFDA",
"S. c #E0E7E0",
"D. c #F0E0E0",
"F. c #F1E1E1",
"G. c #F1E2E2",
"H. c #F2E3E3",
"J. c #F3E5E5",
"K. c #F4E9E9",
"L. c #F5E9E9",
"P. c #F5EAEA",
"I. c #F6EBEB",
"U. c #F6ECEC",
"Y. c #F7EDED",
"T. c #F7EFEF",
"R. c #E1F0E1",
"E. c #E2F1E1",
"W. c #E7F3E7",
"Q. c #E7F7E7",
"!. c #E8F7E7",
"~. c #E1FFE0",
"^. c #E2FFE1",
"/. c #E7FFE6",
"(. c #E8FFE7",
"). c #E8F4E8",
"_. c #E9FFE8",
"`. c #ECFFEB",
"'. c #EFFFEE",
"]. c #F8F0F0",
"[. c #F8F1F1",
"{. c #F9F2F2",
"}. c #F9F3F3",
"|. c #F9F4F4",
" X c #FAF5F5",
".X c #FAF6F6",
"XX c #FBF6F6",
"oX c #FBF7F7",
"OX c #F2FFF2",
"+X c #F3FFF3",
"@X c #F4FFF4",
"#X c #F6FFF6",
"$X c #FBF8F8",
"%X c #FCF8F8",
"&X c #FCF9F9",
"*X c #FDFAFA",
"=X c #FDFBFB",
"-X c #FAFFF9",
";X c #FDFCFC",
":X c #FEFCFC",
">X c #FEFDFD",
",X c #FEFEFE",
"<X c #FFFEFE",
"1X c #FEFFFE",
"2X c white",
/* pixels */
"                                                    R.N.6.1.@.@.@.@.$.6.l.R.W.                                                  ",
"                                            N.1.C 7 7 7 7 7 7 7 7 7 7 7 7 7 7 t $.l.W.                                          ",
"                                        m.N 7 7 7 i f f f f f f f f f f f f i 0 7 7 7 %.W.                                      ",
"                                    ,.7 7 7 i f f f f f f f f f f f f f f f f f f i 0 7 7 m x.                                  ",
"                                m.m 7 0 f f f f f g l v v v v v v v v v v c k f f f f f i 7 7 %.W.                              ",
"                            m.N 7 0 f f f g l v v v v v v v v v v v v v v v v v v c k f f f i 7 7 %.W.                          ",
"                          z.7 7 i f f g z v v v v S n.2X2X2X2X2X2X2X2X2X2Xn.S v v v v v k f f f 0 7 7 W.                        ",
"                        :.7 0 f f g z v v v S _.2X2X2X2X2X2X2X2X2X2X2X2X2X2X2X2X_.S v v v v k f f i 7 7 x.                      ",
"                      $.7 i f f h v v v 4.2X2X2X2X2X2X2X2X2X2X2X2X2X2X2X2X2X2X2X2X2X2X4.v v v x f f f 0 7 x.                    ",
"                  S.m 7 i f g z v v 4.2X2X2X2X2X2X2X2X2X2X2X2X2X2X2X2X2X2X2X2X2X2X2X2X2X2X4.v v v k f f 0 7 >.                  ",
"                  @.7 i f g x v S _.2X2X2X2X2X2X2X2X2X2X2X2X2X2X2X2X2X2X2X2X2X2X2X2X2X2X2X2X_.S v v k f f 0 7 x.                ",
"                $.7 i f h v v 4.2X2X2X2X2X2X2X2X2X2X2X2X2X2X2X2X2X2X2X2X2X2X2X2X2X2X2X2X2X2X2X2X4.v v x f f 0 7 x.              ",
"              6.7 i f h v v 4.2X2X2X2X2X2X2X2X2X2X2X2X2X2X2X2X2X2X2X2X2X2X2X2X2X2X2X2X2X2X2X2X2X2X4.v v x f f 0 7 W.            ",
"            z.7 0 f g x v 4.2X2X2X2X2X2X2X2X2X2X2X2X2X2X2X2X2X2X2X2X2X2X2X2X2X2X2X2X2X2X2X2X2X2X2X2X4.v v k f f 7 7 W.          ",
"          ).7 0 f g x v 4.2X2X2X2X2X2X2X2X2X2X2X2X2X2X2X2X2X2X2X2X2X2X2X2X2X2X2X2X2X2X2X2X2X2X2X2X2X2X4.v v k f i 7 B           ",
"          2.7 i f j v 4.2X2X2X2X2X2X2X2X2X2X2X2X2X2X2X2X2X2X2X2X2X2X2X2X2X2X2X2X2X2X2X2X2X2X2X2X2X2X2X2X4.v v f f 0 7 W.        ",
"        ).7 0 f h v S 2X2X2X2X2X2X2X2X2X2X2X2X2X2X2X2X2X2X2X2X2X2X2X2X2X2X2X2X2X2X2X2X2X2X2X2X2X2X2X2X2X2XS v x f f 7 B         ",
"        @.0 f g x v C.2X2X2X2X2X2X2X2X2X2X2X2X2X2X2X2X2X2X2X2X2X2X2X2X2X2X2X2X2X2X2X2X2X2X2X2X2X2X2X2X2X2XC.v v k f i 7 x.      ",
"      B.7 0 f j v 4.2X2X2X2X2X2X2X2X2X2X2X2X2X2X2X2X2X2X2X2X2X2X2X2X2X2X2X2X2X2X2X2X2X2X2X2X2X2X2X2X2X2X2X2X4.v v f f 7 7       ",
"      ,.0 f g x v @X2X2X2X2X2X2X2X2X2X2X2X2X2X2X2X2X2X2X2X2X2X2X2X2X2X2X2X2X2X2X2X2X2X2X2X2X2X2X2X2X2X2X2X2X@Xv v k f i 7 W.    ",
"    ).7 0 f j v 4.2X2X2X2X2X2X2X2X2X2X2X2X2X2X2X2X2X2X*X*X X[.[.[.[. X*X2X2X2X2X2X2X2X2X2X2X2X2X2X2X2X2X2X2X2X4.v v f f 7 B     ",
"    2.7 i g x v @X2X2X2X2X2X2X2X2X2X2X2X2X2X2X2X2X*X XU.J.h.d.a.a.g.H.L.[.*X2X2X2X2X2X2X2X2X2X2X2X2X2X2X2X2X2X@Xv v k f 0 7 W.  ",
"  S.r 0 f h v S 2X2X2X2X2X2X2X2X2X2X2X2X2X2X2X2X*X[.H.a.O.( T U U ! | r.h.L.$X2X2X2X2X2X2X2X2X2X2X2X2X2X2X2X2X2XS v x f i 7 >.  ",
"  R.7 0 f j v C.2X2X2X2X2X2X2X2X2X2X2X2X2X2X2X*X[.h.0.W 3 % . . . + : L ' a.L. X2X2X2X2X2X2X2X2X2X2X2X2X2X2X2X2XC.v v f f 7 7   ",
"  M.7 i f k v -X2X2X2X2X2X2X2X2X2X2X2X2X2X2X*X[.h.O.F # . . . . . . . . < ! a.L.$X2X2X2X2X2X2X2X2X2X2X2X2X2X2X2X-Xv v f f 0 7   ",
"  ,.0 f g x S 2X2X2X2X2X2X2X2X2X2X2X2X2X2X2X XH.O.F . . . . . . . . . . . , ! f.U.*X2X2X2X2X2X2X2X2X2X2X2X2X2X2X2XS v k f i 7 OX",
"  C 0 f h v 7.2X2X2X2X2X2X2X2X2X2X2X2X2X2X*XL.u.P o . . . . . . . . . . . . 4 O.H. X2X2X2X2X2X2X2X2X2X2X2X2X2X2X2X7.v x f f 7 x.",
"@Xr 0 f j v A.2X2X2X2X2X2X2X2X2X2X2X2X2X2X Xk.{ - . . . . . . . . . . . . . . T a.U.2X2X2X2X2X2X2X2X2X2X2X2X2X2X2XA.v v f f 7 >.",
"OX7 0 f j v ^.2X2X2X2X2X2X2X2X2X2X2X2X2X2X[.f.T . . . . . . . . . . . . . . . 6 e.L.*X2X2X2X2X2X2X2X2X2X2X2X2X2X2X^.v v f f 7 B ",
"'.7 0 f k v -X2X2X2X2X2X2X2X2X2X2X2X2X2X2XU.y.H . . . . . . . . . . . . . . . - [ H.$X2X2X2X2X2X2X2X2X2X2X2X2X2X2X-Xv v f f 7 7 ",
"`.7 0 f k v 2X2X2X2X2X2X2X2X2X2X2X2X2X2X*XL.e.6 . . . . . . . . . . . . . . . % ) k. X2X2X2X2X2X2X2X2X2X2X2X2X2X2X2Xv v f f 7 7 ",
"`.7 0 f k v 2X2X2X2X2X2X2X2X2X2X2X2X2X2X*XL.e.6 . . . . . . . . . . . . . . . % ) k. X2X2X2X2X2X2X2X2X2X2X2X2X2X2X2Xv v f f 7 7 ",
"`.7 0 f k v 2X2X2X2X2X2X2X2X2X2X2X2X2X2X2XU.y.H . . . . . . . . . . . . . . . & ' H.$X2X2X2X2X2X2X2X2X2X2X2X2X2X2X2Xv v f f 7 7 ",
"`.7 0 f k v 2X2X2X2X2X2X2X2X2X2X2X2X2X2X2X[.f.T . . . . . . . . . . . . . . . 5 e.L.*X2X2X2X2X2X2X2X2X2X2X2X2X2X2X2Xv v f f 7 7 ",
"'.7 0 f j v (.2X2X2X2X2X2X2X2X2X2X2X2X2X2X Xk.' & . . . . . . . . . . . . . . T a.U.2X2X2X2X2X2X2X2X2X2X2X2X2X2X2X(.v v f f 7 7 ",
"OX7 0 f j v ^.2X2X2X2X2X2X2X2X2X2X2X2X2X2X*XL.u.L o . . . . . . . . . . . . 3 O.H. X2X2X2X2X2X2X2X2X2X2X2X2X2X2X2X^.v v f f 7 B ",
"@Xr 0 f h v c.2X2X2X2X2X2X2X2X2X2X2X2X2X2X2X XH.O.D . . . . . . . . . . . - ! f.U.*X2X2X2X2X2X2X2X2X2X2X2X2X2X2X2Xc.v x f f 7 >.",
"  C 0 f g x =.2X2X2X2X2X2X2X2X2X2X2X2X2X2X2X*X[.h.| D @ . . . . . . . . , ! a.L.$X2X2X2X2X2X2X2X2X2X2X2X2X2X2X2X2X=.v k f f 7 x.",
"  ,.7 f f k b 2X2X2X2X2X2X2X2X2X2X2X2X2X2X2X2X*X[.h.0.T 1 $ . . . O & J ' a.L. X2X2X2X2X2X2X2X2X2X2X2X2X2X2X2X2X2Xb v f f i 7 W.",
"  M.7 i f j v (.2X2X2X2X2X2X2X2X2X2X2X2X2X2X2X2X*X[.H.a.O.( U I I Q ' r.h.L.$X2X2X2X2X2X2X2X2X2X2X2X2X2X2X2X2X2X(.v v f f 7 7   ",
"  !.7 0 f h v ;.2X2X2X2X2X2X2X2X2X2X2X2X2X2X2X2X2X*X XU.J.h.d.a.a.g.H.L.[.*X2X2X2X2X2X2X2X2X2X2X2X2X2X2X2X2X2X2X;.v x f f 7 7   ",
"  @Xr 7 f g x b 2X2X2X2X2X2X2X2X2X2X2X2X2X2X2X2X2X2X2X*X*X X[.[.[.[. X*X2X2X2X2X2X2X2X2X2X2X2X2X2X2X2X2X2X2X2X2Xb v k f i 7 >.  ",
"    2.7 0 f j v b.2X2X2X2X2X2X2X2X2X2X2X2X2X2X2X2X2X2X2X2X2X2X2X2X2X2X2X2X2X2X2X2X2X2X2X2X2X2X2X2X2X2X2X2X2X2Xb.v v f f 7 7 W.  ",
"    OX7 0 f g x M 2X2X2X2X2X2X2X2X2X2X2X2X2X2X2X2X2X2X2X2X2X2X2X2X2X2X2X2X2X2X2X2X2X2X2X2X2X2X2X2X2X2X2X2X2X2XM v k f f 7 B     ",
"      ,.7 i f j v b.2X2X2X2X2X2X2X2X2X2X2X2X2X2X2X2X2X2X2X2X2X2X2X2X2X2X2X2X2X2X2X2X2X2X2X2X2X2X2X2X2X2X2X2Xb.v v f f 0 7 W.    ",
"      B.7 0 f g x M OX2X2X2X2X2X2X2X2X2X2X2X2X2X2X2X2X2X2X2X2X2X2X2X2X2X2X2X2X2X2X2X2X2X2X2X2X2X2X2X2X2X2XOXM v k f f 7 7       ",
"        @.7 i f h v ;.2X2X2X2X2X2X2X2X2X2X2X2X2X2X2X2X2X2X2X2X2X2X2X2X2X2X2X2X2X2X2X2X2X2X2X2X2X2X2X2X2X2X;.v x f f 0 7 x.      ",
"        OX7 9 f f j b C.2X2X2X2X2X2X2X2X2X2X2X2X2X2X2X2X2X2X2X2X2X2X2X2X2X2X2X2X2X2X2X2X2X2X2X2X2X2X2X2XC.b v f f i 7 B         ",
"          2.7 0 f g x M Z.2X2X2X2X2X2X2X2X2X2X2X2X2X2X2X2X2X2X2X2X2X2X2X2X2X2X2X2X2X2X2X2X2X2X2X2X2X2XZ.M v k f f 7 7 W.        ",
"          OX7 7 i f g x M Z.2X2X2X2X2X2X2X2X2X2X2X2X2X2X2X2X2X2X2X2X2X2X2X2X2X2X2X2X2X2X2X2X2X2X2X2XZ.M v k f f 0 7 B           ",
"            z.7 9 f f h v M Z.2X2X2X2X2X2X2X2X2X2X2X2X2X2X2X2X2X2X2X2X2X2X2X2X2X2X2X2X2X2X2X2X2X2XZ.M v x f f i 7 7 W.          ",
"              6.7 0 f f h v M Z.2X2X2X2X2X2X2X2X2X2X2X2X2X2X2X2X2X2X2X2X2X2X2X2X2X2X2X2X2X2X2X2XZ.M v x f f i 7 7 W.            ",
"                $.7 0 f f g x M 8.2X2X2X2X2X2X2X2X2X2X2X2X2X2X2X2X2X2X2X2X2X2X2X2X2X2X2X2X2X2X8.M v k f f i 7 7 x.              ",
"                  @.7 0 f f g z b A ^.2X2X2X2X2X2X2X2X2X2X2X2X2X2X2X2X2X2X2X2X2X2X2X2X2X2X^.A b v k f f i 7 7 x.                ",
"                  @Xm 7 0 f f f h v M *./.2X2X2X2X2X2X2X2X2X2X2X2X2X2X2X2X2X2X2X2X2X2X/.*.M v x f f f i 7 7 >.                  ",
"                      $.7 9 i f f g z v M *.b.2X2X2X2X2X2X2X2X2X2X2X2X2X2X2X2X2X2Xb.*.M v v k f f f 0 7 7 x.                    ",
"                        :.7 7 0 f f f g z v b A -.b.2X2X2X2X2X2X2X2X2X2X2X2Xb.-.A b v v k f f f i 0 7 7 x.                      ",
"                          z.7 7 9 i f f f g l v v b V &.*.-.4.4.4.4.-.*.&.V b v v c k f f f f 0 7 7 7 W.                        ",
"                            m.N 7 7 0 i f f f f f g l v v v v v v v v v v c k f f f f f f 0 0 7 7 %.W.                          ",
"                                m.m 7 7 0 0 f f f f f f f f f f f f f f f f f f f f i 0 0 7 7 %.W.                              ",
"                                    ,.7 7 7 7 0 i f f f f f f f f f f f f f f i 0 0 7 7 7 m x.                                  ",
"                                        m.N 7 7 7 7 0 0 0 0 0 0 0 0 0 0 0 0 0 7 7 7 7 %.W.                                      ",
"                                            N.1.C 7 7 7 7 7 7 7 7 7 7 7 7 7 7 t $.l.W.                                          ",
"                                                    Q.N.6.1.@.@.@.@.$.6.l.R.W.                                                  "
};
