/* XPM */
static char *_01c01d4ada1403bbe5e1d3f42f19aa0cFV7zvsmKoLkrCVg[] = {
/* columns rows colors chars-per-pixel */
"64 64 157 2 ",
"   c None",
".  c #BC0000",
"X  c #BE2626",
"o  c #BE2727",
"O  c #C03F3F",
"+  c #C14040",
"@  c #C34E4E",
"#  c #C35050",
"$  c #C35151",
"%  c #C35252",
"&  c #C96F6F",
"*  c #CA7373",
"=  c #CB7575",
"-  c #27BA00",
";  c #27BB00",
":  c #27BC00",
">  c #28BC00",
",  c #28BD00",
"<  c #28BE00",
"1  c #28BF00",
"2  c #2DBB12",
"3  c #4ABE3E",
"4  c #28C000",
"5  c #29C100",
"6  c #29C200",
"7  c #29C300",
"8  c #29C400",
"9  c #29C500",
"0  c #2AC500",
"q  c #2AC600",
"w  c #2BCD00",
"e  c #2DD300",
"r  c #2ED900",
"t  c #2FDF00",
"y  c #31EA00",
"u  c #33F000",
"i  c #34F500",
"p  c #35FA00",
"a  c #36FF00",
"s  c #52FF3E",
"d  c #60C258",
"f  c #62C35B",
"g  c #65FF58",
"h  c #72C76D",
"j  c #7FCA7A",
"k  c #75FF6B",
"l  c #80CA7C",
"z  c #82CB7E",
"x  c #82FF7A",
"c  c #84FF7C",
"v  c #CF8585",
"b  c #CF8686",
"n  c #CF8787",
"m  c #D08888",
"M  c #D18C8C",
"N  c #D69D9D",
"B  c #D8A3A3",
"V  c #D8A4A4",
"C  c #D9A6A6",
"Z  c #D9A7A7",
"A  c #DAAAAA",
"S  c #DEB3B3",
"D  c #DEB4B4",
"F  c #E1BBBB",
"G  c #E2BFBF",
"H  c #8DCE89",
"J  c #8ECF8A",
"K  c #98D295",
"L  c #99D296",
"P  c #A2D59F",
"I  c #8EFF87",
"U  c #99FF93",
"Y  c #9AFF95",
"T  c #A3FF9E",
"R  c #A4FF9F",
"E  c #A3D6A0",
"W  c #ABD9A9",
"Q  c #ACD9AA",
"!  c #ADDAAB",
"~  c #B5DDB3",
"^  c #B6DDB4",
"/  c #ACFFA8",
"(  c #AEFFAA",
")  c #BDE0BC",
"_  c #BEE0BC",
"`  c #B7FFB3",
"'  c #BEFFBB",
"]  c #E4C2C2",
"[  c #E7CBCB",
"{  c #E8CECE",
"}  c #EAD1D1",
"|  c #ECD5D5",
" . c #ECD6D6",
".. c #EDD8D8",
"X. c #EEDADA",
"o. c #EEDBDB",
"O. c #F0DEDE",
"+. c #C5E3C3",
"@. c #C6E4C4",
"#. c #CCE7CB",
"$. c #C6FFC3",
"%. c #CCFFCA",
"&. c #CDFFCB",
"*. c #CEFFCC",
"=. c #D4EAD3",
"-. c #D5EAD4",
";. c #DBEDDA",
":. c #DCEEDB",
">. c #D4FFD2",
",. c #D5FFD3",
"<. c #DBFFD9",
"1. c #DCFFDA",
"2. c #E0E7E0",
"3. c #F1E1E1",
"4. c #F2E3E3",
"5. c #F2E4E4",
"6. c #F4E8E8",
"7. c #F5EBEB",
"8. c #F6ECEC",
"9. c #F6EDED",
"0. c #F7EEEE",
"q. c #E1F0E1",
"w. c #E2F1E1",
"e. c #E7F3E7",
"r. c #E7F7E7",
"t. c #E8F7E7",
"y. c #E1FFE0",
"u. c #E2FFE1",
"i. c #E7FFE6",
"p. c #E8FFE7",
"a. c #E8F4E8",
"s. c #E9FFE8",
"d. c #ECFFEB",
"f. c #EFFFEE",
"g. c #F8F1F1",
"h. c #F9F2F2",
"j. c #F9F3F3",
"k. c #FAF4F4",
"l. c #FBF6F6",
"z. c #FBF7F7",
"x. c #F2FFF2",
"c. c #F3FFF3",
"v. c #F4FFF4",
"b. c #F6FFF6",
"n. c #FBF8F8",
"m. c #FCF9F9",
"M. c #FCFAFA",
"N. c #FDFAFA",
"B. c #FDFBFB",
"V. c #FAFFF9",
"C. c #FDFCFC",
"Z. c #FEFCFC",
"A. c #FEFDFD",
"S. c #FEFEFE",
"D. c #FFFEFE",
"F. c #FEFFFE",
"G. c white",
/* pixels */
"                                                    q.;._ ~ J J J J L _ +.q.e.                                                  ",
"                                            ;.~ l - - - - - - - - - - - - - - 3 L +.e.                                          ",
"                                        =.h - - - 6 q q q q q q q q q q q q 6 > - - - P e.                                      ",
"                                    Q - - - 6 q q q q q q q q q q q q q q q q q q 6 > - - f #.                                  ",
"                                =.f - > q q q q q w y a a a a a a a a a a p t q q q q q 6 - - P e.                              ",
"                            =.h - > q q q w y a a a a a a a a a a a a a a a a a a p t q q q 6 - - P e.                          ",
"                          @.- - 6 q q w u a a a a c *.G.G.G.G.G.G.G.G.G.G.*.c a a a a a t q q q > - - e.                        ",
"                        E - > q q w u a a a c s.G.G.G.G.G.G.G.G.G.G.G.G.G.G.G.G.s.c a a a a t q q 6 - - #.                      ",
"                      L - 6 q q e a a a ( G.G.G.G.G.G.G.G.G.G.G.G.G.G.G.G.G.G.G.G.G.G.( a a a i q q q > - #.                    ",
"                  2.f - 6 q w u a a ( G.G.G.G.G.G.G.G.G.G.G.G.G.G.G.G.G.G.G.G.G.G.G.G.G.G.( a a a t q q > - W                   ",
"                  J - 6 q w i a c s.G.G.G.G.G.G.G.G.G.G.G.G.G.G.G.G.G.G.G.G.G.G.G.G.G.G.G.G.s.c a a t q q > - #.                ",
"                L - 6 q e a a ( G.G.G.G.G.G.G.G.G.G.G.G.G.G.G.G.G.G.G.G.G.G.G.G.G.G.G.G.G.G.G.G.( a a i q q > - #.              ",
"              _ - 6 q e a a ( G.G.G.G.G.G.G.G.G.G.G.G.G.G.G.G.G.G.G.G.G.G.G.G.G.G.G.G.G.G.G.G.G.G.( a a i q q > - e.            ",
"            @.- > q w i a ( G.G.G.G.G.G.G.G.G.G.G.G.G.G.G.G.G.G.G.G.G.G.G.G.G.G.G.G.G.G.G.G.G.G.G.G.( a a t q q - - e.          ",
"          a.- > q w i a ( G.G.G.G.G.G.G.G.G.G.G.G.G.G.G.G.G.G.G.G.G.G.G.G.G.G.G.G.G.G.G.G.G.G.G.G.G.G.( a a t q 6 - j           ",
"          ^ - 6 q r a ( G.G.G.G.G.G.G.G.G.G.G.G.G.G.G.G.G.G.G.G.G.G.G.G.G.G.G.G.G.G.G.G.G.G.G.G.G.G.G.G.( a a q q > - e.        ",
"        a.- > q e a c G.G.G.G.G.G.G.G.G.G.G.G.G.G.G.G.G.G.G.G.G.G.G.G.G.G.G.G.G.G.G.G.G.G.G.G.G.G.G.G.G.G.c a i q q - j         ",
"        J > q w i a ,.G.G.G.G.G.G.G.G.G.G.G.G.G.G.G.G.G.G.G.G.G.G.G.G.G.G.G.G.G.G.G.G.G.G.G.G.G.G.G.G.G.G.,.a a t q 6 - #.      ",
"      :.- > q r a ( G.G.G.G.G.G.G.G.G.G.G.G.G.G.G.G.G.G.G.G.G.G.G.G.G.G.G.G.G.G.G.G.G.G.G.G.G.G.G.G.G.G.G.G.( a a q q - -       ",
"      Q > q w i a v.G.G.G.G.G.G.G.G.G.G.G.G.G.G.G.G.G.G.G.G.G.G.G.G.G.G.G.G.G.G.G.G.G.G.G.G.G.G.G.G.G.G.G.G.v.a a t q 6 - e.    ",
"    a.- > q r a ( G.G.G.G.G.G.G.G.G.G.G.G.G.G.G.G.G.G.G.G.G.G.G.G.G.G.G.G.G.G.G.G.G.G.G.G.G.G.G.G.G.G.G.G.G.G.( a a q q - j     ",
"    ^ - 6 w i a v.G.G.G.G.G.G.G.G.G.G.G.G.G.G.G.G.G.G.G.G.G.G.G.G.G.G.G.G.G.G.G.G.G.G.G.G.G.G.G.G.G.G.G.G.G.G.v.a a t q > - e.  ",
"  2.2 > q e a c G.G.G.G.G.G.G.G.G.G.G.G.G.G.G.G.G.G.G.G.G.G.G.G.G.G.G.G.G.G.G.G.G.G.G.G.G.G.G.G.G.G.G.G.G.G.G.G.c a i q 6 - W   ",
"  q.- > q r a ,.G.G.G.G.G.G.G.G.G.G.G.G.G.G.G.G.G.G.G.G.m.k.9.9.9.g.k.G.G.G.G.G.G.G.G.G.G.G.G.G.G.G.G.G.G.G.G.G.,.a a q q - -   ",
"  -.- 6 q t a V.G.G.G.G.G.G.G.G.G.G.G.G.G.G.G.G.G.G.m.g.3.} ] G G [ o.9.n.G.G.G.G.G.G.G.G.G.G.G.G.G.G.G.G.G.G.G.V.a a q q > -   ",
"  Q > q w i c G.G.G.G.G.G.G.G.G.G.G.G.G.G.G.G.G.G.m.7. .S n @ O O * B [ 5.k.G.G.G.G.G.G.G.G.G.G.G.G.G.G.G.G.G.G.G.c a t q 6 - x.",
"  l > q e a ` G.G.G.G.G.G.G.G.G.G.G.G.G.G.G.G.G.G.9.{ B X . . . . . . m G 5.n.G.G.G.G.G.G.G.G.G.G.G.G.G.G.G.G.G.G.` a i q q - #.",
"v.2 > q r a 1.G.G.G.G.G.G.G.G.G.G.G.G.G.G.G.G.G.k.o.C X . . . . . . . . m [ 9.G.G.G.G.G.G.G.G.G.G.G.G.G.G.G.G.G.G.1.a a q q - W ",
"x.- > q r a u.G.G.G.G.G.G.G.G.G.G.G.G.G.G.G.G.G.7.G $ . . . . . . . . . . C o.k.G.G.G.G.G.G.G.G.G.G.G.G.G.G.G.G.G.u.a a q q - j ",
"f.- > q t a V.G.G.G.G.G.G.G.G.G.G.G.G.G.G.G.G.m.O.N . . . . . . . . . . . * [ g.G.G.G.G.G.G.G.G.G.G.G.G.G.G.G.G.G.V.a a q q - - ",
"d.- > q t a G.G.G.G.G.G.G.G.G.G.G.G.G.G.G.G.G.k. .n . . . . . . . . . . . + G 9.G.G.G.G.G.G.G.G.G.G.G.G.G.G.G.G.G.G.a a q q - - ",
"d.- > q t a G.G.G.G.G.G.G.G.G.G.G.G.G.G.G.G.G.k. .n . . . . . . . . . . . + G 9.G.G.G.G.G.G.G.G.G.G.G.G.G.G.G.G.G.G.a a q q - - ",
"d.- > q t a G.G.G.G.G.G.G.G.G.G.G.G.G.G.G.G.G.k.o.M . . . . . . . . . . . $ ] 9.G.G.G.G.G.G.G.G.G.G.G.G.G.G.G.G.G.G.a a q q - - ",
"d.- > q t a G.G.G.G.G.G.G.G.G.G.G.G.G.G.G.G.G.m.3.A . . . . . . . . . . . n } k.G.G.G.G.G.G.G.G.G.G.G.G.G.G.G.G.G.G.a a q q - - ",
"f.- > q r a p.G.G.G.G.G.G.G.G.G.G.G.G.G.G.G.G.G.9.[ = . . . . . . . . . X D 3.m.G.G.G.G.G.G.G.G.G.G.G.G.G.G.G.G.G.p.a a q q - - ",
"x.- > q r a u.G.G.G.G.G.G.G.G.G.G.G.G.G.G.G.G.G.n.3.F & . . . . . . . X B  .g.G.G.G.G.G.G.G.G.G.G.G.G.G.G.G.G.G.G.u.a a q q - j ",
"v.2 > q e a $.G.G.G.G.G.G.G.G.G.G.G.G.G.G.G.G.G.G.g.o.F = . . . . . $ C { 7.m.G.G.G.G.G.G.G.G.G.G.G.G.G.G.G.G.G.G.$.a i q q - W ",
"  l > q w i Y G.G.G.G.G.G.G.G.G.G.G.G.G.G.G.G.G.G.G.g.3.[ A M n n N G o.9.m.G.G.G.G.G.G.G.G.G.G.G.G.G.G.G.G.G.G.G.Y a t q q - #.",
"  Q - q q t s G.G.G.G.G.G.G.G.G.G.G.G.G.G.G.G.G.G.G.G.n.9.3.o. . .O.7.k.G.G.G.G.G.G.G.G.G.G.G.G.G.G.G.G.G.G.G.G.G.s a q q 6 - e.",
"  -.- 6 q r a p.G.G.G.G.G.G.G.G.G.G.G.G.G.G.G.G.G.G.G.G.G.m.k.k.k.m.G.G.G.G.G.G.G.G.G.G.G.G.G.G.G.G.G.G.G.G.G.G.p.a a q q - -   ",
"  t.- > q e a R G.G.G.G.G.G.G.G.G.G.G.G.G.G.G.G.G.G.G.G.G.G.G.G.G.G.G.G.G.G.G.G.G.G.G.G.G.G.G.G.G.G.G.G.G.G.G.G.R a i q q - -   ",
"  v.2 - q w i s G.G.G.G.G.G.G.G.G.G.G.G.G.G.G.G.G.G.G.G.G.G.G.G.G.G.G.G.G.G.G.G.G.G.G.G.G.G.G.G.G.G.G.G.G.G.G.G.s a t q 6 - W   ",
"    ^ - > q r a &.G.G.G.G.G.G.G.G.G.G.G.G.G.G.G.G.G.G.G.G.G.G.G.G.G.G.G.G.G.G.G.G.G.G.G.G.G.G.G.G.G.G.G.G.G.G.&.a a q q - - e.  ",
"    x.- > q w i g G.G.G.G.G.G.G.G.G.G.G.G.G.G.G.G.G.G.G.G.G.G.G.G.G.G.G.G.G.G.G.G.G.G.G.G.G.G.G.G.G.G.G.G.G.G.g a t q q - j     ",
"      Q - 6 q r a &.G.G.G.G.G.G.G.G.G.G.G.G.G.G.G.G.G.G.G.G.G.G.G.G.G.G.G.G.G.G.G.G.G.G.G.G.G.G.G.G.G.G.G.G.&.a a q q > - e.    ",
"      :.- > q w i g x.G.G.G.G.G.G.G.G.G.G.G.G.G.G.G.G.G.G.G.G.G.G.G.G.G.G.G.G.G.G.G.G.G.G.G.G.G.G.G.G.G.G.x.g a t q q - -       ",
"        J - 6 q e a R G.G.G.G.G.G.G.G.G.G.G.G.G.G.G.G.G.G.G.G.G.G.G.G.G.G.G.G.G.G.G.G.G.G.G.G.G.G.G.G.G.G.R a i q q > - #.      ",
"        x.- : q q r s ,.G.G.G.G.G.G.G.G.G.G.G.G.G.G.G.G.G.G.G.G.G.G.G.G.G.G.G.G.G.G.G.G.G.G.G.G.G.G.G.G.,.s a q q 6 - j         ",
"          ^ - > q w i g <.G.G.G.G.G.G.G.G.G.G.G.G.G.G.G.G.G.G.G.G.G.G.G.G.G.G.G.G.G.G.G.G.G.G.G.G.G.G.<.g a t q q - - e.        ",
"          x.- - 6 q w i g <.G.G.G.G.G.G.G.G.G.G.G.G.G.G.G.G.G.G.G.G.G.G.G.G.G.G.G.G.G.G.G.G.G.G.G.G.<.g a t q q > - j           ",
"            @.- : q q e a g <.G.G.G.G.G.G.G.G.G.G.G.G.G.G.G.G.G.G.G.G.G.G.G.G.G.G.G.G.G.G.G.G.G.G.<.g a i q q 6 - - e.          ",
"              _ - > q q e a g <.G.G.G.G.G.G.G.G.G.G.G.G.G.G.G.G.G.G.G.G.G.G.G.G.G.G.G.G.G.G.G.G.<.g a i q q 6 - - e.            ",
"                L - > q q w i g ' G.G.G.G.G.G.G.G.G.G.G.G.G.G.G.G.G.G.G.G.G.G.G.G.G.G.G.G.G.G.' g a t q q 6 - - #.              ",
"                  J - > q q w u s x u.G.G.G.G.G.G.G.G.G.G.G.G.G.G.G.G.G.G.G.G.G.G.G.G.G.G.u.x s a t q q 6 - - #.                ",
"                  v.f - > q q q e a g U i.G.G.G.G.G.G.G.G.G.G.G.G.G.G.G.G.G.G.G.G.G.G.i.U g a i q q q 6 - - W                   ",
"                      L - : 6 q q w u a g U &.G.G.G.G.G.G.G.G.G.G.G.G.G.G.G.G.G.G.&.U g a a t q q q > - - #.                    ",
"                        E - - > q q q w u a s x T &.G.G.G.G.G.G.G.G.G.G.G.G.&.T x s a a t q q q 6 > - - #.                      ",
"                          @.- - : 6 q q q w y a a s k I U T ( ( ( ( T U I k s a a p t q q q q > - - - e.                        ",
"                            =.h - - > 6 q q q q q w y a a a a a a a a a a p t q q q q q q > > - - P e.                          ",
"                                =.f - - > > q q q q q q q q q q q q q q q q q q q q 6 > > - - P e.                              ",
"                                    Q - - - - > 6 q q q q q q q q q q q q q q 6 > > - - - f #.                                  ",
"                                        =.h - - - - > > > > > > > > > > > > > - - - - P e.                                      ",
"                                            ;.~ l - - - - - - - - - - - - - - 3 L +.e.                                          ",
"                                                    r.;._ ~ J J J J L _ +.q.e.                                                  "
};
