/* XPM */
static char *_a4bb3d4d8634bd0c1bafe1b03a56ffatZOfbwrhJ59TUnA0[] = {
/* columns rows colors chars-per-pixel */
"64 64 124 2 ",
"   c None",
".  c #BC0000",
"X  c #BE2020",
"o  c #C03939",
"O  c #C86A6A",
"+  c #27BA00",
"@  c #27BB00",
"#  c #27BC00",
"$  c #28BC00",
"%  c #28BD00",
"&  c #28BE00",
"*  c #28BF00",
"=  c #2DBB12",
"-  c #4ABE3E",
";  c #28C000",
":  c #29C100",
">  c #29C200",
",  c #29C300",
"<  c #29C400",
"1  c #29C500",
"2  c #2AC500",
"3  c #2AC600",
"4  c #2BCD00",
"5  c #2DD300",
"6  c #2ED900",
"7  c #2FDF00",
"8  c #31EA00",
"9  c #33F000",
"0  c #34F500",
"q  c #35FA00",
"w  c #36FF00",
"e  c #52FF3E",
"r  c #60C258",
"t  c #62C35B",
"y  c #65FF58",
"u  c #72C76D",
"i  c #7FCA7A",
"p  c #75FF6B",
"a  c #80CA7C",
"s  c #82CB7E",
"d  c #82FF7A",
"f  c #84FF7C",
"g  c #CD8080",
"h  c #CE8282",
"j  c #D18D8D",
"k  c #D8A2A2",
"l  c #DBADAD",
"z  c #DCAFAF",
"x  c #8DCE89",
"c  c #8ECF8A",
"v  c #98D295",
"b  c #99D296",
"n  c #A2D59F",
"m  c #8EFF87",
"M  c #99FF93",
"N  c #9AFF95",
"B  c #A3FF9E",
"V  c #A4FF9F",
"C  c #A3D6A0",
"Z  c #ABD9A9",
"A  c #ACD9AA",
"S  c #ADDAAB",
"D  c #B5DDB3",
"F  c #B6DDB4",
"G  c #ACFFA8",
"H  c #AEFFAA",
"J  c #BDE0BC",
"K  c #BEE0BC",
"L  c #B7FFB3",
"P  c #BEFFBB",
"I  c #E4C4C4",
"U  c #E7C9C9",
"Y  c #EBD3D3",
"T  c #EDD8D8",
"R  c #EFDDDD",
"E  c #C5E3C3",
"W  c #C6E4C4",
"Q  c #CCE7CB",
"!  c #C6FFC3",
"~  c #CCFFCA",
"^  c #CDFFCB",
"/  c #CEFFCC",
"(  c #D4EAD3",
")  c #D5EAD4",
"_  c #DBEDDA",
"`  c #DCEEDB",
"'  c #D4FFD2",
"]  c #D5FFD3",
"[  c #DBFFD9",
"{  c #DCFFDA",
"}  c #E0E7E0",
"|  c #F2E4E4",
" . c #F4E8E8",
".. c #F4E9E9",
"X. c #F5E9E9",
"o. c #F7EEEE",
"O. c #E1F0E1",
"+. c #E2F1E1",
"@. c #E7F3E7",
"#. c #E7F7E7",
"$. c #E8F7E7",
"%. c #E1FFE0",
"&. c #E2FFE1",
"*. c #E7FFE6",
"=. c #E8FFE7",
"-. c #E8F4E8",
";. c #E9FFE8",
":. c #ECFFEB",
">. c #EFFFEE",
",. c #FAF4F4",
"<. c #F2FFF2",
"1. c #F3FFF3",
"2. c #F4FFF4",
"3. c #F6FFF6",
"4. c #FBF8F8",
"5. c #FCF9F9",
"6. c #FCFAFA",
"7. c #FAFFF9",
"8. c #FDFCFC",
"9. c #FEFDFD",
"0. c #FEFEFE",
"q. c #FFFEFE",
"w. c #FEFFFE",
"e. c white",
/* pixels */
"                                                    O._ K D c c c c b K E O.@.                                                  ",
"                                            _ D a + + + + + + + + + + + + + + - b E @.                                          ",
"                                        ( u + + + > 3 3 3 3 3 3 3 3 3 3 3 3 > $ + + + n @.                                      ",
"                                    A + + + > 3 3 3 3 3 3 3 3 3 3 3 3 3 3 3 3 3 3 > $ + + t Q                                   ",
"                                ( t + $ 3 3 3 3 3 4 8 w w w w w w w w w w q 7 3 3 3 3 3 > + + n @.                              ",
"                            ( u + $ 3 3 3 4 8 w w w w w w w w w w w w w w w w w w q 7 3 3 3 > + + n @.                          ",
"                          W + + > 3 3 4 9 w w w w f / e.e.e.e.e.e.e.e.e.e./ f w w w w w 7 3 3 3 $ + + @.                        ",
"                        C + $ 3 3 4 9 w w w f ;.e.e.e.e.e.e.e.e.e.e.e.e.e.e.e.e.;.f w w w w 7 3 3 > + + Q                       ",
"                      b + > 3 3 5 w w w H e.e.e.e.e.e.e.e.e.e.e.e.e.e.e.e.e.e.e.e.e.e.H w w w 0 3 3 3 $ + Q                     ",
"                  } t + > 3 4 9 w w H e.e.e.e.e.e.e.e.e.e.e.e.e.e.e.e.e.e.e.e.e.e.e.e.e.e.H w w w 7 3 3 $ + Z                   ",
"                  c + > 3 4 0 w f ;.e.e.e.e.e.e.e.e.e.e.e.e.e.e.e.e.e.e.e.e.e.e.e.e.e.e.e.e.;.f w w 7 3 3 $ + Q                 ",
"                b + > 3 5 w w H e.e.e.e.e.e.e.e.e.e.e.e.e.e.e.e.e.e.e.e.e.e.e.e.e.e.e.e.e.e.e.e.H w w 0 3 3 $ + Q               ",
"              K + > 3 5 w w H e.e.e.e.e.e.e.e.e.e.e.e.e.e.e.e.e.e.e.e.e.e.e.e.e.e.e.e.e.e.e.e.e.e.H w w 0 3 3 $ + @.            ",
"            W + $ 3 4 0 w H e.e.e.e.e.e.e.e.e.e.e.e.e.e.e.e.e.e.e.e.e.e.e.e.e.e.e.e.e.e.e.e.e.e.e.e.H w w 7 3 3 + + @.          ",
"          -.+ $ 3 4 0 w H e.e.e.e.e.e.e.e.e.e.e.e.e.e.e.e.e.e.e.e.e.e.e.e.e.e.e.e.e.e.e.e.e.e.e.e.e.e.H w w 7 3 > + i           ",
"          F + > 3 6 w H e.e.e.e.e.e.e.e.e.e.e.e.e.e.e.e.e.e.e.e.e.e.e.e.e.e.e.e.e.e.e.e.e.e.e.e.e.e.e.e.H w w 3 3 $ + @.        ",
"        -.+ $ 3 5 w f e.e.e.e.e.e.e.e.e.e.e.e.e.e.e.e.e.e.e.e.e.e.e.e.e.e.e.e.e.e.e.e.e.e.e.e.e.e.e.e.e.e.f w 0 3 3 + i         ",
"        c $ 3 4 0 w ] e.e.e.e.e.e.e.e.e.e.e.e.e.e.e.e.e.e.e.e.e.e.e.e.e.e.e.e.e.e.e.e.e.e.e.e.e.e.e.e.e.e.] w w 7 3 > + Q       ",
"      ` + $ 3 6 w H e.e.e.e.e.e.e.e.e.e.e.e.e.e.e.e.e.e.e.e.e.e.e.e.e.e.e.e.e.e.e.e.e.e.e.e.e.e.e.e.e.e.e.e.H w w 3 3 + +       ",
"      A $ 3 4 0 w 2.e.e.e.e.e.e.e.e.e.e.e.e.e.e.e.e.e.e.e.e.e.e.e.e.e.e.e.e.e.e.e.e.e.e.e.e.e.e.e.e.e.e.e.e.2.w w 7 3 > + @.    ",
"    -.+ $ 3 6 w H e.e.e.e.e.e.e.e.e.e.e.e.e.e.e.e.e.e.e.e.e.e.e.e.e.e.e.e.e.e.e.e.e.e.e.e.e.e.e.e.e.e.e.e.e.e.H w w 3 3 + i     ",
"    F + > 4 0 w 2.e.e.e.e.e.e.e.e.e.e.e.e.e.e.e.e.e.e.e.e.e.e.e.e.e.e.e.e.e.e.e.e.e.e.e.e.e.e.e.e.e.e.e.e.e.e.2.w w 7 3 $ + @.  ",
"  } = $ 3 5 w f e.e.e.e.e.e.e.e.e.e.e.e.e.e.e.e.e.e.e.e.e.e.e.e.e.e.e.e.e.e.e.e.e.e.e.e.e.e.e.e.e.e.e.e.e.e.e.e.f w 0 3 > + Z   ",
"  O.+ $ 3 6 w ] e.e.e.e.e.e.e.e.e.e.e.e.e.e.e.e.e.e.e.e.e.e.e.e.e.e.e.e.e.e.e.e.e.e.e.e.e.e.e.e.e.e.e.e.e.e.e.e.] w w 3 3 + +   ",
"  ) + > 3 7 w 7.e.e.e.e.e.e.e.e.e.e.e.e.e.e.e.e.e.e.e.e.e.e.e.e.e.e.e.e.e.e.e.e.e.e.e.e.e.e.e.e.e.e.e.e.e.e.e.e.7.w w 3 3 $ +   ",
"  A $ 3 4 0 f e.e.e.e.e.e.e.e.e.e.e.e.e.e.e.e.e.e.e.e.e.e.e.6.6.6.e.e.e.e.e.e.e.e.e.e.e.e.e.e.e.e.e.e.e.e.e.e.e.e.f w 7 3 > + <.",
"  a $ 3 5 w L e.e.e.e.e.e.e.e.e.e.e.e.e.e.e.e.e.e.e.e.e.4.o.Y Y Y o.4.e.e.e.e.e.e.e.e.e.e.e.e.e.e.e.e.e.e.e.e.e.e.L w 0 3 3 + Q ",
"2.= $ 3 6 w { e.e.e.e.e.e.e.e.e.e.e.e.e.e.e.e.e.e.e.e.4.T k o X o k T 4.e.e.e.e.e.e.e.e.e.e.e.e.e.e.e.e.e.e.e.e.e.{ w w 3 3 + Z ",
"<.+ $ 3 6 w &.e.e.e.e.e.e.e.e.e.e.e.e.e.e.e.e.e.e.e.e.R h . . . . . h R e.e.e.e.e.e.e.e.e.e.e.e.e.e.e.e.e.e.e.e.e.&.w w 3 3 + i ",
">.+ $ 3 7 w 7.e.e.e.e.e.e.e.e.e.e.e.e.e.e.e.e.e.e.e.,.z . . . . . . . z ,.e.e.e.e.e.e.e.e.e.e.e.e.e.e.e.e.e.e.e.e.7.w w 3 3 + + ",
":.+ $ 3 7 w e.e.e.e.e.e.e.e.e.e.e.e.e.e.e.e.e.e.e.e.| O . . . . . . . O | e.e.e.e.e.e.e.e.e.e.e.e.e.e.e.e.e.e.e.e.e.w w 3 3 + + ",
":.+ $ 3 7 w e.e.e.e.e.e.e.e.e.e.e.e.e.e.e.e.e.e.e.e.| O . . . . . . . O | e.e.e.e.e.e.e.e.e.e.e.e.e.e.e.e.e.e.e.e.e.w w 3 3 + + ",
":.+ $ 3 7 w e.e.e.e.e.e.e.e.e.e.e.e.e.e.e.e.e.e.e.e. .h . . . . . . . h  .e.e.e.e.e.e.e.e.e.e.e.e.e.e.e.e.e.e.e.e.e.w w 3 3 + + ",
":.+ $ 3 7 w e.e.e.e.e.e.e.e.e.e.e.e.e.e.e.e.e.e.e.e.6.I . . . . . . . I 6.e.e.e.e.e.e.e.e.e.e.e.e.e.e.e.e.e.e.e.e.e.w w 3 3 + + ",
">.+ $ 3 6 w =.e.e.e.e.e.e.e.e.e.e.e.e.e.e.e.e.e.e.e.e. .l . . . . . l  .e.e.e.e.e.e.e.e.e.e.e.e.e.e.e.e.e.e.e.e.e.=.w w 3 3 + + ",
"<.+ $ 3 6 w &.e.e.e.e.e.e.e.e.e.e.e.e.e.e.e.e.e.e.e.e.e. .U j j j U  .e.e.e.e.e.e.e.e.e.e.e.e.e.e.e.e.e.e.e.e.e.e.&.w w 3 3 + i ",
"2.= $ 3 5 w ! e.e.e.e.e.e.e.e.e.e.e.e.e.e.e.e.e.e.e.e.e.e.6. . . .6.e.e.e.e.e.e.e.e.e.e.e.e.e.e.e.e.e.e.e.e.e.e.e.! w 0 3 3 + Z ",
"  a $ 3 4 0 N e.e.e.e.e.e.e.e.e.e.e.e.e.e.e.e.e.e.e.e.e.e.e.e.e.e.e.e.e.e.e.e.e.e.e.e.e.e.e.e.e.e.e.e.e.e.e.e.e.e.N w 7 3 3 + Q ",
"  A + 3 3 7 e e.e.e.e.e.e.e.e.e.e.e.e.e.e.e.e.e.e.e.e.e.e.e.e.e.e.e.e.e.e.e.e.e.e.e.e.e.e.e.e.e.e.e.e.e.e.e.e.e.e.e w 3 3 > + @.",
"  ) + > 3 6 w =.e.e.e.e.e.e.e.e.e.e.e.e.e.e.e.e.e.e.e.e.e.e.e.e.e.e.e.e.e.e.e.e.e.e.e.e.e.e.e.e.e.e.e.e.e.e.e.e.=.w w 3 3 + +   ",
"  $.+ $ 3 5 w V e.e.e.e.e.e.e.e.e.e.e.e.e.e.e.e.e.e.e.e.e.e.e.e.e.e.e.e.e.e.e.e.e.e.e.e.e.e.e.e.e.e.e.e.e.e.e.e.V w 0 3 3 + +   ",
"  2.= + 3 4 0 e e.e.e.e.e.e.e.e.e.e.e.e.e.e.e.e.e.e.e.e.e.e.e.e.e.e.e.e.e.e.e.e.e.e.e.e.e.e.e.e.e.e.e.e.e.e.e.e.e w 7 3 > + Z   ",
"    F + $ 3 6 w ^ e.e.e.e.e.e.e.e.e.e.e.e.e.e.e.e.e.e.e.e.e.e.e.e.e.e.e.e.e.e.e.e.e.e.e.e.e.e.e.e.e.e.e.e.e.e.^ w w 3 3 + + @.  ",
"    <.+ $ 3 4 0 y e.e.e.e.e.e.e.e.e.e.e.e.e.e.e.e.e.e.e.e.e.e.e.e.e.e.e.e.e.e.e.e.e.e.e.e.e.e.e.e.e.e.e.e.e.e.y w 7 3 3 + i     ",
"      A + > 3 6 w ^ e.e.e.e.e.e.e.e.e.e.e.e.e.e.e.e.e.e.e.e.e.e.e.e.e.e.e.e.e.e.e.e.e.e.e.e.e.e.e.e.e.e.e.e.^ w w 3 3 $ + @.    ",
"      ` + $ 3 4 0 y <.e.e.e.e.e.e.e.e.e.e.e.e.e.e.e.e.e.e.e.e.e.e.e.e.e.e.e.e.e.e.e.e.e.e.e.e.e.e.e.e.e.e.<.y w 7 3 3 + +       ",
"        c + > 3 5 w V e.e.e.e.e.e.e.e.e.e.e.e.e.e.e.e.e.e.e.e.e.e.e.e.e.e.e.e.e.e.e.e.e.e.e.e.e.e.e.e.e.e.V w 0 3 3 $ + Q       ",
"        <.+ # 3 3 6 e ] e.e.e.e.e.e.e.e.e.e.e.e.e.e.e.e.e.e.e.e.e.e.e.e.e.e.e.e.e.e.e.e.e.e.e.e.e.e.e.e.] e w 3 3 > + i         ",
"          F + $ 3 4 0 y [ e.e.e.e.e.e.e.e.e.e.e.e.e.e.e.e.e.e.e.e.e.e.e.e.e.e.e.e.e.e.e.e.e.e.e.e.e.e.[ y w 7 3 3 + + @.        ",
"          <.+ + > 3 4 0 y [ e.e.e.e.e.e.e.e.e.e.e.e.e.e.e.e.e.e.e.e.e.e.e.e.e.e.e.e.e.e.e.e.e.e.e.e.[ y w 7 3 3 $ + i           ",
"            W + # 3 3 5 w y [ e.e.e.e.e.e.e.e.e.e.e.e.e.e.e.e.e.e.e.e.e.e.e.e.e.e.e.e.e.e.e.e.e.e.[ y w 0 3 3 > + + @.          ",
"              K + $ 3 3 5 w y [ e.e.e.e.e.e.e.e.e.e.e.e.e.e.e.e.e.e.e.e.e.e.e.e.e.e.e.e.e.e.e.e.[ y w 0 3 3 > + + @.            ",
"                b + $ 3 3 4 0 y P e.e.e.e.e.e.e.e.e.e.e.e.e.e.e.e.e.e.e.e.e.e.e.e.e.e.e.e.e.e.P y w 7 3 3 > + + Q               ",
"                  c + $ 3 3 4 9 e d &.e.e.e.e.e.e.e.e.e.e.e.e.e.e.e.e.e.e.e.e.e.e.e.e.e.e.&.d e w 7 3 3 > + + Q                 ",
"                  2.t + $ 3 3 3 5 w y M *.e.e.e.e.e.e.e.e.e.e.e.e.e.e.e.e.e.e.e.e.e.e.*.M y w 0 3 3 3 > + + Z                   ",
"                      b + # > 3 3 4 9 w y M ^ e.e.e.e.e.e.e.e.e.e.e.e.e.e.e.e.e.e.^ M y w w 7 3 3 3 $ + + Q                     ",
"                        C + + $ 3 3 3 4 9 w e d B ^ e.e.e.e.e.e.e.e.e.e.e.e.^ B d e w w 7 3 3 3 > $ + + Q                       ",
"                          W + + # > 3 3 3 4 8 w w e p m M B H H H H B M m p e w w q 7 3 3 3 3 $ + + + @.                        ",
"                            ( u + + $ > 3 3 3 3 3 4 8 w w w w w w w w w w q 7 3 3 3 3 3 3 $ $ + + n @.                          ",
"                                ( t + + $ $ 3 3 3 3 3 3 3 3 3 3 3 3 3 3 3 3 3 3 3 3 > $ $ + + n @.                              ",
"                                    A + + + + $ > 3 3 3 3 3 3 3 3 3 3 3 3 3 3 > $ $ + + + t Q                                   ",
"                                        ( u + + + + $ $ $ $ $ $ $ $ $ $ $ $ $ + + + + n @.                                      ",
"                                            _ D a + + + + + + + + + + + + + + - b E @.                                          ",
"                                                    #._ K D c c c c b K E O.@.                                                  "
};
