/* XPM */
static char *_33f7f79ec014434ce9670ef3f7837edSFdrGIScXsRWCAzv[] = {
/* columns rows colors chars-per-pixel */
"64 64 101 2 ",
"   c None",
".  c #BC0000",
"X  c #27BA00",
"o  c #27BB00",
"O  c #27BC00",
"+  c #28BC00",
"@  c #28BD00",
"#  c #28BE00",
"$  c #28BF00",
"%  c #2DBB12",
"&  c #4ABE3E",
"*  c #28C000",
"=  c #29C100",
"-  c #29C200",
";  c #29C300",
":  c #29C400",
">  c #29C500",
",  c #2AC500",
"<  c #2AC600",
"1  c #2BCD00",
"2  c #2DD300",
"3  c #2ED900",
"4  c #2FDF00",
"5  c #31EA00",
"6  c #33F000",
"7  c #34F500",
"8  c #35FA00",
"9  c #36FF00",
"0  c #52FF3E",
"q  c #60C258",
"w  c #62C35B",
"e  c #65FF58",
"r  c #72C76D",
"t  c #7FCA7A",
"y  c #75FF6B",
"u  c #80CA7C",
"i  c #82CB7E",
"p  c #82FF7A",
"a  c #84FF7C",
"s  c #8DCE89",
"d  c #8ECF8A",
"f  c #98D295",
"g  c #99D296",
"h  c #A2D59F",
"j  c #8EFF87",
"k  c #99FF93",
"l  c #9AFF95",
"z  c #A3FF9E",
"x  c #A4FF9F",
"c  c #A3D6A0",
"v  c #ABD9A9",
"b  c #ACD9AA",
"n  c #ADDAAB",
"m  c #B5DDB3",
"M  c #B6DDB4",
"N  c #ACFFA8",
"B  c #AEFFAA",
"V  c #BDE0BC",
"C  c #BEE0BC",
"Z  c #B7FFB3",
"A  c #BEFFBB",
"S  c #EBD4D4",
"D  c #C5E3C3",
"F  c #C6E4C4",
"G  c #CCE7CB",
"H  c #C6FFC3",
"J  c #CCFFCA",
"K  c #CDFFCB",
"L  c #CEFFCC",
"P  c #D4EAD3",
"I  c #D5EAD4",
"U  c #DBEDDA",
"Y  c #DCEEDB",
"T  c #D4FFD2",
"R  c #D5FFD3",
"E  c #DBFFD9",
"W  c #DCFFDA",
"Q  c #E0E7E0",
"!  c #F1E3E3",
"~  c #F4E8E8",
"^  c #E1F0E1",
"/  c #E2F1E1",
"(  c #E7F3E7",
")  c #E7F7E7",
"_  c #E8F7E7",
"`  c #E1FFE0",
"'  c #E2FFE1",
"]  c #E7FFE6",
"[  c #E8FFE7",
"{  c #E8F4E8",
"}  c #E9FFE8",
"|  c #ECFFEB",
" . c #EFFFEE",
".. c #F2FFF2",
"X. c #F3FFF3",
"o. c #F4FFF4",
"O. c #F6FFF6",
"+. c #FCFAFA",
"@. c #FAFFF9",
"#. c #FEFFFE",
"$. c white",
/* pixels */
"                                                    ^ U C m d d d d g C D ^ (                                                   ",
"                                            U m u X X X X X X X X X X X X X X & g D (                                           ",
"                                        P r X X X - < < < < < < < < < < < < - + X X X h (                                       ",
"                                    b X X X - < < < < < < < < < < < < < < < < < < - + X X w G                                   ",
"                                P w X + < < < < < 1 5 9 9 9 9 9 9 9 9 9 9 8 4 < < < < < - X X h (                               ",
"                            P r X + < < < 1 5 9 9 9 9 9 9 9 9 9 9 9 9 9 9 9 9 9 9 8 4 < < < - X X h (                           ",
"                          F X X - < < 1 6 9 9 9 9 a L $.$.$.$.$.$.$.$.$.$.L a 9 9 9 9 9 4 < < < + X X (                         ",
"                        c X + < < 1 6 9 9 9 a } $.$.$.$.$.$.$.$.$.$.$.$.$.$.$.$.} a 9 9 9 9 4 < < - X X G                       ",
"                      g X - < < 2 9 9 9 B $.$.$.$.$.$.$.$.$.$.$.$.$.$.$.$.$.$.$.$.$.$.B 9 9 9 7 < < < + X G                     ",
"                  Q w X - < 1 6 9 9 B $.$.$.$.$.$.$.$.$.$.$.$.$.$.$.$.$.$.$.$.$.$.$.$.$.$.B 9 9 9 4 < < + X v                   ",
"                  d X - < 1 7 9 a } $.$.$.$.$.$.$.$.$.$.$.$.$.$.$.$.$.$.$.$.$.$.$.$.$.$.$.$.} a 9 9 4 < < + X G                 ",
"                g X - < 2 9 9 B $.$.$.$.$.$.$.$.$.$.$.$.$.$.$.$.$.$.$.$.$.$.$.$.$.$.$.$.$.$.$.$.B 9 9 7 < < + X G               ",
"              C X - < 2 9 9 B $.$.$.$.$.$.$.$.$.$.$.$.$.$.$.$.$.$.$.$.$.$.$.$.$.$.$.$.$.$.$.$.$.$.B 9 9 7 < < + X (             ",
"            F X + < 1 7 9 B $.$.$.$.$.$.$.$.$.$.$.$.$.$.$.$.$.$.$.$.$.$.$.$.$.$.$.$.$.$.$.$.$.$.$.$.B 9 9 4 < < X X (           ",
"          { X + < 1 7 9 B $.$.$.$.$.$.$.$.$.$.$.$.$.$.$.$.$.$.$.$.$.$.$.$.$.$.$.$.$.$.$.$.$.$.$.$.$.$.B 9 9 4 < - X t           ",
"          M X - < 3 9 B $.$.$.$.$.$.$.$.$.$.$.$.$.$.$.$.$.$.$.$.$.$.$.$.$.$.$.$.$.$.$.$.$.$.$.$.$.$.$.$.B 9 9 < < + X (         ",
"        { X + < 2 9 a $.$.$.$.$.$.$.$.$.$.$.$.$.$.$.$.$.$.$.$.$.$.$.$.$.$.$.$.$.$.$.$.$.$.$.$.$.$.$.$.$.$.a 9 7 < < X t         ",
"        d + < 1 7 9 R $.$.$.$.$.$.$.$.$.$.$.$.$.$.$.$.$.$.$.$.$.$.$.$.$.$.$.$.$.$.$.$.$.$.$.$.$.$.$.$.$.$.R 9 9 4 < - X G       ",
"      Y X + < 3 9 B $.$.$.$.$.$.$.$.$.$.$.$.$.$.$.$.$.$.$.$.$.$.$.$.$.$.$.$.$.$.$.$.$.$.$.$.$.$.$.$.$.$.$.$.B 9 9 < < X X       ",
"      b + < 1 7 9 o.$.$.$.$.$.$.$.$.$.$.$.$.$.$.$.$.$.$.$.$.$.$.$.$.$.$.$.$.$.$.$.$.$.$.$.$.$.$.$.$.$.$.$.$.o.9 9 4 < - X (     ",
"    { X + < 3 9 B $.$.$.$.$.$.$.$.$.$.$.$.$.$.$.$.$.$.$.$.$.$.$.$.$.$.$.$.$.$.$.$.$.$.$.$.$.$.$.$.$.$.$.$.$.$.B 9 9 < < X t     ",
"    M X - 1 7 9 o.$.$.$.$.$.$.$.$.$.$.$.$.$.$.$.$.$.$.$.$.$.$.$.$.$.$.$.$.$.$.$.$.$.$.$.$.$.$.$.$.$.$.$.$.$.$.o.9 9 4 < + X (   ",
"  Q % + < 2 9 a $.$.$.$.$.$.$.$.$.$.$.$.$.$.$.$.$.$.$.$.$.$.$.$.$.$.$.$.$.$.$.$.$.$.$.$.$.$.$.$.$.$.$.$.$.$.$.$.a 9 7 < - X v   ",
"  ^ X + < 3 9 R $.$.$.$.$.$.$.$.$.$.$.$.$.$.$.$.$.$.$.$.$.$.$.$.$.$.$.$.$.$.$.$.$.$.$.$.$.$.$.$.$.$.$.$.$.$.$.$.R 9 9 < < X X   ",
"  I X - < 4 9 @.$.$.$.$.$.$.$.$.$.$.$.$.$.$.$.$.$.$.$.$.$.$.$.$.$.$.$.$.$.$.$.$.$.$.$.$.$.$.$.$.$.$.$.$.$.$.$.$.@.9 9 < < + X   ",
"  b + < 1 7 a $.$.$.$.$.$.$.$.$.$.$.$.$.$.$.$.$.$.$.$.$.$.$.$.$.$.$.$.$.$.$.$.$.$.$.$.$.$.$.$.$.$.$.$.$.$.$.$.$.$.a 9 4 < - X ..",
"  u + < 2 9 Z $.$.$.$.$.$.$.$.$.$.$.$.$.$.$.$.$.$.$.$.$.$.$.$.$.$.$.$.$.$.$.$.$.$.$.$.$.$.$.$.$.$.$.$.$.$.$.$.$.$.Z 9 7 < < X G ",
"o.% + < 3 9 W $.$.$.$.$.$.$.$.$.$.$.$.$.$.$.$.$.$.$.$.$.$.$.$.$.$.$.$.$.$.$.$.$.$.$.$.$.$.$.$.$.$.$.$.$.$.$.$.$.$.W 9 9 < < X v ",
"..X + < 3 9 ' $.$.$.$.$.$.$.$.$.$.$.$.$.$.$.$.$.$.$.$.$.$.$.$.$.$.$.$.$.$.$.$.$.$.$.$.$.$.$.$.$.$.$.$.$.$.$.$.$.$.' 9 9 < < X t ",
" .X + < 4 9 @.$.$.$.$.$.$.$.$.$.$.$.$.$.$.$.$.$.$.$.$.$.$.+.S . ~ $.$.$.$.$.$.$.$.$.$.$.$.$.$.$.$.$.$.$.$.$.$.$.$.@.9 9 < < X X ",
"| X + < 4 9 $.$.$.$.$.$.$.$.$.$.$.$.$.$.$.$.$.$.$.$.$.$.$.S . . . $.$.$.$.$.$.$.$.$.$.$.$.$.$.$.$.$.$.$.$.$.$.$.$.$.9 9 < < X X ",
"| X + < 4 9 $.$.$.$.$.$.$.$.$.$.$.$.$.$.$.$.$.$.$.$.$.$.$.. . . . . $.$.$.$.$.$.$.$.$.$.$.$.$.$.$.$.$.$.$.$.$.$.$.$.9 9 < < X X ",
"| X + < 4 9 $.$.$.$.$.$.$.$.$.$.$.$.$.$.$.$.$.$.$.$.$.$.$.S . . . ! $.$.$.$.$.$.$.$.$.$.$.$.$.$.$.$.$.$.$.$.$.$.$.$.9 9 < < X X ",
"| X + < 4 9 $.$.$.$.$.$.$.$.$.$.$.$.$.$.$.$.$.$.$.$.$.$.$.$.$.. $.$.$.$.$.$.$.$.$.$.$.$.$.$.$.$.$.$.$.$.$.$.$.$.$.$.9 9 < < X X ",
" .X + < 3 9 [ $.$.$.$.$.$.$.$.$.$.$.$.$.$.$.$.$.$.$.$.$.$.$.$.$.$.$.$.$.$.$.$.$.$.$.$.$.$.$.$.$.$.$.$.$.$.$.$.$.$.[ 9 9 < < X X ",
"..X + < 3 9 ' $.$.$.$.$.$.$.$.$.$.$.$.$.$.$.$.$.$.$.$.$.$.$.$.$.$.$.$.$.$.$.$.$.$.$.$.$.$.$.$.$.$.$.$.$.$.$.$.$.$.' 9 9 < < X t ",
"o.% + < 2 9 H $.$.$.$.$.$.$.$.$.$.$.$.$.$.$.$.$.$.$.$.$.$.$.$.$.$.$.$.$.$.$.$.$.$.$.$.$.$.$.$.$.$.$.$.$.$.$.$.$.$.H 9 7 < < X v ",
"  u + < 1 7 l $.$.$.$.$.$.$.$.$.$.$.$.$.$.$.$.$.$.$.$.$.$.$.$.$.$.$.$.$.$.$.$.$.$.$.$.$.$.$.$.$.$.$.$.$.$.$.$.$.$.l 9 4 < < X G ",
"  b X < < 4 0 $.$.$.$.$.$.$.$.$.$.$.$.$.$.$.$.$.$.$.$.$.$.$.$.$.$.$.$.$.$.$.$.$.$.$.$.$.$.$.$.$.$.$.$.$.$.$.$.$.$.0 9 < < - X ( ",
"  I X - < 3 9 [ $.$.$.$.$.$.$.$.$.$.$.$.$.$.$.$.$.$.$.$.$.$.$.$.$.$.$.$.$.$.$.$.$.$.$.$.$.$.$.$.$.$.$.$.$.$.$.$.[ 9 9 < < X X   ",
"  _ X + < 2 9 x $.$.$.$.$.$.$.$.$.$.$.$.$.$.$.$.$.$.$.$.$.$.$.$.$.$.$.$.$.$.$.$.$.$.$.$.$.$.$.$.$.$.$.$.$.$.$.$.x 9 7 < < X X   ",
"  o.% X < 1 7 0 $.$.$.$.$.$.$.$.$.$.$.$.$.$.$.$.$.$.$.$.$.$.$.$.$.$.$.$.$.$.$.$.$.$.$.$.$.$.$.$.$.$.$.$.$.$.$.$.0 9 4 < - X v   ",
"    M X + < 3 9 K $.$.$.$.$.$.$.$.$.$.$.$.$.$.$.$.$.$.$.$.$.$.$.$.$.$.$.$.$.$.$.$.$.$.$.$.$.$.$.$.$.$.$.$.$.$.K 9 9 < < X X (   ",
"    ..X + < 1 7 e $.$.$.$.$.$.$.$.$.$.$.$.$.$.$.$.$.$.$.$.$.$.$.$.$.$.$.$.$.$.$.$.$.$.$.$.$.$.$.$.$.$.$.$.$.$.e 9 4 < < X t     ",
"      b X - < 3 9 K $.$.$.$.$.$.$.$.$.$.$.$.$.$.$.$.$.$.$.$.$.$.$.$.$.$.$.$.$.$.$.$.$.$.$.$.$.$.$.$.$.$.$.$.K 9 9 < < + X (     ",
"      Y X + < 1 7 e ..$.$.$.$.$.$.$.$.$.$.$.$.$.$.$.$.$.$.$.$.$.$.$.$.$.$.$.$.$.$.$.$.$.$.$.$.$.$.$.$.$.$...e 9 4 < < X X       ",
"        d X - < 2 9 x $.$.$.$.$.$.$.$.$.$.$.$.$.$.$.$.$.$.$.$.$.$.$.$.$.$.$.$.$.$.$.$.$.$.$.$.$.$.$.$.$.$.x 9 7 < < + X G       ",
"        ..X O < < 3 0 R $.$.$.$.$.$.$.$.$.$.$.$.$.$.$.$.$.$.$.$.$.$.$.$.$.$.$.$.$.$.$.$.$.$.$.$.$.$.$.$.R 0 9 < < - X t         ",
"          M X + < 1 7 e E $.$.$.$.$.$.$.$.$.$.$.$.$.$.$.$.$.$.$.$.$.$.$.$.$.$.$.$.$.$.$.$.$.$.$.$.$.$.E e 9 4 < < X X (         ",
"          ..X X - < 1 7 e E $.$.$.$.$.$.$.$.$.$.$.$.$.$.$.$.$.$.$.$.$.$.$.$.$.$.$.$.$.$.$.$.$.$.$.$.E e 9 4 < < + X t           ",
"            F X O < < 2 9 e E $.$.$.$.$.$.$.$.$.$.$.$.$.$.$.$.$.$.$.$.$.$.$.$.$.$.$.$.$.$.$.$.$.$.E e 9 7 < < - X X (           ",
"              C X + < < 2 9 e E $.$.$.$.$.$.$.$.$.$.$.$.$.$.$.$.$.$.$.$.$.$.$.$.$.$.$.$.$.$.$.$.E e 9 7 < < - X X (             ",
"                g X + < < 1 7 e A $.$.$.$.$.$.$.$.$.$.$.$.$.$.$.$.$.$.$.$.$.$.$.$.$.$.$.$.$.$.A e 9 4 < < - X X G               ",
"                  d X + < < 1 6 0 p ' $.$.$.$.$.$.$.$.$.$.$.$.$.$.$.$.$.$.$.$.$.$.$.$.$.$.' p 0 9 4 < < - X X G                 ",
"                  o.w X + < < < 2 9 e k ] $.$.$.$.$.$.$.$.$.$.$.$.$.$.$.$.$.$.$.$.$.$.] k e 9 7 < < < - X X v                   ",
"                      g X O - < < 1 6 9 e k K $.$.$.$.$.$.$.$.$.$.$.$.$.$.$.$.$.$.K k e 9 9 4 < < < + X X G                     ",
"                        c X X + < < < 1 6 9 0 p z K $.$.$.$.$.$.$.$.$.$.$.$.K z p 0 9 9 4 < < < - + X X G                       ",
"                          F X X O - < < < 1 5 9 9 0 y j k z B B B B z k j y 0 9 9 8 4 < < < < + X X X (                         ",
"                            P r X X + - < < < < < 1 5 9 9 9 9 9 9 9 9 9 9 8 4 < < < < < < + + X X h (                           ",
"                                P w X X + + < < < < < < < < < < < < < < < < < < < < - + + X X h (                               ",
"                                    b X X X X + - < < < < < < < < < < < < < < - + + X X X w G                                   ",
"                                        P r X X X X + + + + + + + + + + + + + X X X X h (                                       ",
"                                            U m u X X X X X X X X X X X X X X & g D (                                           ",
"                                                    ) U C m d d d d g C D ^ (                                                   "
};
