/* XPM */
static char *_21f1d6372b5438df99dd1d59dc20c9aVuYVXIRi7wicm40e[] = {
/* columns rows colors chars-per-pixel */
"50 50 238 2 ",
"   c #00E700",
".  c #FDFEFD",
"X  c #EEFBEE",
"o  c #03E703",
"O  c #01E701",
"+  c #FEFFFE",
"@  c #FAFEFA",
"#  c white",
"$  c #00E600",
"%  c #01E501",
"&  c #07E707",
"*  c #05E605",
"=  c #01E401",
"-  c #0DE70D",
";  c #FEFEFE",
":  c #FCFDFC",
">  c #28E728",
",  c #02E702",
"<  c #E5FAE5",
"1  c #13E713",
"2  c #30E730",
"3  c #18E718",
"4  c #4AE74A",
"5  c #22E522",
"6  c #03E203",
"7  c #1EE71E",
"8  c #FBFBFB",
"9  c #F4FDF4",
"0  c #42E742",
"q  c #04DF04",
"w  c #000200",
"e  c #F8F9F8",
"r  c #EDF0ED",
"t  c #9BEE9B",
"y  c #DFF9DF",
"u  c #3EE33E",
"i  c #07E407",
"p  c #C6D3C6",
"a  c #9ABD9A",
"s  c #F3F5F3",
"d  c #F7FEF7",
"f  c #8CEC8C",
"g  c #71EA71",
"h  c #63E963",
"j  c #DAE0DA",
"k  c #23E123",
"l  c #1DD01D",
"z  c #BAF3BA",
"x  c #C7F5C7",
"c  c #E6ECE6",
"v  c #F0F2F0",
"b  c #36E736",
"n  c #56E756",
"m  c #5DE95D",
"M  c #7EEB7E",
"N  c #DAF7DA",
"B  c #F4F7F4",
"V  c #F1FCF1",
"C  c #0DE20D",
"Z  c #10E610",
"A  c #A8C4A8",
"S  c #0ED80E",
"D  c #CCEFCC",
"F  c #7EB77E",
"G  c #ACF1AC",
"H  c #A5EFA5",
"J  c #F7F8F7",
"K  c #78EB78",
"L  c #E9FBE9",
"P  c #77E377",
"I  c #07DD07",
"U  c #BFCEBF",
"Y  c #B0C5B0",
"T  c #D7F8D7",
"R  c #EBEDEB",
"E  c #E3E7E3",
"W  c #E5EAE5",
"Q  c #DEE5DE",
"!  c #D3F6D3",
"~  c #CEF6CE",
"^  c #84EC84",
"/  c #CEDECE",
"(  c #69E769",
")  c #CDF3CD",
"_  c #17E517",
"`  c #36D536",
"'  c #ECF8EC",
"]  c #2BDC2B",
"[  c #B4E3B4",
"{  c #DFF1DF",
"}  c #B8CBB8",
"|  c #58E358",
" . c #F3FBF3",
".. c #F6FCF6",
"X. c #E4F5E4",
"o. c #E0F6E0",
"O. c #36C436",
"+. c #B3F1B3",
"@. c #D8E3D8",
"#. c #50E850",
"$. c #97EC97",
"%. c #3DE73D",
"&. c #D1DAD1",
"*. c #ADEDAD",
"=. c #C1E0C1",
"-. c #80E880",
";. c #D3DDD3",
":. c #B8D0B8",
">. c #ADD2AD",
",. c #29E429",
"<. c #96E896",
"1. c #68C468",
"2. c #70CA70",
"3. c #98CD98",
"4. c #32D032",
"5. c #51C351",
"6. c #17E217",
"7. c #0EDF0E",
"8. c #1FD51F",
"9. c #23D923",
"0. c #74BC74",
"q. c #5DDF5D",
"w. c #9CC49C",
"e. c #C0E7C0",
"r. c #94E494",
"t. c #55D955",
"y. c #60BE60",
"u. c #24CD24",
"i. c #39DD39",
"p. c #13D513",
"a. c #92D692",
"s. c #ABDAAB",
"d. c #B6E8B6",
"f. c #63B763",
"g. c #91EE91",
"h. c #C2F3C2",
"j. c #C1D6C1",
"k. c #6AEA6A",
"l. c #BAF0BA",
"z. c #5FE55F",
"x. c #91C691",
"c. c #9EEA9E",
"v. c #32E132",
"b. c #AFCEAF",
"n. c #9DD39D",
"m. c #D6F1D6",
"M. c #86CB86",
"N. c #B0DEB0",
"B. c #49D249",
"V. c #42CB42",
"C. c #36E536",
"Z. c #18DF18",
"A. c #7CDB7C",
"S. c #71D571",
"D. c #8BDF8B",
"F. c #A5E0A5",
"G. c #14DA14",
"H. c #8BC18B",
"J. c #B6D9B6",
"K. c #7CE07C",
"L. c #B6ECB6",
"P. c #D3EED3",
"I. c #30C630",
"U. c #B4C7B4",
"Y. c #69B769",
"T. c #49BD49",
"R. c #85B885",
"E. c #A1BFA1",
"W. c #D0E4D0",
"Q. c #DBEADB",
"!. c #A6EBA6",
"~. c #C8D9C8",
"^. c #75E875",
"/. c #86E886",
"(. c #6FDE6F",
"). c #C1DAC1",
"_. c #A2CAA2",
"`. c #BCD5BC",
"'. c #5DCB5D",
"]. c #4EDE4E",
"[. c #4DE34D",
"{. c #4DCC4D",
"}. c #8DD18D",
"|. c #9FE49F",
" X c #46DF46",
".X c #ADE7AD",
"XX c #56D556",
"oX c #61D361",
"OX c #1ADC1A",
"+X c #5DDB5D",
"@X c #C7E9C7",
"#X c #3ACA3A",
"$X c #D0EAD0",
"%X c #79D379",
"&X c #3FDA3F",
"*X c #CED8CE",
"=X c #94DA94",
"-X c #86BD86",
";X c #2BCA2B",
":X c #0BDA0B",
">X c #45C445",
",X c #93BB93",
"<X c #8CBA8C",
"1X c #52BE52",
"2X c #70B770",
"3X c #E8F0E8",
"4X c #C1EEC1",
"5X c #E0EDE0",
"6X c #A5D9A5",
"7X c #88D988",
"8X c #83C683",
"9X c #88E388",
"0X c #78C578",
"qX c #5ACF5A",
"wX c #67DC67",
"eX c #77C177",
"rX c #2BD52B",
"tX c #5BC65B",
"yX c #EEF5EE",
"uX c #73D973",
"iX c #81D181",
"pX c #99DF99",
"aX c #40C140",
"sX c #45D745",
"dX c #E9F4E9",
"fX c #56B956",
"gX c #4CBB4C",
"hX c #BFF4BF",
"jX c #6BE36B",
"kX c #BEF0BE",
"lX c #68D168",
"zX c #77CD77",
"xX c #ABCAAB",
"cX c #3FDE3F",
"vX c #A3D0A3",
"bX c #B3C9B3",
"nX c #00BF00",
"mX c #002000",
/* pixels */
"# # # # # + + + @ .. .' dXX.{ m.$X@Xe.e.[ [ N.N.s.s.s.s.s.s.J.J.J.).)./ / @.Q E c r v s J e 8 : : ; ",
"# # # # + + : @ .. .' X.{ P.D @Xd.[ F.F.pXpX=X=X=Xa.a.a.a.a.n.n.vX>.>.`.j.~./ @.Q E R r v B J 8 : : ",
"# # # + + @ d  .' X.o.m.D e.d..X|.pXD.D.A.A.A.uXuXS.S.S.%X%XiXiX}.3.3.vX>.:.`.~.&.j Q W R v s J 8 : ",
"# + + . @ ..V ' o.m.D 4Xd..X|.r.D.K.(.(.wX+X+Xt.t.t.t.XXXXoXoXlX2.zXM.M.3._.b.:.j.~.;.Q E R v s J 8 ",
"+ + . @ ..X < o.m.D L..X|.r.9XK.(.q.q.]. X XcXi.i.i.i.&X&XsXsXB.qX'.2.2.8Xx.x._.b.:.p &.j E c r s J ",
"+ @ @ 9 X < N ) 4XL.!.r.9XP jXq.]. Xu v.v.k k k k k OXk ] ] ] ` ` B.{.'.1.0X8Xx.w.xX:.p &.j E R r s ",
"@ @  .X < N ) 4X.Xc.9XP jX| [.u v.,.k 5 _ _ _ Z Z C C C 6.Z.Z.OX9.rX` V.{.tX1.eXH.w.A } p &.j E R v ",
"@ 9 X < N ) l.*.<./.P z.[.u v.,.5 _ Z Z i * * * * % % % i i C C 7.OX9.rX4.V.5.1.eXH.w.A } p &.j E R ",
"9 X < N ) l.!.<.-.jX| [.C.,.5 _ Z * * * $ $ $ O $ $ $ $ $ % % = 6 7.7.G.8.4.V.5.y.0.-Xa A } p &.Q W ",
"X < N ) l.!.<.-.jX| u C.5 _ Z * * , O O                   $ $ $ % 6 6 7.G.8.4.#X5.y.0.-Xa Y } p j E ",
"L N ) kX*.<.-.( n 0 2 5 1 - * , O                             $ $ % = 6 q G.8.u.#X1Xy.0.<XE.U.U *Xj ",
"y ! h.*.$.-.( n u 2 7 Z * o O                                     $ % = 6 I S 8.;XaX1XY.F ,XA } p ;.",
"! x +.c./.g n 0 2 7 Z & o O                                         $ % = 6 I S l I.aXfX2XR.a Y U *X",
"~ l.H f ^.z.4 2 7 Z & , O                                             $ % = 6 I p.u.O.T.f.F ,XA } p ",
"h.*.$.-.( 4 C.5 1 & , O                                                 $ % = q :Xl ;XaXfX2XR.a Y U ",
"l.H f g n %.> 3 & o O                                                   $ $ = 6 I p.u.O.gXf.F ,XA U ",
"G $.M h 4 2 7 - o O                                                       $ % = q S l I.T.f.F <XE.} ",
"H f g n %.> 1 & ,                                                         $ $ = q :Xp.;XaXfX2X<XE.U.",
"t M h 4 2 7 - o O                       = w w w w nX                        $ = 6 I p.u.O.fXY.R.a Y ",
"g.K m 0 > 3 & ,                         = w                                 $ % 6 I S u.O.gXY.F a Y ",
"f g #.b 7 - o O                         = w                                 $ % = q S l O.gXf.F a Y ",
"^ k.4 2 7 - o O                         = w w w mX                          $ % = q S l I.T.f.F a Y ",
"M h 4 2 3 & ,                           = w                                 $ % = q :Xl I.gXf.F a Y ",
"M m 0 > 3 & ,                           = w                                 $ % = q S l I.T.Y.R.a Y ",
"K m 0 > 1 & O                           = w                                 $ % = q S l O.1XY.R.E.U.",
"K m 0 > 1 & O                                                               $ % = I S u.O.1X2X<XE.} ",
"K m 0 > 1 & ,                                                               $ % 6 I p.u.>Xy.0.,XA } ",
"M m 0 > 3 & ,                                                               $ = 6 :X8.;X>Xy.F a Y U ",
"M h 4 2 3 & o O                                                           $ % = q G.l #X5.0.-Xw.bXp ",
"^ k.#.b 7 - o O                                                           $ % 6 I 8.4.>Xy.0.H.A U *X",
"f g n %.> 1 & ,                                                         $ % = q G.8.#X5.1.-Xw.bXp ;.",
"g.K m 0 2 3 - o O                                                       $ % 6 7.9.4.V.tXeXH.A :.*Xj ",
"t ^ k.#.b 5 1 & , O                                                   $ % 6 7.OXrXV.tX1.H.w.b.p ;.Q ",
"H g.K m 0 2 7 - o ,                                                 $ % = C OX9.4.{.1.0Xx.xX`.&.j W ",
"G t ^ k.#.%.> 3 - o O                                             $ $ = C Z.9.` {.'.0Xx._.:.~.j E R ",
"z H g.K h #.b > 3 - o , O                                       $ $ i C Z.9.` B.'.2.8X_.b.j.;.Q c v ",
"h.+.t f g m 4 b > 3 - & o O                                 $ $ % i C Z.9.` B.qX2.M.3.b.j./ Q c r s ",
"~ hXG t ^ g m 4 b > 3 1 & o , O O                       O $ * * i 6.Z.] ` B.qX2.M.3.>.j./ @.W r s J ",
"T x z G $.^ g m 4 %.> 5 _ - & o o , O O O O O O O O $ $ * * i C 6.k ] &XXXoXzXM.3.>.`./ @.W r s J 8 ",
"y ! x z G $.^ g m #.0 C.> 7 _ Z Z * & o o o * * * * * i Z 6.6.k ] i.sXXXlX%X}.n.>.)./ @.W r s J 8 : ",
"< y ! x z G t f K ( n 4 %.C.> 5 7 3 1 Z Z Z Z Z Z _ _ 6.k k v.i.&Xt.oXS.iX}.n.J.)./ Q c r s J 8 : : ",
"X < y ! x z G t g.M g h n 4 0 C.C.,.,.5 5 5 5 5 ,.,.,.v.v.cX].t.+XS.%X}.n.6XJ.=.W.Q.c v s J 8 : : ; ",
"V X < y ! ~ hX+.H t f -.^.( z.n [.4 u u u u u u u u  X].].+XwXuXA.7Xa.6XN.=./ @.5X3Xv B e 8 : : ; # ",
"..V X < y T ~ x z +.H $.f -.^.^.jXz.z.| | | | | q.q.q.wX(.A.7X7X=X6XN.=.=.W.Q.c r s J e 8 : ; ; # # ",
"@ ..9 X L < y T ~ x z +.H c.$.f /.-.P P P P P P K.K.K.D.D.pXF.F.N.=.=.W.Q.5X3Xv B e 8 : : ; # # # # ",
". @ d 9 V X L < y T ~ x h.l.*.*.!.c.c.<.r.r.r.r.r.|.|.F.N.[ [ e.@X$XQ.5X3Xv s e e 8 : ; ; # # # # # ",
"+ . @ d ..9 V X L < y N ! ~ x h.kXl.L.L.L..X.Xd.d.d.e.e.@X$X$XP.5X{ dXyXB J 8 8 : ; ; # # # # # # # ",
"+ + + . @ d ..9 V X L < < y N N ! ! ) ) D D D D D P.P.m.{ { { dXyXyXB e 8 8 : ; ; # # # # # # # # # ",
"# + + + + @ @ d ..9 9 V X X L < < < y o.o.o.o.o.X.X.X.dX' yXyXB e 8 8 : : ; ; # # # # # # # # # # # ",
"# # # + + + + . @ @ d d ..9 9 V V X X X X X X X X  . . .....8 : : . ; ; # # # # # # # # # # # # # # "
};
