/* XPM */
static char * ca_xpm[] = {
"64 64 8 1",
" 	c None",
".	c #FFB300",
"+	c #DB9B04",
"@	c #C38B06",
"#	c #EFC158",
"$	c #E0CDA2",
"%	c #D2AE5B",
"&	c #E7C780",
"                       ..................                       ",
"                       ..................                       ",
"                       ..................                       ",
"                       ..................                       ",
"                ..........++++++++++++..........                ",
"                ..........++++++++++++..........                ",
"                ..........++++++++++++..........                ",
"             ......+++++++............+++++++......             ",
"             ......+++++++............+++++++......             ",
"             ......+++++++............+++++++......             ",
"          ...++++++..........................++++++...          ",
"          ...++++++..........................++++++...          ",
"          ...++++++..........................++++++...          ",
"       ...+++................++++++................+++...       ",
"       ...+++................++++++................+++...       ",
"       ...+++................++++++................+++...       ",
"    ......+++......++++......+++@@@......@@@@......@@@###$$$    ",
"    ......+++......++++......+++@@@......@@@@......@@@###$$$    ",
"    ......+++......++++......+++@@@......@@@@......@@@###$$$    ",
"    ...+++.............+++++++++@@@@@@@@@.......###$$$$$$$$$    ",
"    ...+++.............+++++++++@@@@@@@@@.......###$$$$$$$$$    ",
"    ...+++.............+++++++++@@@@@@@@@.......###$$$$$$$$$    ",
"    ...+++.............+++++++++@@@@@@@@@.......###$$$$$$$$$    ",
".......+++...................@@@@@@..........######$$$%%%.......",
".......+++...................@@@@@@..........######$$$%%%.......",
".......+++...................@@@@@@..........######$$$%%%.......",
"....+++................+++...+++@@@...@@@####$$$$$$###...@@@....",
"....+++................+++...+++@@@...@@@####$$$$$$###...@@@....",
"....+++................+++...+++@@@...@@@####$$$$$$###...@@@....",
"....+++................++++++@@@@@@@@@@@@$$$$######......@@@....",
"....+++................++++++@@@@@@@@@@@@$$$$######......@@@....",
"....+++................++++++@@@@@@@@@@@@$$$$######......@@@....",
"....+++......+++.............+++@@@###$$$$$$$&&&@@@......@@@....",
"....+++......+++.............+++@@@###$$$$$$$&&&@@@......@@@....",
"....+++......+++.............+++@@@###$$$$$$$&&&@@@......@@@....",
"....+++......++++++++++@@@@@@%%%%%%$$$%%%@@@@@@@@@@......@@@....",
"....+++......++++++++++@@@@@@%%%%%%$$$%%%@@@@@@@@@@......@@@....",
"....+++......++++++++++@@@@@@%%%%%%$$$%%%@@@@@@@@@@......@@@....",
".......+++.............######$$$$$$$$$................@@@.......",
".......+++.............######$$$$$$$$$................@@@.......",
".......+++.............######$$$$$$$$$................@@@.......",
"    ...@@@......#######$$$$$$$$$@@@###................@@@...    ",
"    ...@@@......#######$$$$$$$$$@@@###................@@@...    ",
"    ...@@@......#######$$$$$$$$$@@@###................@@@...    ",
"    ...@@@......#######$$$$$$$$$@@@###................@@@...    ",
"    ......@@@###$$$$$$$$$$+++@@@@@@@@@.............@@@......    ",
"    ......@@@###$$$$$$$$$$+++@@@@@@@@@.............@@@......    ",
"    ......@@@###$$$$$$$$$$+++@@@@@@@@@.............@@@......    ",
"       ...%%%$$$$$$#######...@@@@@@................@@@...       ",
"       ...%%%$$$$$$#######...@@@@@@................@@@...       ",
"       ...%%%$$$$$$#######...@@@@@@................@@@...       ",
"          $$$$$$@@@..........................@@@@@@...          ",
"          $$$$$$@@@..........................@@@@@@...          ",
"          $$$$$$@@@..........................@@@@@@...          ",
"             ......@@@@@@@............@@@@@@@......             ",
"             ......@@@@@@@............@@@@@@@......             ",
"             ......@@@@@@@............@@@@@@@......             ",
"                ..........@@@@@@@@@@@@..........                ",
"                ..........@@@@@@@@@@@@..........                ",
"                ..........@@@@@@@@@@@@..........                ",
"                       ..................                       ",
"                       ..................                       ",
"                       ..................                       ",
"                       ..................                       "};
