/* XPM */
static char * cb_xpm[] = {
"64 64 11 1",
" 	c None",
".	c #FFB300",
"+	c #DB9B04",
"@	c #E0CDA2",
"#	c #C38B06",
"$	c #EFC158",
"%	c #DFC384",
"&	c #E6C884",
"*	c #DAC085",
"=	c #D2AE5B",
"-	c #E3CA94",
"                      .............                             ",
"                      .............                             ",
"                      .............                             ",
"                ..........++++++..........                      ",
"                ..........++++++..........                      ",
"                ..........++++++..........                      ",
"             ......+++++++......++++++.......+++                ",
"             ......+++++++......++++++.......+++                ",
"             ......+++++++......++++++.......+++                ",
"         ....++++++...................+++++++...+++             ",
"         ....++++++...................+++++++...+++             ",
"         ....++++++...................+++++++...+++             ",
"         ....++++++...................+++++++...+++             ",
"      ...++++................+++.............+++...++++         ",
"      ...++++................+++.............+++...++++         ",
"      ...++++................+++.............+++...++++         ",
"   ......++++......+++@@@@...+++...###.......###...$$$$+++      ",
"   ......++++......+++@@@@...+++...###.......###...$$$$+++      ",
"   ......++++......+++@@@@...+++...###.......###...$$$$+++      ",
"   ...+++.............++++++++++###.............###@@@@%%%      ",
"   ...+++.............++++++++++###.............###@@@@%%%      ",
"   ...+++.............++++++++++###.............###@@@@%%%      ",
"   ...+++....................###................###&&&&...+++   ",
"   ...+++....................###................###&&&&...+++   ",
"   ...+++....................###................###&&&&...+++   ",
"   ...+++....................###................###&&&&...+++   ",
"   +++................++++...+++###.......$$$&&&@@@####...+++   ",
"   +++................++++...+++###.......$$$&&&@@@####...+++   ",
"   +++................++++...+++###.......$$$&&&@@@####...+++   ",
"   +++................+++++++######.......@@@...&&&####...+++   ",
"   +++................+++++++######.......@@@...&&&####...+++   ",
"   +++................+++++++######.......@@@...&&&####...+++   ",
"   +++.......+++.............+++......$$$$***......####...+++   ",
"   +++.......+++.............+++......$$$$***......####...+++   ",
"   +++.......+++.............+++......$$$$***......####...+++   ",
"   +++.......+++++++++##########@@@##########......####...+++   ",
"   +++.......+++++++++##########@@@##########......####...+++   ",
"   +++.......+++++++++##########@@@##########......####...+++   ",
"   ...+++....................###&&&.............###.......+++   ",
"   ...+++....................###&&&.............###.......+++   ",
"   ...+++....................###&&&.............###.......+++   ",
"   ...+++....................###&&&.............###.......+++   ",
"   ...###.................@@@===................###....+++      ",
"   ...###.................@@@===................###....+++      ",
"   ...###.................@@@===................###....+++      ",
"   ......####......&&&$$$$%%%###.............###.......         ",
"   ......####......&&&$$$$%%%###.............###.......         ",
"   ......####......&&&$$$$%%%###.............###.......         ",
"      ...####$$$@@@@@@.......###.............###...++++         ",
"      ...####$$$@@@@@@.......###.............###...++++         ",
"      ...####$$$@@@@@@.......###.............###...++++         ",
"         ----***###...................#######...+++             ",
"         ----***###...................#######...+++             ",
"         ----***###...................#######...+++             ",
"         ----***###...................#######...+++             ",
"             &&&...#######......######.......+++                ",
"             &&&...#######......######.......+++                ",
"             &&&...#######......######.......+++                ",
"                ..........######..........+++                   ",
"                ..........######..........+++                   ",
"                ..........######..........+++                   ",
"                      .............                             ",
"                      .............                             ",
"                      .............                             "};
