/* XPM */
static char * cc_xpm[] = {
"64 64 9 1",
" 	c None",
".	c #FFB300",
"+	c #DB9B04",
"@	c #C38B06",
"#	c #DFC384",
"$	c #E6C884",
"%	c #E9C574",
"&	c #E0CDA2",
"*	c #DAC085",
"                        ......+++                               ",
"                        ......+++                               ",
"                        ......+++                               ",
"                        ......+++                               ",
"                    .......+++++++++                            ",
"                    .......+++++++++                            ",
"                    .......+++++++++                            ",
"                    ....+++......++++++++++                     ",
"                    ....+++......++++++++++                     ",
"                    ....+++......++++++++++                     ",
"                 ...++++............+++++++                     ",
"                 ...++++............+++++++                     ",
"                 ...++++............+++++++                     ",
"                 +++...................+++++++                  ",
"                 +++...................+++++++                  ",
"                 +++...................+++++++                  ",
"              ...+++.............@@@...@@@@+++                  ",
"              ...+++.............@@@...@@@@+++                  ",
"              ...+++.............@@@...@@@@+++                  ",
"              ..........++++++@@@..........++++++               ",
"              ..........++++++@@@..........++++++               ",
"              ..........++++++@@@..........++++++               ",
"              ..........++++++@@@..........++++++               ",
"              ................................+++               ",
"              ................................+++               ",
"              ................................+++               ",
"              +++.......+++................@@@+++               ",
"              +++.......+++................@@@+++               ",
"              +++.......+++................@@@+++               ",
"              +++.......++++++@@@..........@@@+++               ",
"              +++.......++++++@@@..........@@@+++               ",
"              +++.......++++++@@@..........@@@+++               ",
"              +++...................@@@....@@@+++               ",
"              +++...................@@@....@@@+++               ",
"              +++...................@@@....@@@+++               ",
"              +++...++++@@@@@@@@@@@@@@@....@@@###               ",
"              +++...++++@@@@@@@@@@@@@@@....@@@###               ",
"              +++...++++@@@@@@@@@@@@@@@....@@@###               ",
"              ................................+++               ",
"              ................................+++               ",
"              ................................+++               ",
"              .........................$$$$++++++               ",
"              .........................$$$$++++++               ",
"              .........................$$$$++++++               ",
"              .........................$$$$++++++               ",
"              ...@@@.......+++@@@......@@@@+++                  ",
"              ...@@@.......+++@@@......@@@@+++                  ",
"              ...@@@.......+++@@@......@@@@+++                  ",
"                 @@@................%%%@@@@+++                  ",
"                 @@@................%%%@@@@+++                  ",
"                 @@@................%%%@@@@+++                  ",
"                 ...@@@@&&&...%%%&&&@@@....                     ",
"                 ...@@@@&&&...%%%&&&@@@....                     ",
"                 ...@@@@&&&...%%%&&&@@@....                     ",
"                    ....***&&&&&&@@@...++++                     ",
"                    ....***&&&&&&@@@...++++                     ",
"                    ....***&&&&&&@@@...++++                     ",
"                    $$$$%%%@@@@@@...+++                         ",
"                    $$$$%%%@@@@@@...+++                         ",
"                    $$$$%%%@@@@@@...+++                         ",
"                        .........                               ",
"                        .........                               ",
"                        .........                               ",
"                        .........                               "};
