/* XPM */
static char * cd_xpm[] = {
"64 64 8 1",
" 	c None",
".	c #FFB300",
"+	c #DB9B04",
"@	c #C38B06",
"#	c #E6C884",
"$	c #E0CDA2",
"%	c #DEBE75",
"&	c #E9C574",
"                           ...+++                               ",
"                           ...+++                               ",
"                           ...+++                               ",
"                        ...+++++++++                            ",
"                        ...+++++++++                            ",
"                        ...+++++++++                            ",
"                        ...+++++++++                            ",
"                        .........++++++                         ",
"                        .........++++++                         ",
"                        .........++++++                         ",
"                    ....+++.........+++                         ",
"                    ....+++.........+++                         ",
"                    ....+++.........+++                         ",
"                    ++++............+++++++                     ",
"                    ++++............+++++++                     ",
"                    ++++............+++++++                     ",
"                    ++++.........@@@@@@++++                     ",
"                    ++++.........@@@@@@++++                     ",
"                    ++++.........@@@@@@++++                     ",
"                    .......+++@@@......++++                     ",
"                    .......+++@@@......++++                     ",
"                    .......+++@@@......++++                     ",
"                    .......................                     ",
"                    .......................                     ",
"                    .......................                     ",
"                    .......................                     ",
"                    ...................@@@@                     ",
"                    ...................@@@@                     ",
"                    ...................@@@@                     ",
"                    .......+++@@@......@@@@                     ",
"                    .......+++@@@......@@@@                     ",
"                    .......+++@@@......@@@@                     ",
"                    ...................@@@@                     ",
"                    ...................@@@@                     ",
"                    ...................@@@@                     ",
"                    ....+++@@@@@@@@@...@@@@                     ",
"                    ....+++@@@@@@@@@...@@@@                     ",
"                    ....+++@@@@@@@@@...@@@@                     ",
"                    .......................                     ",
"                    .......................                     ",
"                    .......................                     ",
"                    .......................                     ",
"                    ...................++++                     ",
"                    ...................++++                     ",
"                    ...................++++                     ",
"                    @@@@...+++@@@...@@@++++                     ",
"                    @@@@...+++@@@...@@@++++                     ",
"                    @@@@...+++@@@...@@@++++                     ",
"                    @@@@............@@@++++                     ",
"                    @@@@............@@@++++                     ",
"                    @@@@............@@@++++                     ",
"                    ....@@@.........###                         ",
"                    ....@@@.........###                         ",
"                    ....@@@.........###                         ",
"                        .........$$$%%%                         ",
"                        .........$$$%%%                         ",
"                        .........$$$%%%                         ",
"                        ...@@@$$$&&&                            ",
"                        ...@@@$$$&&&                            ",
"                        ...@@@$$$&&&                            ",
"                        ...@@@$$$&&&                            ",
"                           ...&&&                               ",
"                           ...&&&                               ",
"                           ...&&&                               "};
