/* XPM */
static char * ce_xpm[] = {
"64 64 4 1",
" 	c None",
".	c #DB9B04",
"+	c #C38B06",
"@	c #E0CDA2",
"                             ...                                ",
"                             ...                                ",
"                             ...                                ",
"                             ......                             ",
"                             ......                             ",
"                             ......                             ",
"                             ......                             ",
"                             ......                             ",
"                             ......                             ",
"                             ......                             ",
"                             ......                             ",
"                             ......                             ",
"                             ......                             ",
"                             ......                             ",
"                             ......                             ",
"                             ......                             ",
"                             ......                             ",
"                             ......                             ",
"                             ......                             ",
"                             ......                             ",
"                             ......                             ",
"                             ......                             ",
"                             ......                             ",
"                             ......                             ",
"                             ......                             ",
"                             ......                             ",
"                             ......                             ",
"                             ......                             ",
"                             ......                             ",
"                             ......                             ",
"                             ......                             ",
"                             ......                             ",
"                             ......                             ",
"                             ......                             ",
"                             ......                             ",
"                             ...+++                             ",
"                             ...+++                             ",
"                             ...+++                             ",
"                             ......                             ",
"                             ......                             ",
"                             ......                             ",
"                             ......                             ",
"                             ......                             ",
"                             ......                             ",
"                             ......                             ",
"                             ......                             ",
"                             ......                             ",
"                             ......                             ",
"                             ......                             ",
"                             ......                             ",
"                             ......                             ",
"                             ......                             ",
"                             ......                             ",
"                             ......                             ",
"                             ...+++                             ",
"                             ...+++                             ",
"                             ...+++                             ",
"                             +++@@@                             ",
"                             +++@@@                             ",
"                             +++@@@                             ",
"                             +++@@@                             ",
"                             @@@                                ",
"                             @@@                                ",
"                             @@@                                "};
