/* XPM */
static char * cf_xpm[] = {
"64 64 7 1",
" 	c None",
".	c #E0CDA2",
"+	c #DB9B04",
"@	c #E8C67A",
"#	c #DEC07B",
"$	c #FFB300",
"%	c #C38B06",
"                              ......                            ",
"                              ......                            ",
"                              ......                            ",
"                           ......+++@@@                         ",
"                           ......+++@@@                         ",
"                           ......+++@@@                         ",
"                        ...###...$$$$$$                         ",
"                        ...###...$$$$$$                         ",
"                        ...###...$$$$$$                         ",
"                        ...###...$$$$$$                         ",
"                        ###...$$$$$$+++$$$$                     ",
"                        ###...$$$$$$+++$$$$                     ",
"                        ###...$$$$$$+++$$$$                     ",
"                    ....+++$$$$$$$$$$$$++++                     ",
"                    ....+++$$$$$$$$$$$$++++                     ",
"                    ....+++$$$$$$$$$$$$++++                     ",
"                    ####%%%%%%$$$$$$$$$++++                     ",
"                    ####%%%%%%$$$$$$$$$++++                     ",
"                    ####%%%%%%$$$$$$$$$++++                     ",
"                    ####$$$$$$%%%+++$$$$$$$                     ",
"                    ####$$$$$$%%%+++$$$$$$$                     ",
"                    ####$$$$$$%%%+++$$$$$$$                     ",
"                    $$$$$$$$$$$$$$$$$$$$$$$                     ",
"                    $$$$$$$$$$$$$$$$$$$$$$$                     ",
"                    $$$$$$$$$$$$$$$$$$$$$$$                     ",
"                    $$$$$$$$$$$$$$$$$$$$$$$                     ",
"                    %%%%$$$$$$$$$$$$$$$$$$$                     ",
"                    %%%%$$$$$$$$$$$$$$$$$$$                     ",
"                    %%%%$$$$$$$$$$$$$$$$$$$                     ",
"                    %%%%$$$$$$%%%+++$$$$$$$                     ",
"                    %%%%$$$$$$%%%+++$$$$$$$                     ",
"                    %%%%$$$$$$%%%+++$$$$$$$                     ",
"                    %%%%$$$$$$$$$$$$$$$$$$$                     ",
"                    %%%%$$$$$$$$$$$$$$$$$$$                     ",
"                    %%%%$$$$$$$$$$$$$$$$$$$                     ",
"                    %%%%$$$%%%%%%%%%+++$$$$                     ",
"                    %%%%$$$%%%%%%%%%+++$$$$                     ",
"                    %%%%$$$%%%%%%%%%+++$$$$                     ",
"                    $$$$$$$$$$$$$$$$$$$$$$$                     ",
"                    $$$$$$$$$$$$$$$$$$$$$$$                     ",
"                    $$$$$$$$$$$$$$$$$$$$$$$                     ",
"                    $$$$$$$$$$$$$$$$$$$$$$$                     ",
"                    ++++$$$$$$$$$$$$$$$$$$$                     ",
"                    ++++$$$$$$$$$$$$$$$$$$$                     ",
"                    ++++$$$$$$$$$$$$$$$$$$$                     ",
"                    ++++%%%$$$%%%+++$$$%%%%                     ",
"                    ++++%%%$$$%%%+++$$$%%%%                     ",
"                    ++++%%%$$$%%%+++$$$%%%%                     ",
"                    ++++%%%$$$$$$$$$$$$%%%%                     ",
"                    ++++%%%$$$$$$$$$$$$%%%%                     ",
"                    ++++%%%$$$$$$$$$$$$%%%%                     ",
"                        $$$$$$$$$$$$%%%$$$$                     ",
"                        $$$$$$$$$$$$%%%$$$$                     ",
"                        $$$$$$$$$$$$%%%$$$$                     ",
"                        +++%%%$$$$$$$$$                         ",
"                        +++%%%$$$$$$$$$                         ",
"                        +++%%%$$$$$$$$$                         ",
"                        +++%%%$$$$$$$$$                         ",
"                           $$$%%%%%%$$$                         ",
"                           $$$%%%%%%$$$                         ",
"                           $$$%%%%%%$$$                         ",
"                              $$$$$$                            ",
"                              $$$$$$                            ",
"                              $$$$$$                            "};
