/* XPM */
static char * cg_xpm[] = {
"64 64 11 1",
" 	c None",
".	c #DB9B04",
"+	c #FFB300",
"@	c #EEDAAC",
"#	c #E0CDA2",
"$	c #E8C67A",
"%	c #DEC07B",
"&	c #C38B06",
"*	c #E9DDC2",
"=	c #E6C884",
"-	c #E7DCC2",
"                              ...++++++                         ",
"                              ...++++++                         ",
"                              ...++++++                         ",
"                           .........+++@@@@                     ",
"                           .........+++@@@@                     ",
"                           .........+++@@@@                     ",
"                           .........+++@@@@                     ",
"                    ..........+++###...####                     ",
"                    ..........+++###...####                     ",
"                    ..........+++###...####                     ",
"                    .......+++###$$$@@@%%%%+++                  ",
"                    .......+++###$$$@@@%%%%+++                  ",
"                    .......+++###$$$@@@%%%%+++                  ",
"                 .......######$$$++++++++++...                  ",
"                 .......######$$$++++++++++...                  ",
"                 .......######$$$++++++++++...                  ",
"                 ...&&&&***&&&+++++++++++++...+++               ",
"                 ...&&&&***&&&+++++++++++++...+++               ",
"                 ...&&&&***&&&+++++++++++++...+++               ",
"              ...###$$$$++++++&&&......++++++++++               ",
"              ...###$$$$++++++&&&......++++++++++               ",
"              ...###$$$$++++++&&&......++++++++++               ",
"              %%%$$$====+++++++++++++++++++++++++               ",
"              %%%$$$====+++++++++++++++++++++++++               ",
"              %%%$$$====+++++++++++++++++++++++++               ",
"              %%%$$$====+++++++++++++++++++++++++               ",
"              ---###++++++++++++++++...+++++++...               ",
"              ---###++++++++++++++++...+++++++...               ",
"              ---###++++++++++++++++...+++++++...               ",
"              ...&&&++++++++++&&&......+++++++...               ",
"              ...&&&++++++++++&&&......+++++++...               ",
"              ...&&&++++++++++&&&......+++++++...               ",
"              ...&&&++++&&&+++++++++++++++++++...               ",
"              ...&&&++++&&&+++++++++++++++++++...               ",
"              ...&&&++++&&&+++++++++++++++++++...               ",
"              ...&&&++++&&&&&&&&&&&&&&&....+++...               ",
"              ...&&&++++&&&&&&&&&&&&&&&....+++...               ",
"              ...&&&++++&&&&&&&&&&&&&&&....+++...               ",
"              ...++++++++++++++++++++++++++++++++               ",
"              ...++++++++++++++++++++++++++++++++               ",
"              ...++++++++++++++++++++++++++++++++               ",
"              ...++++++++++++++++++++++++++++++++               ",
"              ......+++++++++++++++++++++++++++++               ",
"              ......+++++++++++++++++++++++++++++               ",
"              ......+++++++++++++++++++++++++++++               ",
"                 ...&&&&++++++&&&...+++++++&&&+++               ",
"                 ...&&&&++++++&&&...+++++++&&&+++               ",
"                 ...&&&&++++++&&&...+++++++&&&+++               ",
"                 ...&&&&+++++++++++++++++++&&&                  ",
"                 ...&&&&+++++++++++++++++++&&&                  ",
"                 ...&&&&+++++++++++++++++++&&&                  ",
"                    ++++&&&++++++++++++&&&&+++                  ",
"                    ++++&&&++++++++++++&&&&+++                  ",
"                    ++++&&&++++++++++++&&&&+++                  ",
"                    ....+++&&&++++++&&&++++                     ",
"                    ....+++&&&++++++&&&++++                     ",
"                    ....+++&&&++++++&&&++++                     ",
"                        ...+++&&&&&&+++++++                     ",
"                        ...+++&&&&&&+++++++                     ",
"                        ...+++&&&&&&+++++++                     ",
"                        ...+++&&&&&&+++++++                     ",
"                              +++++++++                         ",
"                              +++++++++                         ",
"                              +++++++++                         "};
