/* XPM */
static char * ch_xpm[] = {
"64 64 10 1",
" 	c None",
".	c #FFB300",
"+	c #DB9B04",
"@	c #EEDAAC",
"#	c #E6C884",
"$	c #E0CDA2",
"%	c #DFC384",
"&	c #C38B06",
"*	c #E8DEC9",
"=	c #E7D5AC",
"                       ............                             ",
"                       ............                             ",
"                       ............                             ",
"                       ............                             ",
"                ..........++++++.........                       ",
"                ..........++++++.........                       ",
"                ..........++++++.........                       ",
"             ......+++++++......++++++@@@####$$$                ",
"             ......+++++++......++++++@@@####$$$                ",
"             ......+++++++......++++++@@@####$$$                ",
"          ...++++++................@@@%%%$$$$...+++             ",
"          ...++++++................@@@%%%$$$$...+++             ",
"          ...++++++................@@@%%%$$$$...+++             ",
"       ...+++................+++@@@$$$###....+++...+++          ",
"       ...+++................+++@@@$$$###....+++...+++          ",
"       ...+++................+++@@@$$$###....+++...+++          ",
"    ......+++......++++......%%%$$$&&&.......&&&......+++       ",
"    ......+++......++++......%%%$$$&&&.......&&&......+++       ",
"    ......+++......++++......%%%$$$&&&.......&&&......+++       ",
"    ...+++.............+++$$$+++&&&.............&&&...+++       ",
"    ...+++.............+++$$$+++&&&.............&&&...+++       ",
"    ...+++.............+++$$$+++&&&.............&&&...+++       ",
"    ...+++.............+++$$$+++&&&.............&&&...+++       ",
"    ...+++.............$$$###&&&................&&&......+++    ",
"    ...+++.............$$$###&&&................&&&......+++    ",
"    ...+++.............$$$###&&&................&&&......+++    ",
"    +++......$$$...@@@@$$$...+++&&&................&&&...+++    ",
"    +++......$$$...@@@@$$$...+++&&&................&&&...+++    ",
"    +++......$$$...@@@@$$$...+++&&&................&&&...+++    ",
"    +++......###***....++++++&&&&&&................&&&...+++    ",
"    +++......###***....++++++&&&&&&................&&&...+++    ",
"    +++......###***....++++++&&&&&&................&&&...+++    ",
"    +++$$$$$$===.............+++.........&&&&......&&&...+++    ",
"    +++$$$$$$===.............+++.........&&&&......&&&...+++    ",
"    +++$$$$$$===.............+++.........&&&&......&&&...+++    ",
"    ===###...++++++++++&&&&&&&&&&&&&&&&&&&&&&......&&&...+++    ",
"    ===###...++++++++++&&&&&&&&&&&&&&&&&&&&&&......&&&...+++    ",
"    ===###...++++++++++&&&&&&&&&&&&&&&&&&&&&&......&&&...+++    ",
"    $$$+++...................&&&................&&&......+++    ",
"    $$$+++...................&&&................&&&......+++    ",
"    $$$+++...................&&&................&&&......+++    ",
"    ...&&&...................&&&................&&&...+++       ",
"    ...&&&...................&&&................&&&...+++       ",
"    ...&&&...................&&&................&&&...+++       ",
"    ...&&&...................&&&................&&&...+++       ",
"    ......&&&.............+++&&&.............&&&......          ",
"    ......&&&.............+++&&&.............&&&......          ",
"    ......&&&.............+++&&&.............&&&......          ",
"       ...&&&................&&&.............&&&...+++          ",
"       ...&&&................&&&.............&&&...+++          ",
"       ...&&&................&&&.............&&&...+++          ",
"          ...&&&&&&...................&&&&&&&...+++             ",
"          ...&&&&&&...................&&&&&&&...+++             ",
"          ...&&&&&&...................&&&&&&&...+++             ",
"             ......&&&&&&&......&&&&&&.......+++                ",
"             ......&&&&&&&......&&&&&&.......+++                ",
"             ......&&&&&&&......&&&&&&.......+++                ",
"                ..........&&&&&&.........++++                   ",
"                ..........&&&&&&.........++++                   ",
"                ..........&&&&&&.........++++                   ",
"                       ............                             ",
"                       ............                             ",
"                       ............                             ",
"                       ............                             "};
