/* XPM */
static char * door_close_xpm[] = {
"64 64 12 1",
" 	c None",
".	c #3E3511",
"+	c #C5BF00",
"@	c #7C7800",
"#	c #DBD755",
"$	c #000000",
"%	c #433200",
"&	c #A49D00",
"*	c #C1BB00",
"=	c #847B00",
"-	c #746B00",
";	c #B5AE00",
"         ...............................................        ",
"         ...............................................        ",
"         ..+++++++++++++++++++++++++++++++++++++++++++..        ",
"         ..+++++++++++++++++++++++++++++++++++++++++++..        ",
"         ..+++++++++++++++++++++++++++++++++++++++++++..        ",
"         ..+++++++++++++++++++++++++++++++++++++++++++..        ",
"         ..+++++++++++++++++++++++++++++++++++++++++++..        ",
"         ..++++@@@@@@@@@@@@@@@@@@@@@@@@@@@@@@@@@@@++++..        ",
"         ..++++#@@@@@@@@@@@@@@@@@@@@@@@@@@@@@@@@@@++++..        ",
"         ..++++#@@@@@@@@@@@@@@@@@@@@@@@@@@@@@@@@@@++++..        ",
"         ..++++##++++++++++++++++++++++++++++++@@@++++..        ",
"         ..++++##++++++++++++++++++++++++++++++@@@++++..        ",
"         ..++++##++$$$$$$+$$++$$+$$$$$$+$$$$$++@@@++++..        ",
"         ..++++##++$$$$$$+$$++$$+$$$$$$+$$$$$++@@@++++..        ",
"         ..++++##++$$+++++$$++$$+++$$++++$$++++@@@++++..        ",
"         ..++++##++$$++++++$$$$++++$$++++$$++++@@@++++..        ",
"         ..++++##++$$$$+++++$$+++++$$++++$$++++@@@++++..        ",
"         ..++++##++$$$$+++++$$+++++$$++++$$++++@@@++++..        ",
"         ..++++##++$$++++++$$$$++++$$++++$$++++@@@++++..        ",
"         ..++++##++$$+++++$$++$$+++$$++++$$++++@@@++++..        ",
"         ..++++##++$$$$$$+$$++$$+$$$$$$++$$++++@@@++++..        ",
"         ..++++##++$$$$$$+$$++$$+$$$$$$++$$++++@@@++++..        ",
"         ..++++##++++++++++++++++++++++++++++++@@@++++..        ",
"         ..++++##++++++++++++++++++++++++++++++@@@++++..        ",
"         ..++++#################################@@++++..        ",
"         ..++++##################################@++++..        ",
"         ..+++++++++++++++++++++++++++++++++++++++++++..        ",
"         ..+++++++++++++++++++++++++++++++++++++++++++..        ",
"         ..+++++++++++++++++++++++++++++++++++++++++++..        ",
"         ..+++++++++++++++++++++++++++++++++++++++++++..        ",
"         ..+++++++++++++++++++++++++++++++++++++++++++..        ",
"         ..+++++++++++++++++++++++++++++++++++++++++++..        ",
"         ..+++++++++++++++++++++++++++++++++++++++++++..        ",
"         ..+++++++++++++++++++++++++++++++++++%%%%%&++..        ",
"         ..+++++++++++++++++++++++++++++++++++*=-%%&++..        ",
"         ..+++++++++++++++++++++++++++++++++++++;%%+++..        ",
"         ..+++++++++++++++++++++++++++++++++++++++++++..        ",
"         ..+++++++++++++++++++++++++++++++++++++++++++..        ",
"         ..+++++++++++++++++++++++++++++++++++++++++++..        ",
"         ..++++@@@@@@@@@@@@@@@@@@@@@@@@@@@@@@@@@@@++++..        ",
"         ..++++#@@@@@@@@@@@@@@@@@@@@@@@@@@@@@@@@@@++++..        ",
"         ..++++#@@@@@@@@@@@@@@@@@@@@@@@@@@@@@@@@@@++++..        ",
"         ..++++##++++++++++++++++++++++++++++++@@@++++..        ",
"         ..++++##++++++++++++++++++++++++++++++@@@++++..        ",
"         ..++++##++++++++++++++++++++++++++++++@@@++++..        ",
"         ..++++##++++++++++++++++++++++++++++++@@@++++..        ",
"         ..++++##++++++++++++++++++++++++++++++@@@++++..        ",
"         ..++++##++++++++++++++++++++++++++++++@@@++++..        ",
"         ..++++##++++++++++++++++++++++++++++++@@@++++..        ",
"         ..++++##++++++++++++++++++++++++++++++@@@++++..        ",
"         ..++++##++++++++++++++++++++++++++++++@@@++++..        ",
"         ..++++##++++++++++++++++++++++++++++++@@@++++..        ",
"         ..++++##++++++++++++++++++++++++++++++@@@++++..        ",
"         ..++++##++++++++++++++++++++++++++++++@@@++++..        ",
"         ..++++##++++++++++++++++++++++++++++++@@@++++..        ",
"         ..++++#################################@@++++..        ",
"         ..++++##################################@++++..        ",
"         ..++++###################################++++..        ",
"         ..+++++++++++++++++++++++++++++++++++++++++++..        ",
"         ..+++++++++++++++++++++++++++++++++++++++++++..        ",
"         ..+++++++++++++++++++++++++++++++++++++++++++..        ",
"         ..+++++++++++++++++++++++++++++++++++++++++++..        ",
"         ..+++++++++++++++++++++++++++++++++++++++++++..        ",
"         ..+++++++++++++++++++++++++++++++++++++++++++..        "};
