/* XPM */
static char * door_open_xpm[] = {
"64 64 198 2",
"  	c None",
". 	c #3E3511",
"+ 	c #A7A200",
"@ 	c #4C4900",
"# 	c #000000",
"$ 	c #C5BF00",
"% 	c #C2BC00",
"& 	c #8E8A00",
"* 	c #1B1A00",
"= 	c #B9B300",
"- 	c #6B6700",
"; 	c #A6A100",
"> 	c #434100",
", 	c #8A8600",
"' 	c #0E0D00",
") 	c #B8B300",
"! 	c #636000",
"~ 	c #B3AE01",
"{ 	c #B5AF00",
"] 	c #A5A000",
"^ 	c #353300",
"/ 	c #C9C430",
"( 	c #7D7905",
"_ 	c #8D8900",
": 	c #B2AD00",
"< 	c #C3BD00",
"[ 	c #858100",
"} 	c #CFCA36",
"| 	c #807C08",
"1 	c #7C7800",
"2 	c #7A7600",
"3 	c #B0AA00",
"4 	c #575500",
"5 	c #CEC935",
"6 	c #B6B23B",
"7 	c #888400",
"8 	c #7B7700",
"9 	c #868200",
"0 	c #ADA800",
"a 	c #C4BE00",
"b 	c #A49F00",
"c 	c #212000",
"d 	c #D9D550",
"e 	c #B6B000",
"f 	c #979200",
"g 	c #7E7A00",
"h 	c #827E00",
"i 	c #AAA500",
"j 	c #C1BB00",
"k 	c #D8D44F",
"l 	c #C8C100",
"m 	c #C0BA00",
"n 	c #7F7B00",
"o 	c #323000",
"p 	c #B1AC00",
"q 	c #B7B100",
"r 	c #938E00",
"s 	c #7D7900",
"t 	c #A29C00",
"u 	c #1E1D00",
"v 	c #666300",
"w 	c #686500",
"x 	c #BCB600",
"y 	c #B8B200",
"z 	c #C7C100",
"A 	c #817D00",
"B 	c #0D0D00",
"C 	c #BFB900",
"D 	c #B2AC00",
"E 	c #575400",
"F 	c #B3AE00",
"G 	c #807C00",
"H 	c #393700",
"I 	c #928D00",
"J 	c #9D9800",
"K 	c #716E00",
"L 	c #3D3A00",
"M 	c #676300",
"N 	c #787500",
"O 	c #938F00",
"P 	c #504D00",
"Q 	c #C6C000",
"R 	c #BBB500",
"S 	c #373500",
"T 	c #9E9900",
"U 	c #A8A200",
"V 	c #959000",
"W 	c #A19C00",
"X 	c #BFBA00",
"Y 	c #0A0A00",
"Z 	c #5D5A00",
"` 	c #C7C000",
" .	c #848000",
"..	c #514E00",
"+.	c #B4AF00",
"@.	c #403E00",
"#.	c #878200",
"$.	c #969200",
"%.	c #726F00",
"&.	c #5E5B00",
"*.	c #605D00",
"=.	c #302E00",
"-.	c #969100",
";.	c #A8A300",
">.	c #BEB900",
",.	c #DAD653",
"'.	c #D4CF45",
").	c #D3CE43",
"!.	c #D2CD40",
"~.	c #D0CB3C",
"{.	c #CFCA38",
"].	c #CEC833",
"^.	c #CCC72E",
"/.	c #CAC528",
"(.	c #C9C321",
"_.	c #C8C21A",
":.	c #C6C111",
"<.	c #948F05",
"[.	c #DBD754",
"}.	c #DBD755",
"|.	c #DBD756",
"1.	c #DCD856",
"2.	c #DCD857",
"3.	c #BDBA43",
"4.	c #BEB800",
"5.	c #C6C110",
"6.	c #C8C31E",
"7.	c #C8C21C",
"8.	c #C8C21B",
"9.	c #C7C219",
"0.	c #C7C217",
"a.	c #C7C116",
"b.	c #C7C115",
"c.	c #C7C113",
"d.	c #C6C00F",
"e.	c #C6C00D",
"f.	c #C5BF08",
"g.	c #837B00",
"h.	c #A8A100",
"i.	c #8E8700",
"j.	c #A7A100",
"k.	c #9A9500",
"l.	c #BDB700",
"m.	c #B6B100",
"n.	c #999400",
"o.	c #B4AE00",
"p.	c #918D00",
"q.	c #989300",
"r.	c #837F00",
"s.	c #BCB700",
"t.	c #827E01",
"u.	c #B5B000",
"v.	c #C8C230",
"w.	c #807C09",
"x.	c #D0CB38",
"y.	c #9E9A2A",
"z.	c #CFC936",
"A.	c #D9D44F",
"B.	c #CEC936",
"C.	c #D8D34E",
"D.	c #BBB600",
"E.	c #D0CB3A",
"F.	c #C4C045",
"G.	c #D6D24B",
"H.	c #D4CF44",
"I.	c #CBC62B",
"J.	c #BAB500",
"K.	c #C5BF01",
"L.	c #D2CD41",
"M.	c #CAC425",
"N.	c #726E00",
"O.	c #CEC937",
"P.	c #CEC834",
"Q.	c #C5BF03",
"R.	c #696600",
"S.	c #D4CF46",
"T.	c #CFCA37",
"U.	c #D9D450",
"V.	c #585500",
"W.	c #CFC937",
"X.	c #D9D551",
"Y.	c #D7D34D",
"Z.	c #C7C117",
"`.	c #C0BB00",
" +	c #504E00",
".+	c #D3CF44",
"++	c #C5C006",
"@+	c #484600",
"#+	c #413F00",
"$+	c #363400",
"%+	c #C6C00B",
"&+	c #2F2D00",
"*+	c #262500",
"=+	c #171600",
"-+	c #A39E00",
";+	c #131200",
">+	c #A09B00",
",+	c #070700",
"                  . . . . . . . . . . . . . . . . . . . . . . . . . . . . . . . . . . . . . . . . . . . . . . .                 ",
"                  . . . . . . . . . . . . . . . . . . . . . . . . . . . . . . . . . . . . . . . . . . . . . . .                 ",
"                  . . + @ # # # # # # # # # # # # # # # # # # # # # # # # # # # # # # # # # # # # # # # # # . .                 ",
"                  . . $ % & * # # # # # # # # # # # # # # # # # # # # # # # # # # # # # # # # # # # # # # # . .                 ",
"                  . . $ $ $ = - # # # # # # # # # # # # # # # # # # # # # # # # # # # # # # # # # # # # # # . .                 ",
"                  . . $ $ $ $ $ ; > # # # # # # # # # # # # # # # # # # # # # # # # # # # # # # # # # # # # . .                 ",
"                  . . $ $ $ $ $ $ % , ' # # # # # # # # # # # # # # # # # # # # # # # # # # # # # # # # # # . .                 ",
"                  . . $ $ $ $ $ $ $ $ ) ! # # # # # # # # # # # # # # # # # # # # # # # # # # # # # # # # # . .                 ",
"                  . . $ $ ~ { $ $ $ $ $ $ ] ^ # # # # # # # # # # # # # # # # # # # # # # # # # # # # # # # . .                 ",
"                  . . $ $ / ( _ : $ $ $ $ $ < [ # # # # # # # # # # # # # # # # # # # # # # # # # # # # # # . .                 ",
"                  . . $ $ } | 1 2 , 3 $ $ $ $ $ = 4 # # # # # # # # # # # # # # # # # # # # # # # # # # # # . .                 ",
"                  . . $ $ 5 6 7 8 1 2 9 0 a $ $ $ $ b c # # # # # # # # # # # # # # # # # # # # # # # # # # . .                 ",
"                  . . $ $ 5 d a e f g 8 8 h i a $ $ $ j # # # # # # # # # # # # # # # # # # # # # # # # # # . .                 ",
"                  . . $ $ 5 k a j l m + [ 2 8 n ; a $ % # # # # # # # # # # # # # # # # # # # # # # # # # # . .                 ",
"                  . . $ $ 5 k j o 2 p $ $ q r 1 8 s t j # # # # # # # # # # # # # # # # # # # # # # # # # # . .                 ",
"                  . . $ $ 5 k j # u v w x y z % ; A 1 m # # # # # # # # # # # # # # # # # # # # # # # # # # . .                 ",
"                  . . $ $ 5 k j B C D E F G H & j z I m # # # # # # # # # # # # # # # # # # # # # # # # # # . .                 ",
"                  . . $ $ 5 k j # p $ 9 J 7 K L M N O m # # # # # # # # # # # # # # # # # # # # # # # # # # . .                 ",
"                  . . $ $ 5 k j # P Q R S = T U V W O X # # # # # # # # # # # # # # # # # # # # # # # # # # . .                 ",
"                  . . $ $ 5 k j Y ; $ m Z Q T + f y r X # # # # # # # # # # # # # # # # # # # # # # # # # # . .                 ",
"                  . . $ $ 5 k j ' $ `  ...+.T + f ) r C # # # # # # # # # # # # # # # # # # # # # # # # # # . .                 ",
"                  . . $ $ 5 k j # @. .E +.#.V + $.= r C # # # # # # # # # # # # # # # # # # # # # # # # # # . .                 ",
"                  . . $ $ 5 k < %.&.1 *.: A # =.-.= r C # # # # # # # # # # # # # # # # # # # # # # # # # # . .                 ",
"                  . . $ $ 5 k $ Q Q $ < a m D ;.3 >.r C # # # # # # # # # # # # # # # # # # # # # # # # # # . .                 ",
"                  . . $ $ 5 ,.'.).!.~.{.].^./.(._.:.<.>.# # # # # # # # # # # # # # # # # # # # # # # # # # . .                 ",
"                  . . $ $ 5 [.}.}.}.|.|.1.1.1.2.2.2.3.4.# # # # # # # # # # # # # # # # # # # # # # # # # # . .                 ",
"                  . . $ $ 5.6.7.8._.9.0.a.b.c.:.d.e.f.C # # # # # # # # # # # # # # # # # # # # # # # # # # . .                 ",
"                  . . $ $ $ $ $ $ $ $ $ $ $ $ $ $ $ $ C # # # # # # # # # # # # # # # # # # # # # # # # # # . .                 ",
"                  . . $ $ $ $ $ $ $ $ $ $ $ $ $ $ $ $ C # # # # # # # # # # # # # # # # # # # # # # # # # # . .                 ",
"                  . . $ $ $ $ $ $ $ $ $ $ $ $ $ $ $ $ 4.# # # # # # # # # # # # # # # # # # # # # # # # # # . .                 ",
"                  . . $ $ $ $ $ $ $ $ $ $ $ $ $ $ < g.h.# # # # # # # # # # # # # # # # # # # # # # # # # # . .                 ",
"                  . . $ $ $ $ $ $ $ $ $ $ $ $ $ $ $ i.j.# # # # # # # # # # # # # # # # # # # # # # # # # # . .                 ",
"                  . . $ $ $ $ $ $ $ $ $ $ $ $ $ $ $ a 4.# # # # # # # # # # # # # # # # # # # # # # # # # # . .                 ",
"                  . . $ $ $ $ $ $ $ $ $ $ $ $ $ $ $ Q 4.# # # # # # # # # # # # # # # # # # # # # # # # # # . .                 ",
"                  . . $ $ $ $ $ $ $ $ $ $ $ Q $ = k.G l.# # # # # # # # # # # # # # # # # # # # # # # # # # . .                 ",
"                  . . $ $ $ $ $ $ $ $ Q a m.n.n 8 8 g l.# # # # # # # # # # # # # # # # # # # # # # # # # # . .                 ",
"                  . . $ $ $ $ $ Q < o.n.G 2 1 8 p.y p.l.# # # # # # # # # # # # # # # # # # # # # # # # # # . .                 ",
"                  . . $ $ $ j D q.A 2 1 2 r.] j Q $ I s.# # # # # # # # # # # # # # # # # # # # # # # # # # . .                 ",
"                  . . $ $ o.t.2 8 8 s r u.$ $ $ $ $ I s.# # # # # # # # # # # # # # # # # # # # # # # # # # . .                 ",
"                  . . $ $ v.w.2 9 ] C Q $ $ $ $ $ $ I x # # # # # # # # # # # # # # # # # # # # # # # # # # . .                 ",
"                  . . $ $ x.y.F a Q $ $ $ $ $ $ $ $ I x # # # # # # # # # # # # # # # # # # # # # # # # # # . .                 ",
"                  . . $ $ z.A.$ $ $ $ $ $ $ $ $ $ $ I x # # # # # # # # # # # # # # # # # # # # # # # # # # . .                 ",
"                  . . $ $ B.C.$ $ $ $ $ $ $ $ $ $ $ I D.# # # # # # # # # # # # # # # # # # # # # # # # # # . .                 ",
"                  . . $ $ B.C.$ $ $ $ $ $ $ $ $ $ $ I R # # # # # # # # # # # # # # # # # # # # # # # # # # . .                 ",
"                  . . $ $ B.C.$ $ $ $ $ $ $ $ $ $ E.F.R # # # # # # # # # # # # # # # # # # # # # # # # # # . .                 ",
"                  . . $ $ B.C.$ $ $ $ $ $ $ $ d.G.|.H.R # # # # # # # # # # # # # # # # # # # # # # # # # # . .                 ",
"                  . . $ $ B.C.$ $ $ $ $ $ $ I.,.}.B.$ J.# # # # # # # # # # # # # # # # # # # # # # # # # # . .                 ",
"                  . . $ $ B.C.$ $ $ $ $ K.L.}.,.M.$ $ R # # # # # # # # # # # # # # # # # # # # # # # # # # . .                 ",
"                  . . $ $ B.C.$ $ $ $ 8.C.}.C.c.$ $ $ N.# # # # # # # # # # # # # # # # # # # # # # # # # # . .                 ",
"                  . . $ $ O.C.$ $ $ P.[.}.'.Q.$ $ $ R.# # # # # # # # # # # # # # # # # # # # # # # # # # # . .                 ",
"                  . . $ $ O.C.$ e.S.}.}.T.$ $ $ a *.# # # # # # # # # # # # # # # # # # # # # # # # # # # # . .                 ",
"                  . . $ $ O.C.M.U.}.,./.$ $ $ % V.# # # # # # # # # # # # # # # # # # # # # # # # # # # # # . .                 ",
"                  . . $ $ W.X.[.}.Y.Z.$ $ $ `. +# # # # # # # # # # # # # # # # # # # # # # # # # # # # # # . .                 ",
"                  . . $ $ W.}.}..+++$ $ $ C @+# # # # # # # # # # # # # # # # # # # # # # # # # # # # # # # . .                 ",
"                  . . $ $ W.}.{.$ $ $ $ x #+# # # # # # # # # # # # # # # # # # # # # # # # # # # # # # # # . .                 ",
"                  . . $ $ 5 /.$ $ $ $ = $+# # # # # # # # # # # # # # # # # # # # # # # # # # # # # # # # # . .                 ",
"                  . . $ $ %+$ $ $ $ u.&+# # # # # # # # # # # # # # # # # # # # # # # # # # # # # # # # # # . .                 ",
"                  . . $ $ $ $ $ $ p *+# # # # # # # # # # # # # # # # # # # # # # # # # # # # # # # # # # # . .                 ",
"                  . . $ $ $ $ $ 0 c # # # # # # # # # # # # # # # # # # # # # # # # # # # # # # # # # # # # . .                 ",
"                  . . $ $ $ $ ;.=+# # # # # # # # # # # # # # # # # # # # # # # # # # # # # # # # # # # # # . .                 ",
"                  . . $ $ $ -+;+# # # # # # # # # # # # # # # # # # # # # # # # # # # # # # # # # # # # # # . .                 ",
"                  . . $ $ >+,+# # # # # # # # # # # # # # # # # # # # # # # # # # # # # # # # # # # # # # # . .                 ",
"                  . . $ k.# # # # # # # # # # # # # # # # # # # # # # # # # # # # # # # # # # # # # # # # # . .                 ",
"                  . . O # # # # # # # # # # # # # # # # # # # # # # # # # # # # # # # # # # # # # # # # # # . .                 "};
