/* XPM */
static char * pe_xpm[] = {
"64 64 12 1",
" 	c None",
".	c #3D7FFF",
"+	c #0057FF",
"@	c #5A9AFF",
"#	c #7FC6FF",
"$	c #ADE7FF",
"%	c #0042C3",
"&	c #E0FCFF",
"*	c #00308D",
"=	c #002161",
"-	c #00143C",
";	c #000B20",
"                                                                ",
"                                                                ",
"                                                                ",
"                                                                ",
"                                                                ",
"                                                                ",
"                                                                ",
"                                                                ",
"                                                                ",
"                                                                ",
"                                                                ",
"                                                                ",
"                                                                ",
"                     ......................                     ",
"                     ......................                     ",
"                     ......................                     ",
"                     ......................                     ",
"             ++++++++@@@@@############@@@@@++++++++             ",
"             ++++++++@@@@@############@@@@@++++++++             ",
"             ++++++++@@@@@############@@@@@++++++++             ",
"             ++++++++@@@@@############@@@@@++++++++             ",
"         ++++@@@@#########$$$$$$$$$$$$#########@@@@++++         ",
"         ++++@@@@#########$$$$$$$$$$$$#########@@@@++++         ",
"         ++++@@@@#########$$$$$$$$$$$$#########@@@@++++         ",
"         ++++@@@@#########$$$$$$$$$$$$#########@@@@++++         ",
"         ++++@@@@#########$$$$$$$$$$$$#########@@@@++++         ",
"    %%%%%@@@@####$$$$$$$$$&&&&&&&&&&&&$$$$$$$$$####@@@@%%%%%    ",
"    %%%%%@@@@####$$$$$$$$$&&&&&&&&&&&&$$$$$$$$$####@@@@%%%%%    ",
"    %%%%%@@@@####$$$$$$$$$&&&&&&&&&&&&$$$$$$$$$####@@@@%%%%%    ",
"    %%%%%@@@@####$$$$$$$$$&&&&&&&&&&&&$$$$$$$$$####@@@@%%%%%    ",
"    %%%%%####$$$$$$$$&&&&&&&&&&&&&&&&&&&&&&$$$$$$$$####%%%%%    ",
"    %%%%%####$$$$$$$$&&&&&&&&&&&&&&&&&&&&&&$$$$$$$$####%%%%%    ",
"    %%%%%####$$$$$$$$&&&&&&&&&&&&&&&&&&&&&&$$$$$$$$####%%%%%    ",
"    %%%%%####$$$$$$$$&&&&&&&&&&&&&&&&&&&&&&$$$$$$$$####%%%%%    ",
"****@@@@@####$$$$$$$$&&&&&&&&&&&&&&&&&&&&&&$$$$$$$$####@@@@@****",
"****@@@@@####$$$$$$$$&&&&&&&&&&&&&&&&&&&&&&$$$$$$$$####@@@@@****",
"****@@@@@####$$$$$$$$&&&&&&&&&&&&&&&&&&&&&&$$$$$$$$####@@@@@****",
"****@@@@@####$$$$$$$$&&&&&&&&&&&&&&&&&&&&&&$$$$$$$$####@@@@@****",
"****#####$$$$$$$$$$$$$$$$$$$$$$$$$$$$$$$$$$$$$$$$$$$$$$#####****",
"****#####$$$$$$$$$$$$$$$$$$$$$$$$$$$$$$$$$$$$$$$$$$$$$$#####****",
"****#####$$$$$$$$$$$$$$$$$$$$$$$$$$$$$$$$$$$$$$$$$$$$$$#####****",
"****#####$$$$$$$$$$$$$$$$$$$$$$$$$$$$$$$$$$$$$$$$$$$$$$#####****",
"****#####$$$$$$$$$$$$$$$$$$$$$$$$$$$$$$$$$$$$$$$$$$$$$$#####****",
"====#####$$$$$$$$----$$$$$$$$$$$$$$$$$$$$$$----$$$$$$$$#####====",
"====#####$$$$$$$$----$$$$$$$$$$$$$$$$$$$$$$----$$$$$$$$#####====",
"====#####$$$$$$$$----$$$$$$$$$$$$$$$$$$$$$$----$$$$$$$$#####====",
"====#####$$$$$$$$----$$$$$$$$$$$$$$$$$$$$$$----$$$$$$$$#####====",
"====#####$$$$$$$$;;;;$$$$$$$$$$$$$$$$$$$$$$;;;;$$$$$$$$#####====",
"====#####$$$$$$$$;;;;$$$$$$$$$$$$$$$$$$$$$$;;;;$$$$$$$$#####====",
"====#####$$$$$$$$;;;;$$$$$$$$$$$$$$$$$$$$$$;;;;$$$$$$$$#####====",
"====#####$$$$$$$$;;;;$$$$$$$$$$$$$$$$$$$$$$;;;;$$$$$$$$#####====",
"====#########$$$$$$$$$$$$$$$$$$$$$$$$$$$$$$$$$$$$$$#########====",
"====#########$$$$$$$$$$$$$$$$$$$$$$$$$$$$$$$$$$$$$$#########====",
"====#########$$$$$$$$$$$$$$$$$$$$$$$$$$$$$$$$$$$$$$#########====",
"====#########$$$$$$$$$$$$$$$$$$$$$$$$$$$$$$$$$$$$$$#########====",
"====@@@@@##############################################@@@@@====",
"====@@@@@##############################################@@@@@====",
"====@@@@@##############################################@@@@@====",
"====@@@@@##############################################@@@@@====",
"====@@@@@##############################################@@@@@====",
"    =========--------------------------------------=========    ",
"    =========--------------------------------------=========    ",
"    =========--------------------------------------=========    ",
"    =========--------------------------------------=========    "};
