/* XPM */
static char *result[] = {
/* columns rows colors chars-per-pixel */
"64 64 175 2 ",
"   c #35531E",
".  c #36591D",
"X  c #3D5E24",
"o  c #3E572C",
"O  c #3E5832",
"+  c #3E6838",
"@  c #425C2C",
"#  c #445C32",
"$  c #43602A",
"%  c #45682C",
"&  c #4D6D2F",
"*  c #4E752F",
"=  c #4A6734",
"-  c #496931",
";  c #4E663A",
":  c #476A3C",
">  c #4C6A3A",
",  c #566F36",
"<  c #516D39",
"1  c #4C7131",
"2  c #49733E",
"3  c #477D3F",
"4  c #4D793F",
"5  c #537335",
"6  c #597635",
"7  c #5B7937",
"8  c #54753C",
"9  c #577939",
"0  c #5B7C3E",
"q  c #586F45",
"w  c #54614B",
"e  c #58654F",
"r  c #5C6D4F",
"t  c #4F7741",
"y  c #457C40",
"u  c #4C7D42",
"i  c #4E794D",
"p  c #537343",
"a  c #5A7643",
"s  c #547B43",
"d  c #5C7B43",
"f  c #5C7448",
"g  c #5E7B49",
"h  c #596651",
"j  c #5D6B53",
"k  c #5D7A54",
"l  c #617D45",
"z  c #617E4C",
"x  c #627255",
"c  c #677B5B",
"v  c #6B7B5E",
"b  c #6C7569",
"n  c #727F69",
"m  c #4F8145",
"M  c #498943",
"N  c #548246",
"B  c #5A8447",
"V  c #538349",
"C  c #5B854A",
"Z  c #5E894B",
"A  c #5A994B",
"S  c #5E8755",
"D  c #5B9054",
"F  c #5F9957",
"G  c #648546",
"H  c #63844B",
"J  c #6A854D",
"K  c #638C4D",
"L  c #6A8D4E",
"P  c #758D4B",
"I  c #6C944E",
"U  c #789147",
"Y  c #74944E",
"T  c #72994F",
"R  c #7C9D4E",
"E  c #628251",
"W  c #6A8552",
"Q  c #648C52",
"!  c #6C8D52",
"~  c #67855B",
"^  c #6C8459",
"/  c #608A5A",
"(  c #6D885A",
")  c #718755",
"_  c #728D56",
"`  c #679151",
"'  c #6C9352",
"]  c #6E9B52",
"[  c #6F9D5E",
"{  c #729553",
"}  c #749C53",
"|  c #799D51",
" . c #73945A",
".. c #729D5D",
"X. c #799D5B",
"o. c #7EA04E",
"O. c #6DA15A",
"+. c #75A252",
"@. c #7BA452",
"#. c #75AA55",
"$. c #7BAA53",
"%. c #71A15B",
"&. c #7CA459",
"*. c #76AF5D",
"=. c #7DAD5A",
"-. c #7EB056",
";. c #74B25B",
":. c #7EB059",
">. c #6E8461",
",. c #6C8D63",
"<. c #738565",
"1. c #758D61",
"2. c #738169",
"3. c #798C6A",
"4. c #699563",
"5. c #6B9B62",
"6. c #6C976B",
"7. c #6E9868",
"8. c #749662",
"9. c #7E9F61",
"0. c #75916B",
"q. c #7B916B",
"w. c #7B9868",
"e. c #7C8775",
"r. c #71A565",
"t. c #79A064",
"y. c #7BA26C",
"u. c #80A753",
"i. c #81A954",
"p. c #82AD5B",
"a. c #82B35D",
"s. c #809A66",
"d. c #839D6A",
"f. c #81847E",
"g. c #858E7C",
"h. c #819672",
"j. c #849975",
"k. c #879A79",
"l. c #889A7A",
"z. c #81A167",
"x. c #84AD62",
"c. c #85A569",
"v. c #85A96F",
"b. c #8AAD6B",
"n. c #86B262",
"m. c #89B165",
"M. c #86BA65",
"N. c #8BB26B",
"B. c #90B46C",
"V. c #87A371",
"C. c #89A272",
"Z. c #82AA72",
"A. c #89AD75",
"S. c #90B272",
"D. c #92B07C",
"F. c #98B87C",
"G. c #868882",
"H. c #8B8E8A",
"J. c #8C9782",
"K. c #909B86",
"L. c #91948E",
"P. c #939B8A",
"I. c #939492",
"U. c #959894",
"Y. c #999E94",
"T. c #9A9C98",
"R. c #96AB81",
"E. c #99A78F",
"W. c #9CAC88",
"Q. c #9BA492",
"!. c #9FA39B",
"~. c #A1A69E",
"^. c #A2A3A2",
"/. c #ACACAC",
"(. c #B4B4B4",
/* pixels */
"$.$.$.$.$.$.$.$.$.$.' { z ' ' @.$.$.o.$.$.@.@.$.$.$.$.$.$.$.$.$.$.$.$.$.$.$.$.#.@.$.p.a.o.o.@.$.@.@.=.a.@.$.p.x.p.@.&.$.$.@.o.$.",
"=.$.$.$.@.#.$.$.$.$.$.$.$.$.$.$.$.$.$.$.$.o.@.a.$.$.$.$.$.$.+.} $.$.$.$.$.o.o.$.$.@.$.$.o.$.@.@.o.$.@.$.@.p.@.$.$.@.+.$.@.@.u.$.",
"-.$.$.$.o.@.$.$.o.$.$.-.$.=.-.$.$.$.=.p.$.$.$.M.$.$.$.$.$.$.I K $.$.+.$.-.$.$.o.@.$.-.o.+.@.o.o.@.@.u.o.u.| | $.$.| } +.$.$.$.$.",
"$.$.u.$.$.@.o.@.o.@.o.#.o.$.$.$.$.$.$.p.a.@.$.$.o.$.$.$.$.$.Z N $.$.` ] $.-.o.-.$.$.-.@.@.$.$.@.@.o.@.$.| @.+.@.} X.$.@.I K B $.",
"-.$.@.$.$.$.$.@.+.o.o.o.@.:.a.$.p.$.$.$.+.T $.$.T $.$.$.@.$.B N $.$.G $.$.@.$.a.p.o.-.@.@.$.@.o.@.@.@.@.@.$.$.| | +.o.$.$.$.} $.",
"$.$.=.$.a.$.o.$.o.$.#.$.o.:.:.$.$.$.$.R @.$.$.$.` @.#.o.$.$.+.m ` +.K $.@.o.=.$.@.R $.$.o.o.@.p.p.i.@.o.o.@.$.@.$.@.$.#.$.$.$.=.",
"$.-.-.$.n.=.$.$.$.$.p.$.$.M.$.$.$.@.@.T ] @.$.} I o.$.R $.$.$.N } $.$.$.$.R u.o.R R $.o.R +.@.@.$.} X.l p.R u.@.@.@.$.-.$.$.$.$.",
"$.$.-.p.n.$.$.$.$.p.a.$.+.+.$.$.$.$.@.+.] o.@.' I o.$.@.$.$.$.$.$.$.$.$.p.$.$.$.U } ` R o.o.T L Y | Y J @. .R @.@.a.n.$.$.$.@.+.",
"$.$.$.p.=.+.} | #.a.$.:.=.+.$.$.$.$.$.$.$.@.@.I K $.o.$.$.$.i.a.$.$.$.o.} o.$.R R I } $.| Y @.H ! | { L H | | $.$.M.@.$.$.@.| | ",
"$.$.$.a.$.@. . .@.$.$.-.+.-.=.$.$.$.@.@.$.$.o.I Z $.$.$.$.=.p.a.$.@.o.+.' @.$.@.| L $.$.7 T } s d { I H y _ } } @.@.@.@.$.$.$.@.",
"$.@.+.$.$.$.|  .@.$.$.$.$.k.E.K.! $.@.@.@.$.$.$.-.$.$.$.p.p.=.$.$.$.R +.I o.R $.T K R @.Y { s J 4 I K 2 ! @.G +.o.@.=.$.$.$.$.$.",
"$.{  .$.#.o.$.=.n.p.$.$.l.~.~.K.J.3.H  .$.$.$.$.$.$.$.$.p.$.$.$.$.$.T R I @.| @.Y I { R o.u.s C s K Z t | ' | @.$.$.p.$.$.@.+.&.",
"$.+.@.$.` ` @.$.p.p.$.x j 2.g.n g.<.g X.} { p.p.-.$.+.+.$.+.$.$.$.$.$.+.R $.$.@.P R Y Y @.p.+.B p V u s L ' @.o.@.@.a.$.@.$.} X.",
"$.$.$.$.` ` o.$.$.$.{ ! e h w h e r H { ' { p.p.$.$.` ` =.C I $.$.$.#.@.T $.$.@.Y R L Y | u.| H s + 2 : H T @.$.o.$.@.p.@.$.$.@.",
"=.p.$.$.+.Z o.o.$.$.$.$.| ' W W z a H ` ! { #.@.$.$.$.V $.N N $.$.$.$.@.o.+.+.o.Y R L | R @.| Y J O > p ! T o.@.$.$.$.o.@.$.$.$.",
"$.p.$.$.+.Z @.$.$.$.$.p.p.p.$.=.$.p.$.} | | @.$.-.$.$.K Q +.3 $.$.o.$.$.$.@.T @.R R K | R @.@.{ L J L } | } $.@.$.@.$.$.$.$.$.n.",
"p.p.$.$.$.$.$.$.-.$.$.p.-.a.=.$.$.$.@.$.$.$.$.$.p.$.$.$.m ` u $.z d 8 ( 8 1 g @.| Y I | R o.@.o.o.o.$.$.o.$.$.$.@.o.$.$.+.+.+.n.",
"=.p.$.$.#.$.$.$.-.$.$.$.=.$.p.$.$.o.o.@.p.p.=.$.$.#.$.$.N K $.% ^ - f ) 9 * g 5 0 { Y R i.@.@.@.$.$.$.@.=.a.N.x.+.@.T #.T $.] #.",
"$.$.$.$.$.-.o.$.-.#.$.$.-.$.@.o.$.o.o.@.$.a.B.p.$.$.-.$.` 3 $ X   X # 8 ] p < = f | @.@.@.p.$.$.@.$.#.+.:.A.Z.r.] +.' ` T Z Z $.",
"$.$.$.o.$.$.o.$.o.$.=.` ] $.$.$.o.$.#.$.$.$.p.$.$.$.a.=.a.N ! .   o X @ s - X X @ ' ] o.o.=.$.$.$.@.+.] 7.y.r.] S %.I K ] Z $.-.",
"$.$.$.o.$.-.$.#.} $.a.$.p.p.$.$.$.-.+.$.p.$.$.$.#.$.-.$.-.=.#.| } ' !  .{ $. .} @.@.' $.@.$.$.=.$.#.} Z B ,.Z.D i 6.N B #.M X.@.",
"$.=.:.$.@.$.$.$.M.$.$.$.D.N.b.=.] +.' $.$.$.$.$.o.$.=.$.$.:.$.$.{ } } $.=.@.$.p.x.~ 8.@.$.$.$.] T $.;.Z N O.r.Z m 4.m V ;.M ..=.",
"$.-.-.$.$.$.$.$.:.n.=.R.M.a.b.0.Z Z ] $.@.} $.o.+.o.@.#.$.=.$.-.$.$.$.$.@.$.x.x.x.k 8.9.$.$.$.} C $.;.B Z %.#.Q 3 / B V ;./ 5.a.",
"-.$.@.$.$.$.+.-.:.=.j.0. .=.c.1.! $.I $.$.T $.+.R +.+.o.$.$.$.a.x.S.N.$.+.p.u.X.p.&.X.} @.#.o.$.` ] *.K ] 5.] Q M ] B N ;.S 4.$.",
":.$.a.$.o.$.K $.#.=. .c ( 8.z.( ' +. .$.$.] o.| +.@.| R $.$.$.$.$.m.N.$.-.#.@.&.| X.{ } | $.$.o.=.Q *.` Z ..#.Q 3 B Z m K s @.:.",
"-.$.$.$.@.@.` $.#.+.` ] @.-.=.} } =.+.+.$.] @.+.@.o.+.@.@.$.$.$.$.$.$.$.-.-.@.+.+.#.@.$.@.#.o.+.} Q =.` E 5.#.S u m ' } B p =.a.",
"a.$.a.@.$.@.] +.{ } ' #.=.$.| | @.$.o.$.| +.o.#.$.T $.$.$.$.$.$.$.=.$.$.=.#.$.$.$.o.+.' $.@.#.@.@.] ] Q ` [ ] ` B H Q I } { $.:.",
"a.$.$.u.o.o.] I } @.' $.=.@.+.+.+.K u N N N $.$.$.$.$.I ' ` $.$.$.a.$.$.$.$.$.$.` +.+.V } +.$.} ' @.} Q @.$.#.' } K K ` +.$.$.=.",
"$.$.$.$.-.$.$.o.$.@.T +.$.' ` Z Q N s B $.C B $.$.$.$.+.+.Z I $.-.-.$.$.$.$.$.$.K ` $.+.S Z $.Z ' @.+.] | +.$.+.' L } $.p.{ p.$.",
"p.-.$.$.+.@.+.$.$.=.$.$.$.@.+.B ` K N B $.$.+.$.$.$.$.$.=.$.$.$.-.$.$.$.$.T ` ` ' N +.+.M A ` ` $.@.@.@.| +.=.@.} ` ' $.p. .@.$.",
"$.$.$.+.` Z Z $.$.$.$.$.o.@.$.$.$.$.$.p.=.$.$.$./.$.$.$.$.u.u.$.-.$.$.$.+.K ` ` +.B C | 4 K t B $.$.$.$.o.$.:.$.$.K +.$.$.$.$.$.",
"$.$.$.$.$.$.$.$.@.-.=.$.$.$.$.$.$.$.m.F.m.$.$./.(./.~.@.$.$.i.$.-.#.$.$.$.$.$.$.$.` C H : p 8 C $.@.@.$.$.=.:.$.$.$.$.#.$.$.$.$.",
"$.$.$.$.$.$.$.$.o.=.-.a.o.@.@.$.@.$.$.x.$.@././.^.L.e.p.#.o.o.$.$.$.$.$.$.$.$.$.$.$.' { z { ' @.$.$.@.$.$.o.+.$.$.$.$.$.$.$.$.$.",
"$.$.$.$.$.$.o.$.$.$.$.$.+.o.@.$.@.@.@.$.$.T.L.U.I.I.<.$.$.o.$.$.-.$.$.$.o.$.$.$.$.$.$.$.$.@.$.$.$.$.$.$.$.o.o.a.$.$.$.$.$.$.@.T ",
"$.o.@.#.=.$.o.@.@.$.$.o.@.@.#.o.@.@.$.$.@.E G.H.f.b E +.$.$.$.#.$.-.$.$.@.@.$.$.@.$.$.=.$.$.-.$.$.i.p.p.$.$.$.M.$.$.$.$.$.$.] +.",
"$.$.I ] -.$.$.-.$.$.=.o.@.$.o.@.@.@.@.@.@.| ! ^ d  .$.$.N N C $.$.$.$.$.$.@.o.o.@.@.o.@.@.$.$.$.$.$.$.p.p.$.$.$.#.$.$.$.$.$.I +.",
"$.$.Z $.@.@.u.n.p.o.p.$.@.@.@.o.@.u.| u.u.$.@.| } @.@.$.$.$.T $.-.$.o.$.$.$.o.$.@.R R @.@.-.p.$.p.$.$.$.+.} $.$.T @.$.#.$.$.I +.",
"K +.K $.@.o.-.$.$.R $.$.o.@.o.a.i.p.u.| | @.@.$.@.@.$.$.$.$.$.-.-.$.$.$.=.=.$.$.@.$.$.$.o.-.-.#.$.$.$.| @.$.$.$.I @.$.o.$.$.$.+.",
"T $.$.$.$.o.u.R R R $.o.R R @.o.i.)  .l i.| @.@.o.@.$.=.$.$.$.=.$.-.=.$.n.$.$.$.$.$.=.$.$.M.$.$.$.$.o.T ] @.$.} I o.$.@.$.$.$.+.",
"$.#.$.$.p.u.$.$.U T L R | @.0 6 l ) l l s.! o.@.@.a.M.$.$.@.+.&.$.$.a.p.n.$.$.#.$.p.a.$.+.#.$.$.$.o.$.+.] R o.' K $.o.@.o.$.$.$.",
"-.$.$.o.T o.#.R R I } $.@.G J l l l 5 & q f Y u.$.M.$.@.$.@.} | $.$.$.=.$.&.}  .$.a.$.a.-.+.$.$.$.$.$.$.#.@.o.T K $.$.$.$.$.$.a.",
"$.o.+.$.I $.$.o.R K @.$.6 , 6 < ; , & @ @ # { | o.u.$.$.$.$.@.$.$.$.$.a.$.@. .{ $.$.$.=.+.p.=.$.$.$.@.$.$.$.o.I K $.$.$.$.$.p.a.",
"$.o.R o.I @.| $.} H R @.Y , $ ; @ & @ a _ } } @.R @.p.$.$.#.$.$.$.@.| $.$.$.+. .@.$.$.$.$.k.l.3.G =.$.o.o.$.$.$.$.$.$.$.i.a.a.u.",
"$.#.o.Y I @.o.@.Y T } R R o.G H J Y Y L o.{ | o.u.$.p.$.$.o.@.+.$.}  .$.$.@.$.$.a.p.$.$.h.k.<.>.q.1.H  .$.$.=.$.$.$.$.$.p.$.$.$.",
"#.o.#.o.| $.$.u.P R Y Y +.p.T H J K K ! ` { o.@.@.$.p.$.$.@.| } $.+.+.$.` I @.$.=.p.$.x x x v x >.v g X.{ } p.p.-.$.} +.$.+.$.$.",
"$.$.$.$.| $.$.R Y | L Y | @.I G J g H H H +.@.$.@.$.@.p.@.$.@.$.$.$.$.$.` ` @.$.$.$.{ ' e e w j h j z { ! { x.p.=.$.` ` $.Z I $.",
"$.$.$.+.@.@.| @.U | L | R @.R Y I d H H ! | +.@.o.$.$.o.$.$.$.$.i.p.$.$.} Z o.R o.$.$.$.} { W W z 8 H ! ! I $.o.$.$.#.B $.N N $.",
"$.o.$.@.@.+.} @.R R K | R @.+.{ P L Y } R T $.@.$.@.$.$.$.$.$.a.=.p.$.$.+.Z @.$.$.-.$.p.p.$.p.$.=.p.=.} @.+.+.$.-.$.$.Z K +.3 $.",
"} I 9 ^ 9 1 g +.| { ! | R @.R @.$.o.#.$.o.#.$.$.@.@.@.$.+.+.+.a.p.=.$.$.$.$.$.$.-.$.$.p.p.p.p.$.$.$.o.$.i.$.$.$.a.$.$.@.m ` m $.",
" .9 f ! 9 * g 5 0 Y Y R i.@.$.@.o.$.$.@.$.a.N.n.+.@.+.+.+.$.] #.$.a.$.$.$.$.$.@.$.$.$.$.:.$.i.$.$.o.o.$.p.p.i.$.$.@.$.#.N K #.T ",
"  X ; 8 ] p 1 = f | @.@.$.u.@.@.$.$.#.+.-.A.v.t.] +.I I ] Z Z $.$.$.$.@.#.-.@.$.-.$.$.$.:.$.@.$.$.o.o.+.$.a.B.a.$.$.:.$.' 3 G +.",
"8 o X @ d = X @ @ { ` @.o.=.$.p.o.$.] +.7.y.r.F S %.I K ] Z #.=.$.$.$.$.o.$.@.$.#.$.p.Q ] $.@.$.$.@.$.$.$.$.=.$.$.$.a.-.a.N { T ",
"} ! ! }  .$.{ } @.$.' @.$.$.$.p.$.#.] Z C ,.Z.D i 6.N V #.m ..@.$.$.$.$.$.$.$.@.+.$.a.$.=.p.$.$.$.:.+.$.-.-.$.$.$.$.$.#.:.=.$.@.",
"} { | $.=.$.@.x.W.J.w.@.$.$.$.T } =.;.G V O.;.Z u 4.M V ;.B ..=.$.$.a.$.$.-.$.$.n.$.$.$.D.N.b.=.' +.I +.$.$.$.$.@.$.=.$.$.:.=.$.",
"$.$.$.@.$.@.R.~.!.Y.K.d.$.$.@.T C $.;.N S O.O.Q u / Z V ;.S 5.a.$.$.p.$.$.$.$.$.:.a.$.D.M.n.b.0.Z Q G $.@.` $.@.R @.$.$.#.$.$.-.",
"n.S.N.$.#.$.C.K.Q.P.g.] o.$.$.$.Q Z ;.Z ] 5.` E 3 ` C V ;.Z 4.=.-.$.$.$.$.$.+.:.a.=.k.q. .:.V.<.! $.Z =.$.` $.} T @.+.o.$.$.$.p.",
"$.m.N.$.=.$.9.s. .3.J } | $.@.@.=.N ;.C C 5.O.Z 3 Z C u K s @.:.p.$.=.$.o.$.K $.=.n.' c >.y.j.c  .| K $.=.C +.+.o.@.R R o.-.#.$.",
"$.$.$.$.-.=.@.] | @.$.$.#.@.$.T +.u ' V Z 5.+.Z u s } } B t :.a.-.$.-.$.$.o.L #.=.#.' ] &.M.:.{ ] =.L I =.B o.@.+.@.$.+.o.$.$.$.",
"$.-.$.$.=.$.$.@.$.@.+.' $.$.$.@.@.K V m ` 5.] Q V K Q I { { $.:.a.-.a.o.@.$.} } '  .' +.a.a.' ` #.@.T @.H B @.+.$.R $.$.$.#.$.$.",
"$.a.#.$.$.$.$.@.Q +.+.C T } $.} ' } Z 3 $.$.O.Q } L K ' &.$.$.$.-.-.$.$.@.o.] ' } o.] $.=.o.| ] @.K s d B s @.$.$.$.$.` I ` -.$.",
"-.-.$.$.$.$.$.$.K ` $.+.Z C $.Z { | +.} } #.$.+.I K { $.p.} $.$.$.$.$.=.$.$.$.@.$.@.} +.#.] ' Z Q N s B $.B B $.$.@.$.+.+.Z ` $.",
":.$.$.$.$.} ` ` ] N T } M A ` ` @.o.@.+.| +.=.$.} ! ' =.p.T @.$.p.$.$.$.+.+.+.$.$.$.o.-.$.o.+.B ` K N V $.$.+.$.$.$.$.$.-.$.$.$.",
"-.$.$.$.#.K ` I +.V H +.t K u B $.$.$.$.| $.:.$.$.Z | =.$.#.$.$.$.$.$.@.` Z Z $.$.$.$.$.$.@.#.$.$.$.$.p.$.$.$.$.x.$.$.$.$.u.$.u.",
"-.$.$.$.$.$.$.$.$.` C C : p p H $.$.@.$.$.$.-.$.$.$.$.$.$.$.$.$.$.$.$.$.$.$.$.$.$.-.$.$.@.@.o.$.$.$.m.p.p.$.$.p.=.$.p.$.$.$.u.$."
};
