/* XPM */
static char * wall_xpm[] = {
"64 64 7 1",
" 	c None",
".	c #005800",
"+	c #007800",
"@	c #42290F",
"#	c #006800",
"$	c #503000",
"%	c #623B00",
"                            ....++++                            ",
"                            ....++++                            ",
"                            ....++++                            ",
"                            ....++++                            ",
"                            ....++++                            ",
"                            ....++++                            ",
"                            ....++++                            ",
"                            ....++++                            ",
"                        ....++++....++++                        ",
"                        ....++++....++++                        ",
"                        ....++++....++++                        ",
"                        ....++++....++++                        ",
"                        ++++....++++....                        ",
"                        ++++....++++....                        ",
"                        ++++....++++....                        ",
"                        ++++....++++....                        ",
"                        @@@@....++++++++                        ",
"                        @@@@....++++++++                        ",
"                        @@@@....++++++++                        ",
"                        @@@@....++++++++                        ",
"                    ++++....++++####++++####                    ",
"                    ++++....++++####++++####                    ",
"                    ++++....++++####++++####                    ",
"                    ++++....++++####++++####                    ",
"                    ............@@@@####++++                    ",
"                    ............@@@@####++++                    ",
"                    ............@@@@####++++                    ",
"                    ............@@@@####++++                    ",
"                    ####++++++++####++++####                    ",
"                    ####++++++++####++++####                    ",
"                    ####++++++++####++++####                    ",
"                    ####++++++++####++++####                    ",
"                ####....####++++++++####@@@@####                ",
"                ####....####++++++++####@@@@####                ",
"                ####....####++++++++####@@@@####                ",
"                ####....####++++++++####@@@@####                ",
"                ....####....@@@@....####....++++                ",
"                ....####....@@@@....####....++++                ",
"                ....####....@@@@....####....++++                ",
"                ....####....@@@@....####....++++                ",
"                ####....++++####....########....                ",
"                ####....++++####....########....                ",
"                ####....++++####....########....                ",
"                ####....++++####....########....                ",
"            ....++++####@@@@++++++++@@@@########....            ",
"            ....++++####@@@@++++++++@@@@########....            ",
"            ....++++####@@@@++++++++@@@@########....            ",
"            ....++++####@@@@++++++++@@@@########....            ",
"            ....####....########++++........########            ",
"            ....####....########++++........########            ",
"            ....####....########++++........########            ",
"            ....####....########++++........########            ",
"            ####    ++++    ........    ####    ....            ",
"            ####    ++++    ........    ####    ....            ",
"            ####    ++++    ........    ####    ....            ",
"            ####    ++++    ........    ####    ....            ",
"                            $$$$%%%%                            ",
"                            $$$$%%%%                            ",
"                            $$$$%%%%                            ",
"                            $$$$%%%%                            ",
"                        $$$$$$$$$$$$$$$$                        ",
"                        $$$$$$$$$$$$$$$$                        ",
"                        $$$$$$$$$$$$$$$$                        ",
"                        $$$$$$$$$$$$$$$$                        "};
